<?xml version="1.0" encoding="UTF-8" standalone="no"?>
<!DOCTYPE svg PUBLIC "-//W3C//DTD SVG 1.1//EN" "http://www.w3.org/Graphics/SVG/1.1/DTD/svg11.dtd">
<svg width="100%" height="100%" viewBox="0 0 480 320" version="1.1" xmlns="http://www.w3.org/2000/svg" xmlns:xlink="http://www.w3.org/1999/xlink" xml:space="preserve" xmlns:serif="http://www.serif.com/" style="fill-rule:evenodd;clip-rule:evenodd;stroke-linejoin:round;stroke-miterlimit:2;">
    <g id="Confirm-21" serif:id="Confirm 21">
        <path d="M480,5L480,315C480,317.76 477.76,320 475,320L5,320C2.24,320 0,317.76 0,315L0,5C0,2.24 2.24,0 5,0L475,0C477.76,0 480,2.24 480,5Z" style="fill:rgb(23,22,22);"/>
        <g id="Rectangle-11" serif:id="Rectangle 11" opacity="0.47">
            <path d="M480,236C480,236 453.375,235.58 414.535,235.075C355.826,234.312 269.208,233.353 204.443,233.353L204.443,281L475,281C477.761,281 480,278.761 480,276L480,236Z" style="fill:rgb(87,87,87);fill-rule:nonzero;"/>
            <path d="M0,188.291L276.169,189.853L480,50.718L204.443,50.718L0,188.291Z" style="fill:url(#_Linear1);fill-rule:nonzero;"/>
            <path d="M0,188.291L204.443,50.718L200.619,39L2.163,175.759C0.809,176.692 0,178.231 0,179.876L0,188.291Z" style="fill:rgb(183,181,181);fill-rule:nonzero;"/>
            <path d="M204.443,50.718L480,50.718L480,44C480,41.239 477.761,39 475,39L200.619,39L204.443,50.718Z" style="fill:rgb(174,169,169);fill-rule:nonzero;"/>
            <path d="M276.169,189.853L0,188.291L45.138,198L276.169,198L276.169,189.853Z" style="fill:rgb(69,69,69);fill-rule:nonzero;"/>
            <path d="M45.138,198L102.221,210.279L204.443,233.353C269.208,233.353 355.826,234.312 414.535,235.075L330.158,212.466L276.169,198L45.138,198Z" style="fill:url(#_Linear2);"/>
            <path d="M330.158,202.076L276.169,189.853L276.169,198L330.158,212.466L414.535,235.075C453.375,235.58 480,236 480,236L378.084,212.926L330.158,202.076Z" style="fill:url(#_Linear3);fill-rule:nonzero;"/>
            <path d="M102.221,210.279L45.138,198L0,188.291L0,231.981C0,234.328 1.633,236.359 3.925,236.864L102.221,258.5L204.443,281L204.443,233.353L102.221,210.279Z" style="fill:rgb(107,106,106);"/>
        </g>
        <path id="insert-plate" serif:id="insert plate" d="M14.72,186C14.347,186 14.16,185.76 14.16,185.28L14.16,134.32C14.16,133.84 14.347,133.6 14.72,133.6L18.8,133.6C19.173,133.6 19.36,133.84 19.36,134.32L19.36,185.28C19.36,185.76 19.173,186 18.8,186L14.72,186ZM28.078,186C27.758,186 27.598,185.76 27.598,185.28L27.598,134.32C27.598,133.84 27.784,133.6 28.157,133.6L34.718,133.6C35.091,133.6 35.304,133.76 35.358,134.08L43.998,164.8C44.424,166.187 44.851,167.76 45.278,169.52C45.704,171.227 46.104,172.96 46.477,174.72C46.904,176.427 47.251,177.973 47.517,179.36L47.678,179.36C47.624,178.293 47.571,177.12 47.517,175.84C47.464,174.56 47.411,173.253 47.358,171.92C47.358,170.587 47.331,169.28 47.278,168L47.278,134.24C47.278,133.813 47.464,133.6 47.837,133.6L51.758,133.6C52.131,133.6 52.318,133.813 52.318,134.24L52.318,185.28C52.318,185.76 52.131,186 51.758,186L45.197,186C44.931,186 44.744,185.867 44.638,185.6L36.237,155.84C35.438,153.013 34.744,150.293 34.157,147.68C33.571,145.013 33.038,142.533 32.557,140.24L32.398,140.24C32.451,141.787 32.477,143.52 32.477,145.44C32.531,147.307 32.557,149.2 32.557,151.12C32.611,152.987 32.638,154.693 32.638,156.24L32.638,185.28C32.638,185.76 32.477,186 32.157,186L28.078,186ZM69.766,186.48C66.886,186.48 64.593,185.84 62.886,184.56C61.18,183.28 60.006,181.547 59.366,179.36C58.726,177.12 58.513,174.587 58.726,171.76C58.78,171.227 58.966,170.96 59.286,170.96L63.286,170.96C63.713,170.96 63.9,171.227 63.846,171.76C63.473,175.013 63.82,177.44 64.886,179.04C66.006,180.64 67.713,181.44 70.006,181.44C72.086,181.44 73.633,180.827 74.646,179.6C75.713,178.32 76.246,176.347 76.246,173.68C76.246,171.333 75.926,169.413 75.286,167.92C74.646,166.373 73.526,165.013 71.926,163.84L65.446,158.72C63.26,157.013 61.633,155.093 60.566,152.96C59.553,150.773 59.046,148.16 59.046,145.12C59.1,141.333 60.06,138.4 61.926,136.32C63.846,134.187 66.486,133.12 69.846,133.12C73.793,133.12 76.673,134.4 78.486,136.96C80.353,139.52 81.073,143.013 80.646,147.44C80.646,148.027 80.46,148.32 80.086,148.32L76.006,148.32C75.633,148.32 75.473,148.027 75.526,147.44C75.846,144.453 75.5,142.16 74.486,140.56C73.473,138.96 71.953,138.16 69.926,138.16C68.22,138.16 66.86,138.72 65.846,139.84C64.833,140.96 64.3,142.667 64.246,144.96C64.246,147.093 64.62,148.907 65.366,150.4C66.113,151.893 67.26,153.253 68.806,154.48L75.046,159.36C76.593,160.533 77.82,161.787 78.726,163.12C79.686,164.4 80.38,165.893 80.806,167.6C81.233,169.253 81.446,171.2 81.446,173.44C81.446,177.493 80.486,180.693 78.566,183.04C76.7,185.333 73.766,186.48 69.766,186.48ZM88.472,186C88.045,186 87.832,185.76 87.832,185.28L87.832,134.32C87.832,133.84 88.019,133.6 88.392,133.6L106.472,133.6C106.845,133.6 107.032,133.84 107.032,134.32L107.032,137.92C107.032,138.4 106.845,138.64 106.472,138.64L93.032,138.64L93.032,156.88L105.352,156.88C105.725,156.88 105.912,157.12 105.912,157.6L105.912,160.96C105.912,161.44 105.725,161.68 105.352,161.68L93.032,161.68L93.032,180.96L106.472,180.96C106.845,180.96 107.032,181.2 107.032,181.68L107.032,185.28C107.032,185.76 106.845,186 106.472,186L88.472,186ZM115.033,186C114.659,186 114.473,185.76 114.473,185.28L114.473,134.32C114.473,133.84 114.659,133.6 115.033,133.6L123.833,133.6C128.259,133.6 131.486,134.773 133.513,137.12C135.593,139.467 136.633,143.04 136.633,147.84C136.633,151.84 136.046,155.013 134.873,157.36C133.753,159.653 132.179,161.2 130.153,162L130.153,162.08L138.393,185.12C138.499,185.707 138.313,186 137.833,186L133.433,186C133.166,186 132.953,185.84 132.793,185.52L125.033,163.2L119.673,163.2L119.673,185.28C119.673,185.76 119.486,186 119.113,186L115.033,186ZM119.673,158.4L123.993,158.4C126.659,158.4 128.553,157.573 129.673,155.92C130.846,154.213 131.432,151.653 131.432,148.24C131.432,144.773 130.793,142.32 129.513,140.88C128.286,139.387 126.366,138.64 123.753,138.64L119.673,138.64L119.673,158.4ZM150.179,186C149.805,186 149.619,185.76 149.619,185.28L149.619,138.64L141.219,138.64C140.792,138.64 140.579,138.4 140.579,137.92L140.579,134.32C140.579,133.84 140.792,133.6 141.219,133.6L163.219,133.6C163.592,133.6 163.779,133.84 163.779,134.32L163.779,137.92C163.779,138.4 163.592,138.64 163.219,138.64L154.819,138.64L154.819,185.28C154.819,185.76 154.605,186 154.179,186L150.179,186ZM179.876,186C179.503,186 179.316,185.76 179.316,185.28L179.316,134.32C179.316,133.84 179.503,133.6 179.876,133.6L187.556,133.6C192.09,133.6 195.396,134.907 197.476,137.52C199.61,140.08 200.676,144.133 200.676,149.68C200.676,154.853 199.61,158.827 197.476,161.6C195.343,164.32 192.196,165.68 188.036,165.68L184.516,165.68L184.516,185.28C184.516,185.76 184.33,186 183.956,186L179.876,186ZM184.516,160.72L187.556,160.72C190.33,160.72 192.33,159.84 193.556,158.08C194.836,156.32 195.476,153.573 195.476,149.84C195.476,145.787 194.836,142.907 193.556,141.2C192.33,139.44 190.436,138.56 187.876,138.56L184.516,138.56L184.516,160.72ZM207.298,186C206.925,186 206.738,185.76 206.738,185.28L206.738,134.32C206.738,133.84 206.925,133.6 207.298,133.6L211.378,133.6C211.751,133.6 211.938,133.84 211.938,134.32L211.938,180.96L224.898,180.96C225.325,180.96 225.538,181.2 225.538,181.68L225.538,185.28C225.538,185.76 225.325,186 224.898,186L207.298,186ZM227.664,186C227.29,186 227.13,185.733 227.184,185.2L237.584,134.16C237.637,133.787 237.877,133.6 238.304,133.6L243.904,133.6C244.33,133.6 244.57,133.787 244.624,134.16L255.104,185.2C255.157,185.733 254.997,186 254.624,186L250.224,186C249.904,186 249.69,185.84 249.584,185.52L243.104,150.88C242.73,149.013 242.357,147.173 241.984,145.36C241.664,143.493 241.37,141.627 241.104,139.76L240.944,139.76C240.677,141.627 240.384,143.493 240.064,145.36C239.797,147.173 239.477,149.04 239.104,150.96L232.624,185.52C232.57,185.84 232.384,186 232.064,186L227.664,186ZM234.064,173.12L235.024,168.08L247.024,168.08L248.144,173.12L234.064,173.12ZM263.226,186C262.852,186 262.666,185.76 262.666,185.28L262.666,138.64L254.266,138.64C253.839,138.64 253.626,138.4 253.626,137.92L253.626,134.32C253.626,133.84 253.839,133.6 254.266,133.6L276.266,133.6C276.639,133.6 276.826,133.84 276.826,134.32L276.826,137.92C276.826,138.4 276.639,138.64 276.266,138.64L267.866,138.64L267.866,185.28C267.866,185.76 267.652,186 267.226,186L263.226,186ZM283.003,186C282.576,186 282.363,185.76 282.363,185.28L282.363,134.32C282.363,133.84 282.55,133.6 282.923,133.6L301.003,133.6C301.376,133.6 301.563,133.84 301.563,134.32L301.563,137.92C301.563,138.4 301.376,138.64 301.003,138.64L287.563,138.64L287.563,156.88L299.883,156.88C300.256,156.88 300.443,157.12 300.443,157.6L300.443,160.96C300.443,161.44 300.256,161.68 299.883,161.68L287.563,161.68L287.563,180.96L301.003,180.96C301.376,180.96 301.563,181.2 301.563,181.68L301.563,185.28C301.563,185.76 301.376,186 301.003,186L283.003,186Z" style="fill:rgb(249,248,245);fill-rule:nonzero;"/>
        <g id="top">
            <g id="backPreview">
                <rect id="Rectangle-19" serif:id="Rectangle 19" x="0" y="0" width="34" height="35" style="fill:rgb(23,22,22);"/>
                <path id="Union" d="M19.822,10.204C20.095,9.931 20.538,9.932 20.811,10.205L22.178,11.572C22.451,11.846 22.451,12.288 22.178,12.561L14.425,20.315L22.18,28.069C22.453,28.343 22.453,28.786 22.18,29.06L20.813,30.426C20.54,30.7 20.096,30.699 19.823,30.426L11.593,22.196C11.586,22.19 11.578,22.186 11.572,22.179L10.205,20.812C9.975,20.582 9.94,20.234 10.096,19.966C10.12,19.925 10.147,19.887 10.18,19.851C10.188,19.841 10.195,19.831 10.205,19.822L19.822,10.204Z" style="fill:rgb(99,99,99);fill-rule:nonzero;"/>
            </g>
        </g>
        <g id="the-engraving-is-loud-" serif:id="the engraving is loud!" transform="matrix(1,0,0,1,4,0)">
            <path d="M12.877,205C12.779,205 12.73,204.937 12.73,204.811L12.73,192.568L10.525,192.568C10.413,192.568 10.357,192.505 10.357,192.379L10.357,191.434C10.357,191.308 10.413,191.245 10.525,191.245L16.3,191.245C16.398,191.245 16.447,191.308 16.447,191.434L16.447,192.379C16.447,192.505 16.398,192.568 16.3,192.568L14.095,192.568L14.095,204.811C14.095,204.937 14.039,205 13.927,205L12.877,205ZM18.048,205C17.95,205 17.901,204.937 17.901,204.811L17.901,191.434C17.901,191.308 17.95,191.245 18.048,191.245L19.119,191.245C19.217,191.245 19.266,191.308 19.266,191.434L19.266,197.23L23.004,197.23L23.004,191.434C23.004,191.308 23.053,191.245 23.151,191.245L24.201,191.245C24.313,191.245 24.369,191.308 24.369,191.434L24.369,204.811C24.369,204.937 24.313,205 24.201,205L23.151,205C23.053,205 23.004,204.937 23.004,204.811L23.004,198.532L19.266,198.532L19.266,204.811C19.266,204.937 19.217,205 19.119,205L18.048,205ZM26.702,205C26.59,205 26.534,204.937 26.534,204.811L26.534,191.434C26.534,191.308 26.583,191.245 26.681,191.245L31.427,191.245C31.525,191.245 31.574,191.308 31.574,191.434L31.574,192.379C31.574,192.505 31.525,192.568 31.427,192.568L27.899,192.568L27.899,197.356L31.133,197.356C31.231,197.356 31.28,197.419 31.28,197.545L31.28,198.427C31.28,198.553 31.231,198.616 31.133,198.616L27.899,198.616L27.899,203.677L31.427,203.677C31.525,203.677 31.574,203.74 31.574,203.866L31.574,204.811C31.574,204.937 31.525,205 31.427,205L26.702,205ZM36.321,205C36.209,205 36.153,204.937 36.153,204.811L36.153,191.434C36.153,191.308 36.202,191.245 36.3,191.245L41.045,191.245C41.144,191.245 41.193,191.308 41.193,191.434L41.193,192.379C41.193,192.505 41.144,192.568 41.045,192.568L37.517,192.568L37.517,197.356L40.752,197.356C40.849,197.356 40.898,197.419 40.898,197.545L40.898,198.427C40.898,198.553 40.849,198.616 40.752,198.616L37.517,198.616L37.517,203.677L41.045,203.677C41.144,203.677 41.193,203.74 41.193,203.866L41.193,204.811C41.193,204.937 41.144,205 41.045,205L36.321,205ZM43.272,205C43.188,205 43.146,204.937 43.146,204.811L43.146,191.434C43.146,191.308 43.195,191.245 43.293,191.245L45.015,191.245C45.113,191.245 45.169,191.287 45.183,191.371L47.451,199.435C47.563,199.799 47.675,200.212 47.787,200.674C47.899,201.122 48.004,201.577 48.102,202.039C48.214,202.487 48.305,202.893 48.375,203.257L48.417,203.257C48.403,202.977 48.389,202.669 48.375,202.333C48.361,201.997 48.347,201.654 48.333,201.304C48.333,200.954 48.326,200.611 48.312,200.275L48.312,191.413C48.312,191.301 48.361,191.245 48.459,191.245L49.488,191.245C49.586,191.245 49.635,191.301 49.635,191.413L49.635,204.811C49.635,204.937 49.586,205 49.488,205L47.766,205C47.696,205 47.647,204.965 47.619,204.895L45.414,197.083C45.204,196.341 45.022,195.627 44.868,194.941C44.714,194.241 44.574,193.59 44.448,192.988L44.406,192.988C44.42,193.394 44.427,193.849 44.427,194.353C44.441,194.843 44.448,195.34 44.448,195.844C44.462,196.334 44.469,196.782 44.469,197.188L44.469,204.811C44.469,204.937 44.427,205 44.343,205L43.272,205ZM54.551,205.126C53.543,205.126 52.801,204.797 52.325,204.139C51.849,203.467 51.611,202.459 51.611,201.115L51.611,195.214C51.611,193.884 51.891,192.869 52.451,192.169C53.011,191.469 53.816,191.119 54.866,191.119C55.972,191.119 56.805,191.504 57.365,192.274C57.925,193.044 58.149,194.108 58.037,195.466C58.037,195.578 57.988,195.634 57.89,195.634L56.798,195.634C56.686,195.634 56.644,195.578 56.672,195.466C56.77,194.514 56.658,193.772 56.336,193.24C56.014,192.708 55.538,192.442 54.908,192.442C54.264,192.442 53.781,192.673 53.459,193.135C53.137,193.597 52.976,194.311 52.976,195.277L52.976,201.01C52.976,202.004 53.116,202.718 53.396,203.152C53.676,203.586 54.145,203.803 54.803,203.803C55.461,203.803 55.958,203.537 56.294,203.005C56.63,202.473 56.798,201.654 56.798,200.548L56.798,199.372L55.055,199.372C54.957,199.372 54.908,199.309 54.908,199.183L54.908,198.259C54.908,198.133 54.957,198.07 55.055,198.07L57.974,198.07C58.072,198.07 58.121,198.133 58.121,198.259L58.121,202.312C58.121,202.928 58.128,203.418 58.142,203.782C58.156,204.132 58.184,204.468 58.226,204.79C58.24,204.93 58.198,205 58.1,205L57.239,205C57.127,205 57.071,204.951 57.071,204.853C57.043,204.671 57.022,204.461 57.008,204.223C56.994,203.985 56.98,203.684 56.966,203.32L56.945,203.32C56.763,203.88 56.469,204.321 56.063,204.643C55.671,204.965 55.167,205.126 54.551,205.126ZM60.478,205C60.38,205 60.331,204.937 60.331,204.811L60.331,191.434C60.331,191.308 60.38,191.245 60.478,191.245L62.788,191.245C63.95,191.245 64.797,191.553 65.329,192.169C65.875,192.785 66.148,193.723 66.148,194.983C66.148,196.033 65.994,196.866 65.686,197.482C65.392,198.084 64.979,198.49 64.447,198.7L64.447,198.721L66.61,204.769C66.638,204.923 66.589,205 66.463,205L65.308,205C65.238,205 65.182,204.958 65.14,204.874L63.103,199.015L61.696,199.015L61.696,204.811C61.696,204.937 61.647,205 61.549,205L60.478,205ZM61.696,197.755L62.83,197.755C63.53,197.755 64.027,197.538 64.321,197.104C64.629,196.656 64.783,195.984 64.783,195.088C64.783,194.178 64.615,193.534 64.279,193.156C63.957,192.764 63.453,192.568 62.767,192.568L61.696,192.568L61.696,197.755ZM67.014,205C66.916,205 66.874,204.93 66.888,204.79L69.618,191.392C69.632,191.294 69.695,191.245 69.807,191.245L71.277,191.245C71.389,191.245 71.452,191.294 71.466,191.392L74.217,204.79C74.231,204.93 74.189,205 74.091,205L72.936,205C72.852,205 72.796,204.958 72.768,204.874L71.067,195.781C70.969,195.291 70.871,194.808 70.773,194.332C70.689,193.842 70.612,193.352 70.542,192.862L70.5,192.862C70.43,193.352 70.353,193.842 70.269,194.332C70.199,194.808 70.115,195.298 70.017,195.802L68.316,204.874C68.302,204.958 68.253,205 68.169,205L67.014,205ZM68.694,201.619L68.946,200.296L72.096,200.296L72.39,201.619L68.694,201.619ZM76.68,205C76.61,205 76.561,204.958 76.533,204.874L73.887,191.455C73.873,191.315 73.915,191.245 74.013,191.245L75.147,191.245C75.245,191.245 75.301,191.287 75.315,191.371L76.995,200.422C77.079,200.912 77.156,201.409 77.226,201.913C77.31,202.403 77.387,202.893 77.457,203.383L77.499,203.383C77.569,202.893 77.646,202.403 77.73,201.913C77.814,201.409 77.898,200.912 77.982,200.422L79.662,191.392C79.676,191.294 79.725,191.245 79.809,191.245L80.964,191.245C81.062,191.245 81.104,191.315 81.09,191.455L78.444,204.853C78.416,204.951 78.367,205 78.297,205L76.68,205ZM82.565,205C82.467,205 82.418,204.937 82.418,204.811L82.418,191.434C82.418,191.308 82.467,191.245 82.565,191.245L83.636,191.245C83.734,191.245 83.783,191.308 83.783,191.434L83.783,204.811C83.783,204.937 83.734,205 83.636,205L82.565,205ZM86.072,205C85.987,205 85.945,204.937 85.945,204.811L85.945,191.434C85.945,191.308 85.995,191.245 86.093,191.245L87.814,191.245C87.912,191.245 87.969,191.287 87.983,191.371L90.251,199.435C90.362,199.799 90.475,200.212 90.587,200.674C90.698,201.122 90.803,201.577 90.901,202.039C91.013,202.487 91.105,202.893 91.174,203.257L91.216,203.257C91.203,202.977 91.189,202.669 91.174,202.333C91.16,201.997 91.147,201.654 91.132,201.304C91.132,200.954 91.126,200.611 91.112,200.275L91.112,191.413C91.112,191.301 91.16,191.245 91.258,191.245L92.287,191.245C92.385,191.245 92.434,191.301 92.434,191.413L92.434,204.811C92.434,204.937 92.385,205 92.287,205L90.566,205C90.496,205 90.447,204.965 90.418,204.895L88.213,197.083C88.004,196.341 87.822,195.627 87.668,194.941C87.513,194.241 87.374,193.59 87.248,192.988L87.206,192.988C87.219,193.394 87.227,193.849 87.227,194.353C87.24,194.843 87.248,195.34 87.248,195.844C87.261,196.334 87.269,196.782 87.269,197.188L87.269,204.811C87.269,204.937 87.227,205 87.142,205L86.072,205ZM97.351,205.126C96.343,205.126 95.601,204.797 95.125,204.139C94.649,203.467 94.411,202.459 94.411,201.115L94.411,195.214C94.411,193.884 94.691,192.869 95.251,192.169C95.811,191.469 96.616,191.119 97.666,191.119C98.772,191.119 99.605,191.504 100.165,192.274C100.725,193.044 100.949,194.108 100.837,195.466C100.837,195.578 100.788,195.634 100.69,195.634L99.598,195.634C99.486,195.634 99.444,195.578 99.472,195.466C99.57,194.514 99.458,193.772 99.136,193.24C98.814,192.708 98.338,192.442 97.708,192.442C97.064,192.442 96.581,192.673 96.259,193.135C95.937,193.597 95.776,194.311 95.776,195.277L95.776,201.01C95.776,202.004 95.916,202.718 96.196,203.152C96.476,203.586 96.945,203.803 97.603,203.803C98.261,203.803 98.758,203.537 99.094,203.005C99.43,202.473 99.598,201.654 99.598,200.548L99.598,199.372L97.855,199.372C97.757,199.372 97.708,199.309 97.708,199.183L97.708,198.259C97.708,198.133 97.757,198.07 97.855,198.07L100.774,198.07C100.872,198.07 100.921,198.133 100.921,198.259L100.921,202.312C100.921,202.928 100.928,203.418 100.942,203.782C100.956,204.132 100.984,204.468 101.026,204.79C101.04,204.93 100.998,205 100.9,205L100.039,205C99.927,205 99.871,204.951 99.871,204.853C99.843,204.671 99.822,204.461 99.808,204.223C99.794,203.985 99.78,203.684 99.766,203.32L99.745,203.32C99.563,203.88 99.269,204.321 98.863,204.643C98.471,204.965 97.967,205.126 97.351,205.126ZM105.903,205C105.805,205 105.756,204.937 105.756,204.811L105.756,191.434C105.756,191.308 105.805,191.245 105.903,191.245L106.974,191.245C107.072,191.245 107.121,191.308 107.121,191.434L107.121,204.811C107.121,204.937 107.072,205 106.974,205L105.903,205ZM111.698,205.126C110.942,205.126 110.34,204.958 109.892,204.622C109.444,204.286 109.136,203.831 108.968,203.257C108.8,202.669 108.744,202.004 108.8,201.262C108.814,201.122 108.863,201.052 108.947,201.052L109.997,201.052C110.109,201.052 110.158,201.122 110.144,201.262C110.046,202.116 110.137,202.753 110.417,203.173C110.711,203.593 111.159,203.803 111.761,203.803C112.307,203.803 112.713,203.642 112.979,203.32C113.259,202.984 113.399,202.466 113.399,201.766C113.399,201.15 113.315,200.646 113.147,200.254C112.979,199.848 112.685,199.491 112.265,199.183L110.564,197.839C109.99,197.391 109.563,196.887 109.283,196.327C109.017,195.753 108.884,195.067 108.884,194.269C108.898,193.275 109.15,192.505 109.64,191.959C110.144,191.399 110.837,191.119 111.719,191.119C112.755,191.119 113.511,191.455 113.987,192.127C114.477,192.799 114.666,193.716 114.554,194.878C114.554,195.032 114.505,195.109 114.407,195.109L113.336,195.109C113.238,195.109 113.196,195.032 113.21,194.878C113.294,194.094 113.203,193.492 112.937,193.072C112.671,192.652 112.272,192.442 111.74,192.442C111.292,192.442 110.935,192.589 110.669,192.883C110.403,193.177 110.263,193.625 110.249,194.227C110.249,194.787 110.347,195.263 110.543,195.655C110.739,196.047 111.04,196.404 111.446,196.726L113.084,198.007C113.49,198.315 113.812,198.644 114.05,198.994C114.302,199.33 114.484,199.722 114.596,200.17C114.708,200.604 114.764,201.115 114.764,201.703C114.764,202.767 114.512,203.607 114.008,204.223C113.518,204.825 112.748,205.126 111.698,205.126ZM119.213,205C119.115,205 119.066,204.937 119.066,204.811L119.066,191.434C119.066,191.308 119.115,191.245 119.213,191.245L120.284,191.245C120.382,191.245 120.431,191.308 120.431,191.434L120.431,203.677L123.833,203.677C123.945,203.677 124.001,203.74 124.001,203.866L124.001,204.811C124.001,204.937 123.945,205 123.833,205L119.213,205ZM128.202,205.126C127.152,205.126 126.34,204.804 125.766,204.16C125.206,203.516 124.926,202.543 124.926,201.241L124.926,195.046C124.926,193.716 125.206,192.729 125.766,192.085C126.34,191.441 127.152,191.119 128.202,191.119C129.252,191.119 130.064,191.441 130.638,192.085C131.212,192.729 131.499,193.716 131.499,195.046L131.499,201.241C131.499,202.543 131.212,203.516 130.638,204.16C130.064,204.804 129.252,205.126 128.202,205.126ZM128.202,203.803C128.832,203.803 129.308,203.593 129.63,203.173C129.966,202.739 130.134,202.06 130.134,201.136L130.134,195.13C130.134,194.192 129.966,193.513 129.63,193.093C129.308,192.659 128.832,192.442 128.202,192.442C127.586,192.442 127.11,192.659 126.774,193.093C126.452,193.513 126.291,194.192 126.291,195.13L126.291,201.136C126.291,202.06 126.452,202.739 126.774,203.173C127.11,203.593 127.586,203.803 128.202,203.803ZM136.611,205.126C135.505,205.126 134.693,204.769 134.175,204.055C133.671,203.341 133.419,202.263 133.419,200.821L133.419,191.413C133.419,191.301 133.468,191.245 133.566,191.245L134.637,191.245C134.735,191.245 134.784,191.301 134.784,191.413L134.784,200.8C134.784,201.836 134.924,202.599 135.204,203.089C135.498,203.565 135.967,203.803 136.611,203.803C137.269,203.803 137.738,203.565 138.018,203.089C138.312,202.613 138.459,201.85 138.459,200.8L138.459,191.413C138.459,191.301 138.508,191.245 138.606,191.245L139.677,191.245C139.775,191.245 139.824,191.301 139.824,191.413L139.824,200.821C139.824,202.263 139.558,203.341 139.026,204.055C138.494,204.769 137.689,205.126 136.611,205.126ZM142.121,205C141.995,205 141.932,204.937 141.932,204.811L141.932,191.434C141.932,191.308 141.988,191.245 142.1,191.245L144.158,191.245C145.6,191.245 146.664,191.7 147.35,192.61C148.05,193.506 148.4,194.892 148.4,196.768L148.4,198.847C148.4,200.933 148.064,202.48 147.392,203.488C146.72,204.496 145.677,205 144.263,205L142.121,205ZM143.297,203.677L144.158,203.677C145.194,203.677 145.929,203.306 146.363,202.564C146.811,201.808 147.035,200.604 147.035,198.952L147.035,196.726C147.035,195.284 146.804,194.234 146.342,193.576C145.88,192.904 145.131,192.568 144.095,192.568L143.297,192.568L143.297,203.677ZM150.362,200.968C150.278,200.968 150.236,200.912 150.236,200.8L150.131,191.413C150.131,191.301 150.173,191.245 150.257,191.245L151.538,191.245C151.636,191.245 151.685,191.308 151.685,191.434L151.58,200.8C151.58,200.912 151.538,200.968 151.454,200.968L150.362,200.968ZM150.908,205.126C150.6,205.126 150.369,205.049 150.215,204.895C150.061,204.741 149.984,204.51 149.984,204.202L149.984,204.034C149.984,203.726 150.061,203.495 150.215,203.341C150.369,203.187 150.6,203.11 150.908,203.11C151.216,203.11 151.447,203.187 151.601,203.341C151.755,203.495 151.832,203.726 151.832,204.034L151.832,204.202C151.832,204.51 151.755,204.741 151.601,204.895C151.447,205.049 151.216,205.126 150.908,205.126Z" style="fill:rgb(189,186,178);fill-rule:nonzero;"/>
        </g>
        <g id="engravBtn">
            <path d="M465,260L465,302C465,303.656 463.656,305 462,305L323,305C321.344,305 320,303.656 320,302L320,260C320,258.344 321.344,257 323,257L462,257C463.656,257 465,258.344 465,260Z" style="fill:rgb(244,104,44);"/>
            <path id="engrave" d="M342.2,293C341.96,293 341.84,292.867 341.84,292.6L341.84,267.2C341.84,266.933 341.947,266.8 342.16,266.8L352.36,266.8C352.573,266.8 352.68,266.933 352.68,267.2L352.68,269.8C352.68,270.093 352.573,270.24 352.36,270.24L345.56,270.24L345.56,278.04L351.76,278.04C351.973,278.04 352.08,278.187 352.08,278.48L352.08,280.92C352.08,281.187 351.973,281.32 351.76,281.32L345.56,281.32L345.56,289.56L352.36,289.56C352.573,289.56 352.68,289.707 352.68,290L352.68,292.6C352.68,292.867 352.573,293 352.36,293L342.2,293ZM355.501,293C355.287,293 355.181,292.867 355.181,292.6L355.181,267.2C355.181,266.933 355.287,266.8 355.501,266.8L359.701,266.8C359.914,266.8 360.047,266.893 360.101,267.08L363.941,280.92C364.127,281.613 364.327,282.387 364.541,283.24C364.754,284.067 364.954,284.907 365.141,285.76C365.327,286.587 365.487,287.333 365.621,288L365.701,288C365.647,287.467 365.607,286.853 365.581,286.16C365.554,285.467 365.527,284.76 365.501,284.04C365.474,283.32 365.447,282.613 365.421,281.92L365.421,267.2C365.421,266.933 365.527,266.8 365.741,266.8L368.581,266.8C368.821,266.8 368.941,266.933 368.941,267.2L368.941,292.6C368.941,292.867 368.821,293 368.581,293L364.421,293C364.234,293 364.114,292.92 364.061,292.76L360.261,279.24C359.887,277.933 359.567,276.653 359.301,275.4C359.034,274.12 358.781,272.947 358.541,271.88L358.461,271.88C358.514,272.653 358.554,273.547 358.581,274.56C358.607,275.547 358.634,276.547 358.661,277.56C358.687,278.573 358.701,279.467 358.701,280.24L358.701,292.6C358.701,292.867 358.594,293 358.381,293L355.501,293ZM377.403,293.24C375.403,293.24 373.897,292.573 372.883,291.24C371.897,289.907 371.403,287.893 371.403,285.2L371.403,274.92C371.403,272.2 371.99,270.133 373.163,268.72C374.363,267.28 376.097,266.56 378.363,266.56C380.657,266.56 382.39,267.32 383.563,268.84C384.763,270.333 385.257,272.387 385.043,275C385.043,275.24 384.937,275.36 384.723,275.36L381.643,275.36C381.403,275.36 381.31,275.227 381.363,274.96C381.523,273.387 381.337,272.173 380.803,271.32C380.27,270.44 379.47,270 378.403,270C377.283,270 376.457,270.413 375.923,271.24C375.39,272.04 375.123,273.293 375.123,275L375.123,284.88C375.123,286.64 375.35,287.907 375.803,288.68C376.283,289.427 377.097,289.8 378.243,289.8C379.337,289.8 380.163,289.36 380.723,288.48C381.283,287.6 381.563,286.267 381.563,284.48L381.563,282.56L378.643,282.56C378.403,282.56 378.283,282.413 378.283,282.12L378.283,279.96C378.283,279.693 378.403,279.56 378.643,279.56L384.843,279.56C385.057,279.56 385.163,279.693 385.163,279.96L385.163,287.4C385.163,288.653 385.177,289.667 385.203,290.44C385.257,291.213 385.323,291.92 385.403,292.56C385.457,292.853 385.35,293 385.083,293L382.683,293C382.47,293 382.35,292.88 382.323,292.64C382.27,292.32 382.23,291.947 382.203,291.52C382.177,291.067 382.15,290.52 382.123,289.88L382.083,289.88C381.683,290.92 381.097,291.747 380.323,292.36C379.577,292.947 378.603,293.24 377.403,293.24ZM388.393,293C388.179,293 388.073,292.867 388.073,292.6L388.073,267.2C388.073,266.933 388.179,266.8 388.393,266.8L393.513,266.8C395.966,266.8 397.753,267.4 398.873,268.6C399.993,269.8 400.553,271.667 400.553,274.2C400.553,276.173 400.273,277.747 399.713,278.92C399.179,280.067 398.406,280.867 397.393,281.32L397.353,281.36L401.513,292.48C401.593,292.827 401.486,293 401.193,293L397.913,293C397.726,293 397.593,292.907 397.513,292.72L393.833,282.12L391.793,282.12L391.793,292.6C391.793,292.867 391.673,293 391.433,293L388.393,293ZM391.793,278.88L393.593,278.88C394.766,278.88 395.606,278.52 396.113,277.8C396.619,277.053 396.873,275.933 396.873,274.44C396.873,272.947 396.593,271.88 396.033,271.24C395.499,270.573 394.659,270.24 393.513,270.24L391.793,270.24L391.793,278.88ZM401.688,293C401.475,293 401.382,292.853 401.408,292.56L406.728,267.12C406.755,266.907 406.888,266.8 407.128,266.8L411.128,266.8C411.368,266.8 411.502,266.907 411.528,267.12L416.848,292.52C416.902,292.84 416.808,293 416.568,293L413.248,293C413.062,293 412.942,292.907 412.888,292.72L410.048,276.2C409.862,275.293 409.688,274.387 409.528,273.48C409.395,272.547 409.262,271.613 409.128,270.68L409.048,270.68C408.942,271.613 408.822,272.547 408.688,273.48C408.555,274.387 408.395,275.307 408.208,276.24L405.328,292.68C405.302,292.893 405.182,293 404.968,293L401.688,293ZM405.768,287.04L406.328,283.8L411.808,283.8L412.488,287.04L405.768,287.04ZM420.707,293C420.521,293 420.401,292.893 420.347,292.68L415.227,267.28C415.201,266.96 415.294,266.8 415.507,266.8L418.787,266.8C419.001,266.8 419.134,266.893 419.187,267.08L421.987,283.44C422.147,284.347 422.294,285.28 422.427,286.24C422.561,287.173 422.681,288.133 422.787,289.12L422.867,289.12C422.974,288.133 423.094,287.173 423.227,286.24C423.387,285.28 423.547,284.347 423.707,283.44L426.467,267.12C426.494,266.907 426.614,266.8 426.827,266.8L430.147,266.8C430.361,266.8 430.454,266.947 430.427,267.24L425.347,292.68C425.267,292.893 425.147,293 424.987,293L420.707,293ZM432.205,293C431.965,293 431.845,292.867 431.845,292.6L431.845,267.2C431.845,266.933 431.951,266.8 432.165,266.8L442.365,266.8C442.578,266.8 442.685,266.933 442.685,267.2L442.685,269.8C442.685,270.093 442.578,270.24 442.365,270.24L435.565,270.24L435.565,278.04L441.765,278.04C441.978,278.04 442.085,278.187 442.085,278.48L442.085,280.92C442.085,281.187 441.978,281.32 441.765,281.32L435.565,281.32L435.565,289.56L442.365,289.56C442.578,289.56 442.685,289.707 442.685,290L442.685,292.6C442.685,292.867 442.578,293 442.365,293L432.205,293Z" style="fill:rgb(23,22,22);fill-rule:nonzero;"/>
        </g>
    </g>
    <defs>
        <linearGradient id="_Linear1" x1="0" y1="0" x2="1" y2="0" gradientUnits="userSpaceOnUse" gradientTransform="matrix(0,242,-242,0,240,39)"><stop offset="0" style="stop-color:rgb(168,164,164);stop-opacity:1"/><stop offset="1" style="stop-color:rgb(66,64,64);stop-opacity:1"/></linearGradient>
        <linearGradient id="_Linear2" x1="0" y1="0" x2="1" y2="0" gradientUnits="userSpaceOnUse" gradientTransform="matrix(0,242,-242,0,240,39)"><stop offset="0" style="stop-color:rgb(36,36,36);stop-opacity:1"/><stop offset="0.59" style="stop-color:rgb(36,36,36);stop-opacity:1"/><stop offset="1" style="stop-color:rgb(152,152,152);stop-opacity:1"/></linearGradient>
        <linearGradient id="_Linear3" x1="0" y1="0" x2="1" y2="0" gradientUnits="userSpaceOnUse" gradientTransform="matrix(0,242,-242,0,240,39)"><stop offset="0" style="stop-color:rgb(66,66,66);stop-opacity:1"/><stop offset="0.57" style="stop-color:rgb(66,66,66);stop-opacity:1"/><stop offset="1" style="stop-color:rgb(168,167,167);stop-opacity:1"/></linearGradient>
    </defs>
</svg>
