<svg width="480" height="320" viewBox="0 0 480 320" fill="none" xmlns="http://www.w3.org/2000/svg">
<g id="Start">
<rect width="480" height="320" fill="#636363"/>
<g id="startTop">
<g clip-path="url(#clip0_73_1214)">
<rect x="5" y="5" width="470" height="183" rx="5" fill="#212020"/>
<g id="textLeft">
<g id="nfcTitle">
<path id="NFC" d="M19.64 123C19.32 123 19.16 122.76 19.16 122.28V71.32C19.16 70.84 19.3467 70.6 19.72 70.6H26.28C26.6533 70.6 26.8667 70.76 26.92 71.08L35.56 101.8C35.9867 103.187 36.4133 104.76 36.84 106.52C37.2667 108.227 37.6667 109.96 38.04 111.72C38.4667 113.427 38.8133 114.973 39.08 116.36H39.24C39.1867 115.293 39.1333 114.12 39.08 112.84C39.0267 111.56 38.9733 110.253 38.92 108.92C38.92 107.587 38.8933 106.28 38.84 105C38.84 103.72 38.84 102.547 38.84 101.48V71.24C38.84 70.8133 39.0267 70.6 39.4 70.6H43.32C43.6933 70.6 43.88 70.8133 43.88 71.24V122.28C43.88 122.76 43.6933 123 43.32 123H36.76C36.4933 123 36.3067 122.867 36.2 122.6L27.8 92.84C27 90.0133 26.3067 87.2933 25.72 84.68C25.1333 82.0133 24.6 79.5333 24.12 77.24H23.96C24.0133 78.7867 24.04 80.52 24.04 82.44C24.0933 84.3067 24.12 86.2 24.12 88.12C24.1733 89.9867 24.2 91.6933 24.2 93.24V122.28C24.2 122.76 24.04 123 23.72 123H19.64ZM52.6088 123C52.2888 123 52.1288 122.76 52.1288 122.28V71.32C52.1288 70.84 52.3154 70.6 52.6888 70.6H70.7688C71.1421 70.6 71.3288 70.84 71.3288 71.32V74.92C71.3288 75.4 71.1421 75.64 70.7688 75.64H57.3288V94.68H69.0088C69.4354 94.68 69.6488 94.92 69.6488 95.4V98.76C69.6488 99.24 69.4354 99.48 69.0088 99.48H57.3288V122.28C57.3288 122.76 57.1688 123 56.8488 123H52.6088ZM88.8106 123.48C84.7573 123.48 81.664 122.173 79.5306 119.56C77.3973 116.947 76.3306 113 76.3306 107.72V85.88C76.3306 80.6 77.3973 76.6533 79.5306 74.04C81.664 71.4267 84.7573 70.12 88.8106 70.12C91.744 70.12 94.1706 70.84 96.0906 72.28C98.0106 73.6667 99.3706 75.6667 100.171 78.28C100.971 80.84 101.157 83.9067 100.731 87.48C100.624 87.9067 100.437 88.12 100.171 88.12H96.0906C95.6106 88.12 95.424 87.8533 95.5306 87.32C95.8506 83.32 95.4506 80.3067 94.3306 78.28C93.264 76.2 91.424 75.16 88.8106 75.16C86.464 75.16 84.6506 76.04 83.3706 77.8C82.144 79.56 81.5306 82.3867 81.5306 86.28V107.32C81.5306 111.16 82.144 113.987 83.3706 115.8C84.6506 117.56 86.464 118.44 88.8106 118.44C91.584 118.44 93.4773 117.347 94.4906 115.16C95.5573 112.973 95.9573 110.013 95.6906 106.28C95.584 105.747 95.7706 105.48 96.2506 105.48H100.011C100.491 105.48 100.757 105.747 100.811 106.28C101.131 111.773 100.277 116.013 98.2506 119C96.224 121.987 93.0773 123.48 88.8106 123.48Z" fill="#F9F8F5"/>
</g>
<g id="nfcScanning">
<path id="scanning to the right" d="M18.34 161.12C17.62 161.12 17.0467 160.96 16.62 160.64C16.1933 160.32 15.9 159.887 15.74 159.34C15.58 158.78 15.5267 158.147 15.58 157.44C15.5933 157.307 15.64 157.24 15.72 157.24H16.72C16.8267 157.24 16.8733 157.307 16.86 157.44C16.7667 158.253 16.8533 158.86 17.12 159.26C17.4 159.66 17.8267 159.86 18.4 159.86C18.92 159.86 19.3067 159.707 19.56 159.4C19.8267 159.08 19.96 158.587 19.96 157.92C19.96 157.333 19.88 156.853 19.72 156.48C19.56 156.093 19.28 155.753 18.88 155.46L17.26 154.18C16.7133 153.753 16.3067 153.273 16.04 152.74C15.7867 152.193 15.66 151.54 15.66 150.78C15.6733 149.833 15.9133 149.1 16.38 148.58C16.86 148.047 17.52 147.78 18.36 147.78C19.3467 147.78 20.0667 148.1 20.52 148.74C20.9867 149.38 21.1667 150.253 21.06 151.36C21.06 151.507 21.0133 151.58 20.92 151.58H19.9C19.8067 151.58 19.7667 151.507 19.78 151.36C19.86 150.613 19.7733 150.04 19.52 149.64C19.2667 149.24 18.8867 149.04 18.38 149.04C17.9533 149.04 17.6133 149.18 17.36 149.46C17.1067 149.74 16.9733 150.167 16.96 150.74C16.96 151.273 17.0533 151.727 17.24 152.1C17.4267 152.473 17.7133 152.813 18.1 153.12L19.66 154.34C20.0467 154.633 20.3533 154.947 20.58 155.28C20.82 155.6 20.9933 155.973 21.1 156.4C21.2067 156.813 21.26 157.3 21.26 157.86C21.26 158.873 21.02 159.673 20.54 160.26C20.0733 160.833 19.34 161.12 18.34 161.12ZM25.9769 161.12C24.9635 161.12 24.1902 160.793 23.6569 160.14C23.1235 159.487 22.8569 158.5 22.8569 157.18V151.72C22.8569 150.4 23.1235 149.413 23.6569 148.76C24.1902 148.107 24.9635 147.78 25.9769 147.78C26.7102 147.78 27.3169 147.96 27.7969 148.32C28.2769 148.667 28.6169 149.167 28.8169 149.82C29.0169 150.46 29.0635 151.227 28.9569 152.12C28.9302 152.227 28.8835 152.28 28.8169 152.28H27.7969C27.6769 152.28 27.6302 152.213 27.6569 152.08C27.7369 151.08 27.6369 150.327 27.3569 149.82C27.0902 149.3 26.6302 149.04 25.9769 149.04C25.3902 149.04 24.9369 149.26 24.6169 149.7C24.3102 150.14 24.1569 150.847 24.1569 151.82V157.08C24.1569 158.04 24.3102 158.747 24.6169 159.2C24.9369 159.64 25.3902 159.86 25.9769 159.86C26.6702 159.86 27.1435 159.587 27.3969 159.04C27.6635 158.493 27.7635 157.753 27.6969 156.82C27.6702 156.687 27.7169 156.62 27.8369 156.62H28.7769C28.8969 156.62 28.9635 156.687 28.9769 156.82C29.0569 158.193 28.8435 159.253 28.3369 160C27.8302 160.747 27.0435 161.12 25.9769 161.12ZM30.1284 161C30.0351 161 29.9951 160.933 30.0084 160.8L32.6084 148.04C32.6218 147.947 32.6818 147.9 32.7884 147.9H34.1884C34.2951 147.9 34.3551 147.947 34.3684 148.04L36.9884 160.8C37.0018 160.933 36.9618 161 36.8684 161H35.7684C35.6884 161 35.6351 160.96 35.6084 160.88L33.9884 152.22C33.8951 151.753 33.8018 151.293 33.7084 150.84C33.6284 150.373 33.5551 149.907 33.4884 149.44H33.4484C33.3818 149.907 33.3084 150.373 33.2284 150.84C33.1618 151.293 33.0818 151.76 32.9884 152.24L31.3684 160.88C31.3551 160.96 31.3084 161 31.2284 161H30.1284ZM31.7284 157.78L31.9684 156.52H34.9684L35.2484 157.78H31.7284ZM38.303 161C38.223 161 38.183 160.94 38.183 160.82V148.08C38.183 147.96 38.2296 147.9 38.323 147.9H39.963C40.0563 147.9 40.1096 147.94 40.123 148.02L42.283 155.7C42.3896 156.047 42.4963 156.44 42.603 156.88C42.7096 157.307 42.8096 157.74 42.903 158.18C43.0096 158.607 43.0963 158.993 43.163 159.34H43.203C43.1896 159.073 43.1763 158.78 43.163 158.46C43.1496 158.14 43.1363 157.813 43.123 157.48C43.123 157.147 43.1163 156.82 43.103 156.5C43.103 156.18 43.103 155.887 43.103 155.62V148.06C43.103 147.953 43.1496 147.9 43.243 147.9H44.223C44.3163 147.9 44.363 147.953 44.363 148.06V160.82C44.363 160.94 44.3163 161 44.223 161H42.583C42.5163 161 42.4696 160.967 42.443 160.9L40.343 153.46C40.143 152.753 39.9696 152.073 39.823 151.42C39.6763 150.753 39.543 150.133 39.423 149.56H39.383C39.3963 149.947 39.403 150.38 39.403 150.86C39.4163 151.327 39.423 151.8 39.423 152.28C39.4363 152.747 39.443 153.173 39.443 153.56V160.82C39.443 160.94 39.403 161 39.323 161H38.303ZM46.7452 161C46.6652 161 46.6252 160.94 46.6252 160.82V148.08C46.6252 147.96 46.6718 147.9 46.7652 147.9H48.4052C48.4985 147.9 48.5518 147.94 48.5652 148.02L50.7252 155.7C50.8318 156.047 50.9385 156.44 51.0452 156.88C51.1518 157.307 51.2518 157.74 51.3452 158.18C51.4518 158.607 51.5385 158.993 51.6052 159.34H51.6452C51.6318 159.073 51.6185 158.78 51.6052 158.46C51.5918 158.14 51.5785 157.813 51.5652 157.48C51.5652 157.147 51.5585 156.82 51.5452 156.5C51.5452 156.18 51.5452 155.887 51.5452 155.62V148.06C51.5452 147.953 51.5918 147.9 51.6852 147.9H52.6652C52.7585 147.9 52.8052 147.953 52.8052 148.06V160.82C52.8052 160.94 52.7585 161 52.6652 161H51.0252C50.9585 161 50.9118 160.967 50.8852 160.9L48.7852 153.46C48.5852 152.753 48.4118 152.073 48.2652 151.42C48.1185 150.753 47.9852 150.133 47.8652 149.56H47.8252C47.8385 149.947 47.8452 150.38 47.8452 150.86C47.8585 151.327 47.8652 151.8 47.8652 152.28C47.8785 152.747 47.8852 153.173 47.8852 153.56V160.82C47.8852 160.94 47.8452 161 47.7652 161H46.7452ZM55.2073 161C55.114 161 55.0673 160.94 55.0673 160.82V148.08C55.0673 147.96 55.114 147.9 55.2073 147.9H56.2273C56.3207 147.9 56.3673 147.96 56.3673 148.08V160.82C56.3673 160.94 56.3207 161 56.2273 161H55.2073ZM58.7467 161C58.6667 161 58.6267 160.94 58.6267 160.82V148.08C58.6267 147.96 58.6734 147.9 58.7667 147.9H60.4067C60.5001 147.9 60.5534 147.94 60.5667 148.02L62.7267 155.7C62.8334 156.047 62.9401 156.44 63.0467 156.88C63.1534 157.307 63.2534 157.74 63.3467 158.18C63.4534 158.607 63.5401 158.993 63.6067 159.34H63.6467C63.6334 159.073 63.6201 158.78 63.6067 158.46C63.5934 158.14 63.5801 157.813 63.5667 157.48C63.5667 157.147 63.5601 156.82 63.5467 156.5C63.5467 156.18 63.5467 155.887 63.5467 155.62V148.06C63.5467 147.953 63.5934 147.9 63.6867 147.9H64.6667C64.7601 147.9 64.8067 147.953 64.8067 148.06V160.82C64.8067 160.94 64.7601 161 64.6667 161H63.0267C62.9601 161 62.9134 160.967 62.8867 160.9L60.7867 153.46C60.5867 152.753 60.4134 152.073 60.2667 151.42C60.1201 150.753 59.9867 150.133 59.8667 149.56H59.8267C59.8401 149.947 59.8467 150.38 59.8467 150.86C59.8601 151.327 59.8667 151.8 59.8667 152.28C59.8801 152.747 59.8867 153.173 59.8867 153.56V160.82C59.8867 160.94 59.8467 161 59.7667 161H58.7467ZM69.6889 161.12C68.7289 161.12 68.0222 160.807 67.5689 160.18C67.1156 159.54 66.8889 158.58 66.8889 157.3V151.68C66.8889 150.413 67.1556 149.447 67.6889 148.78C68.2222 148.113 68.9889 147.78 69.9889 147.78C71.0422 147.78 71.8356 148.147 72.3689 148.88C72.9022 149.613 73.1156 150.627 73.0089 151.92C73.0089 152.027 72.9622 152.08 72.8689 152.08H71.8289C71.7222 152.08 71.6822 152.027 71.7089 151.92C71.8022 151.013 71.6956 150.307 71.3889 149.8C71.0822 149.293 70.6289 149.04 70.0289 149.04C69.4156 149.04 68.9556 149.26 68.6489 149.7C68.3422 150.14 68.1889 150.82 68.1889 151.74V157.2C68.1889 158.147 68.3222 158.827 68.5889 159.24C68.8556 159.653 69.3022 159.86 69.9289 159.86C70.5556 159.86 71.0289 159.607 71.3489 159.1C71.6689 158.593 71.8289 157.813 71.8289 156.76V155.64H70.1689C70.0756 155.64 70.0289 155.58 70.0289 155.46V154.58C70.0289 154.46 70.0756 154.4 70.1689 154.4H72.9489C73.0422 154.4 73.0889 154.46 73.0889 154.58V158.44C73.0889 159.027 73.0956 159.493 73.1089 159.84C73.1222 160.173 73.1489 160.493 73.1889 160.8C73.2022 160.933 73.1622 161 73.0689 161H72.2489C72.1422 161 72.0889 160.953 72.0889 160.86C72.0622 160.687 72.0422 160.487 72.0289 160.26C72.0156 160.033 72.0022 159.747 71.9889 159.4H71.9689C71.7956 159.933 71.5156 160.353 71.1289 160.66C70.7556 160.967 70.2756 161.12 69.6889 161.12ZM79.7939 161C79.7006 161 79.6539 160.94 79.6539 160.82V149.16H77.5539C77.4472 149.16 77.3939 149.1 77.3939 148.98V148.08C77.3939 147.96 77.4472 147.9 77.5539 147.9H83.0539C83.1472 147.9 83.1939 147.96 83.1939 148.08V148.98C83.1939 149.1 83.1472 149.16 83.0539 149.16H80.9539V160.82C80.9539 160.94 80.9006 161 80.7939 161H79.7939ZM87.4448 161.12C86.4448 161.12 85.6715 160.813 85.1248 160.2C84.5915 159.587 84.3248 158.66 84.3248 157.42V151.52C84.3248 150.253 84.5915 149.313 85.1248 148.7C85.6715 148.087 86.4448 147.78 87.4448 147.78C88.4448 147.78 89.2182 148.087 89.7648 148.7C90.3115 149.313 90.5848 150.253 90.5848 151.52V157.42C90.5848 158.66 90.3115 159.587 89.7648 160.2C89.2182 160.813 88.4448 161.12 87.4448 161.12ZM87.4448 159.86C88.0448 159.86 88.4982 159.66 88.8048 159.26C89.1248 158.847 89.2848 158.2 89.2848 157.32V151.6C89.2848 150.707 89.1248 150.06 88.8048 149.66C88.4982 149.247 88.0448 149.04 87.4448 149.04C86.8582 149.04 86.4048 149.247 86.0848 149.66C85.7782 150.06 85.6248 150.707 85.6248 151.6V157.32C85.6248 158.2 85.7782 158.847 86.0848 159.26C86.4048 159.66 86.8582 159.86 87.4448 159.86ZM97.0931 161C96.9998 161 96.9531 160.94 96.9531 160.82V149.16H94.8531C94.7465 149.16 94.6931 149.1 94.6931 148.98V148.08C94.6931 147.96 94.7465 147.9 94.8531 147.9H100.353C100.446 147.9 100.493 147.96 100.493 148.08V148.98C100.493 149.1 100.446 149.16 100.353 149.16H98.2531V160.82C98.2531 160.94 98.1998 161 98.0931 161H97.0931ZM102.217 161C102.124 161 102.077 160.94 102.077 160.82V148.08C102.077 147.96 102.124 147.9 102.217 147.9H103.237C103.331 147.9 103.377 147.96 103.377 148.08V153.6H106.937V148.08C106.937 147.96 106.984 147.9 107.077 147.9H108.077C108.184 147.9 108.237 147.96 108.237 148.08V160.82C108.237 160.94 108.184 161 108.077 161H107.077C106.984 161 106.937 160.94 106.937 160.82V154.84H103.377V160.82C103.377 160.94 103.331 161 103.237 161H102.217ZM110.66 161C110.553 161 110.5 160.94 110.5 160.82V148.08C110.5 147.96 110.547 147.9 110.64 147.9H115.16C115.253 147.9 115.3 147.96 115.3 148.08V148.98C115.3 149.1 115.253 149.16 115.16 149.16H111.8V153.72H114.88C114.973 153.72 115.02 153.78 115.02 153.9V154.74C115.02 154.86 114.973 154.92 114.88 154.92H111.8V159.74H115.16C115.253 159.74 115.3 159.8 115.3 159.92V160.82C115.3 160.94 115.253 161 115.16 161H110.66ZM120.2 161C120.107 161 120.06 160.94 120.06 160.82V148.08C120.06 147.96 120.107 147.9 120.2 147.9H122.4C123.507 147.9 124.314 148.193 124.82 148.78C125.34 149.367 125.6 150.26 125.6 151.46C125.6 152.46 125.454 153.253 125.16 153.84C124.88 154.413 124.487 154.8 123.98 155V155.02L126.04 160.78C126.067 160.927 126.02 161 125.9 161H124.8C124.734 161 124.68 160.96 124.64 160.88L122.7 155.3H121.36V160.82C121.36 160.94 121.314 161 121.22 161H120.2ZM121.36 154.1H122.44C123.107 154.1 123.58 153.893 123.86 153.48C124.154 153.053 124.3 152.413 124.3 151.56C124.3 150.693 124.14 150.08 123.82 149.72C123.514 149.347 123.034 149.16 122.38 149.16H121.36V154.1ZM127.842 161C127.748 161 127.702 160.94 127.702 160.82V148.08C127.702 147.96 127.748 147.9 127.842 147.9H128.862C128.955 147.9 129.002 147.96 129.002 148.08V160.82C129.002 160.94 128.955 161 128.862 161H127.842ZM133.881 161.12C132.921 161.12 132.214 160.807 131.761 160.18C131.308 159.54 131.081 158.58 131.081 157.3V151.68C131.081 150.413 131.348 149.447 131.881 148.78C132.414 148.113 133.181 147.78 134.181 147.78C135.234 147.78 136.028 148.147 136.561 148.88C137.094 149.613 137.308 150.627 137.201 151.92C137.201 152.027 137.154 152.08 137.061 152.08H136.021C135.914 152.08 135.874 152.027 135.901 151.92C135.994 151.013 135.888 150.307 135.581 149.8C135.274 149.293 134.821 149.04 134.221 149.04C133.608 149.04 133.148 149.26 132.841 149.7C132.534 150.14 132.381 150.82 132.381 151.74V157.2C132.381 158.147 132.514 158.827 132.781 159.24C133.048 159.653 133.494 159.86 134.121 159.86C134.748 159.86 135.221 159.607 135.541 159.1C135.861 158.593 136.021 157.813 136.021 156.76V155.64H134.361C134.268 155.64 134.221 155.58 134.221 155.46V154.58C134.221 154.46 134.268 154.4 134.361 154.4H137.141C137.234 154.4 137.281 154.46 137.281 154.58V158.44C137.281 159.027 137.288 159.493 137.301 159.84C137.314 160.173 137.341 160.493 137.381 160.8C137.394 160.933 137.354 161 137.261 161H136.441C136.334 161 136.281 160.953 136.281 160.86C136.254 160.687 136.234 160.487 136.221 160.26C136.208 160.033 136.194 159.747 136.181 159.4H136.161C135.988 159.933 135.708 160.353 135.321 160.66C134.948 160.967 134.468 161.12 133.881 161.12ZM139.726 161C139.633 161 139.586 160.94 139.586 160.82V148.08C139.586 147.96 139.633 147.9 139.726 147.9H140.746C140.839 147.9 140.886 147.96 140.886 148.08V153.6H144.446V148.08C144.446 147.96 144.493 147.9 144.586 147.9H145.586C145.693 147.9 145.746 147.96 145.746 148.08V160.82C145.746 160.94 145.693 161 145.586 161H144.586C144.493 161 144.446 160.94 144.446 160.82V154.84H140.886V160.82C140.886 160.94 140.839 161 140.746 161H139.726ZM149.709 161C149.615 161 149.569 160.94 149.569 160.82V149.16H147.469C147.362 149.16 147.309 149.1 147.309 148.98V148.08C147.309 147.96 147.362 147.9 147.469 147.9H152.969C153.062 147.9 153.109 147.96 153.109 148.08V148.98C153.109 149.1 153.062 149.16 152.969 149.16H150.869V160.82C150.869 160.94 150.815 161 150.709 161H149.709Z" fill="#BDBAB2"/>
</g>
</g>
<g id="nfcLogo">
<g id="Vector" filter="url(#filter0_d_73_1214)">
<path d="M347.751 47.1568C347.751 47.1568 355.036 44.0745 359.672 49.0059C364.308 53.9374 376.229 73.0469 376.229 92.1559C376.229 111.265 370.931 131.608 365.633 138.388C360.334 145.169 355.036 145.169 351.062 142.703C347.088 140.238 285.496 96.4711 282.185 95.2383C278.874 94.0056 277.549 97.0874 280.86 113.732C284.172 130.375 278.874 135.307 274.237 135.923C269.601 136.539 255.694 132.84 255.032 98.3207C254.369 63.8004 264.303 58.2525 268.939 58.2525C277.65 58.2525 343.794 113.832 348.413 113.115C352.387 112.498 354.374 89.0741 346.426 70.581C337.821 50.5571 347.751 47.1568 347.751 47.1568ZM454.213 12.6365C476.459 53.7553 475.101 92.6349 474.924 96.7383C475.101 100.313 476.459 139.245 454.213 180.363C454.213 180.363 448.418 186.528 439.808 182.829C431.199 179.131 434.179 169.268 434.179 169.268C434.179 169.268 452.206 136.874 451.729 97.0874L451.738 96.4711C452.206 56.6787 434.179 23.7322 434.179 23.7322C434.179 23.7322 431.199 13.8692 439.808 10.1705C448.418 6.47229 454.213 12.6365 454.213 12.6365ZM411.067 31.1297C429.212 61.9507 427.982 92.6349 427.804 96.7383C427.982 100.313 429.212 129.759 411.091 163.074C411.091 163.074 405.297 169.239 396.687 165.54C388.077 161.842 391.057 151.979 391.057 151.979C391.057 151.979 402.721 136.539 404.61 97.0874L404.618 96.4711C403.383 57.0192 391.033 42.2254 391.033 42.2254C391.033 42.2254 388.053 32.3624 396.662 28.6637C405.272 24.9649 411.067 31.1297 411.067 31.1297Z" fill="#2D2C2B"/>
</g>
</g>
</g>
</g>
<g id="startBottom">
<rect x="5" y="193" width="470" height="122" rx="5" fill="#171616"/>
<g id="KeybordIcon" clip-path="url(#clip1_73_1214)">
<g id="Frame 13">
<g id="Top" clip-path="url(#clip2_73_1214)">
<g id="bogstav 5" filter="url(#filter1_d_73_1214)">
<rect x="10" y="181.5" width="35" height="43" rx="3" fill="#2D2C2B"/>
<path id="y" d="M25.9592 213.5C25.7432 213.5 25.6352 213.368 25.6352 213.104V205.4L20.6672 190.388C20.5712 190.076 20.6552 189.92 20.9192 189.92H24.4112C24.6032 189.92 24.7112 190.016 24.7352 190.208L26.5352 197.336C26.7032 198.008 26.8712 198.704 27.0392 199.424C27.2072 200.12 27.3632 200.816 27.5072 201.512H27.5432C27.7112 200.816 27.8672 200.12 28.0112 199.424C28.1792 198.704 28.3472 197.996 28.5152 197.3L30.3152 190.208C30.3392 190.016 30.4472 189.92 30.6392 189.92H34.0592C34.3232 189.92 34.4072 190.076 34.3112 190.388L29.3792 205.364V213.104C29.3792 213.368 29.2832 213.5 29.0912 213.5H25.9592Z" fill="#171616"/>
</g>
<g id="bogstav 6" filter="url(#filter2_d_73_1214)">
<rect x="55" y="181.5" width="35" height="43" rx="3" fill="#2D2C2B"/>
<path id="u" d="M72.4897 213.716C70.3297 213.716 68.7217 213.068 67.6657 211.772C66.6337 210.452 66.1177 208.472 66.1177 205.832V190.28C66.1177 190.04 66.2257 189.92 66.4417 189.92H69.5737C69.7897 189.92 69.8977 190.04 69.8977 190.28V205.724C69.8977 207.356 70.1017 208.52 70.5097 209.216C70.9177 209.912 71.5777 210.26 72.4897 210.26C73.4257 210.26 74.0977 209.924 74.5057 209.252C74.9137 208.556 75.1177 207.38 75.1177 205.724V190.28C75.1177 190.04 75.2257 189.92 75.4417 189.92H78.5737C78.7897 189.92 78.8977 190.04 78.8977 190.28V205.832C78.8977 208.472 78.3577 210.452 77.2777 211.772C76.2217 213.068 74.6257 213.716 72.4897 213.716Z" fill="#171616"/>
</g>
<g id="bogstav 7" filter="url(#filter3_d_73_1214)">
<rect x="100" y="181.5" width="35" height="43" rx="3" fill="#2D2C2B"/>
<path id="i" d="M115.927 213.5C115.711 213.5 115.603 213.368 115.603 213.104V190.316C115.603 190.052 115.711 189.92 115.927 189.92H119.059C119.275 189.92 119.383 190.052 119.383 190.316V213.104C119.383 213.368 119.275 213.5 119.059 213.5H115.927Z" fill="#171616"/>
</g>
<g id="bogstav 8" filter="url(#filter4_d_73_1214)">
<rect x="145" y="181.5" width="35" height="43" rx="3" fill="#2D2C2B"/>
<path id="o" d="M162.507 213.716C160.371 213.716 158.739 213.092 157.611 211.844C156.507 210.596 155.955 208.736 155.955 206.264V197.192C155.955 194.696 156.507 192.824 157.611 191.576C158.739 190.328 160.371 189.704 162.507 189.704C164.619 189.704 166.239 190.328 167.367 191.576C168.495 192.824 169.059 194.696 169.059 197.192V206.264C169.059 208.736 168.495 210.596 167.367 211.844C166.239 213.092 164.619 213.716 162.507 213.716ZM162.507 210.26C163.443 210.26 164.139 209.936 164.595 209.288C165.075 208.64 165.315 207.572 165.315 206.084V197.372C165.315 195.86 165.075 194.78 164.595 194.132C164.139 193.484 163.443 193.16 162.507 193.16C161.571 193.16 160.863 193.484 160.383 194.132C159.927 194.78 159.699 195.86 159.699 197.372V206.084C159.699 207.572 159.927 208.64 160.383 209.288C160.863 209.936 161.571 210.26 162.507 210.26Z" fill="#171616"/>
</g>
<g id="bogstav 9" filter="url(#filter5_d_73_1214)">
<rect x="190" y="181.5" width="35" height="43" rx="3" fill="#2D2C2B"/>
<path id="p" d="M202.534 213.5C202.318 213.5 202.21 213.368 202.21 213.104V190.316C202.21 190.052 202.318 189.92 202.534 189.92H206.962C209.218 189.92 210.874 190.532 211.93 191.756C213.01 192.98 213.55 194.9 213.55 197.516C213.55 199.94 212.998 201.8 211.894 203.096C210.814 204.392 209.218 205.04 207.106 205.04H205.99V213.104C205.99 213.368 205.882 213.5 205.666 213.5H202.534ZM205.99 201.62H206.962C207.946 201.62 208.654 201.284 209.086 200.612C209.542 199.94 209.77 198.92 209.77 197.552C209.77 196.04 209.542 194.96 209.086 194.312C208.654 193.664 207.97 193.34 207.034 193.34H205.99V201.62Z" fill="#171616"/>
</g>
</g>
<g id="Midt" clip-path="url(#clip3_73_1214)">
<g id="bogstav 4" filter="url(#filter6_d_73_1214)">
<rect x="-12.5" y="231.5" width="35" height="43" rx="3" fill="#2D2C2B"/>
<path id="g" d="M3.87542 263.716C2.07542 263.716 0.707422 263.104 -0.228578 261.88C-1.16458 260.656 -1.63258 258.796 -1.63258 256.3V247.444C-1.63258 244.924 -1.08058 243.004 0.0234219 241.684C1.15142 240.364 2.77142 239.704 4.88342 239.704C7.04342 239.704 8.67542 240.388 9.77942 241.756C10.8834 243.124 11.3514 244.984 11.1834 247.336C11.1594 247.6 11.0514 247.732 10.8594 247.732L7.72742 247.696C7.51142 247.696 7.41542 247.576 7.43942 247.336C7.55942 246.016 7.40342 244.996 6.97142 244.276C6.53942 243.532 5.85542 243.16 4.91942 243.16C3.95942 243.16 3.25142 243.508 2.79542 244.204C2.33942 244.9 2.11142 245.992 2.11142 247.48V256.012C2.11142 257.548 2.30342 258.64 2.68742 259.288C3.09542 259.936 3.79142 260.26 4.77542 260.26C5.68742 260.26 6.38342 259.9 6.86342 259.18C7.34342 258.436 7.58342 257.32 7.58342 255.832V254.212H5.09942C4.88342 254.212 4.77542 254.08 4.77542 253.816V251.692C4.77542 251.428 4.88342 251.296 5.09942 251.296H10.9314C11.1474 251.296 11.2554 251.428 11.2554 251.692V258.28C11.2554 259.432 11.2674 260.38 11.2914 261.124C11.3394 261.844 11.3994 262.492 11.4714 263.068C11.5194 263.356 11.4234 263.5 11.1834 263.5H8.73542C8.51942 263.5 8.39942 263.392 8.37542 263.176C8.32742 262.888 8.27942 262.552 8.23142 262.168C8.20742 261.76 8.19542 261.268 8.19542 260.692H8.12342C7.76342 261.628 7.24742 262.372 6.57542 262.924C5.90342 263.452 5.00342 263.716 3.87542 263.716Z" fill="#171616"/>
</g>
<g id="bogstav 5_2" filter="url(#filter7_d_73_1214)">
<rect x="32.5" y="231.5" width="35" height="43" rx="3" fill="#2D2C2B"/>
<path id="h" d="M43.91 263.5C43.67 263.5 43.55 263.368 43.55 263.104V240.316C43.55 240.052 43.67 239.92 43.91 239.92H46.97C47.21 239.92 47.33 240.052 47.33 240.316V249.748H52.694V240.316C52.694 240.052 52.802 239.92 53.018 239.92H56.078C56.318 239.92 56.438 240.052 56.438 240.316V263.104C56.438 263.368 56.318 263.5 56.078 263.5H53.018C52.802 263.5 52.694 263.368 52.694 263.104V253.132H47.33V263.104C47.33 263.368 47.21 263.5 46.97 263.5H43.91Z" fill="#171616"/>
</g>
<g id="bogstav 6_2" filter="url(#filter8_d_73_1214)">
<rect x="77.5" y="231.5" width="35" height="43" rx="3" fill="#2D2C2B"/>
<path id="j" d="M92.3827 268.864C92.1667 268.96 92.0227 268.876 91.9507 268.612L91.1587 266.056C91.1107 265.912 91.1107 265.792 91.1587 265.696C91.1827 265.6 91.2427 265.54 91.3387 265.516C91.7467 265.348 92.0827 265.096 92.3467 264.76C92.6107 264.448 92.8027 263.98 92.9227 263.356C93.0427 262.708 93.1027 261.844 93.1027 260.764V240.316C93.1027 240.052 93.2107 239.92 93.4267 239.92H96.5587C96.7747 239.92 96.8827 240.052 96.8827 240.316V260.62C96.8827 262.372 96.7147 263.812 96.3787 264.94C96.0427 266.068 95.5387 266.944 94.8667 267.568C94.1947 268.192 93.3667 268.624 92.3827 268.864Z" fill="#171616"/>
</g>
<g id="bogstav 7_2" filter="url(#filter9_d_73_1214)">
<rect x="122.5" y="231.5" width="35" height="43" rx="3" fill="#2D2C2B"/>
<path id="k" d="M134.454 265C134.238 265 134.13 264.868 134.13 264.604V241.816C134.13 241.552 134.238 241.42 134.454 241.42H137.586C137.802 241.42 137.91 241.552 137.91 241.816V247.72C137.91 248.2 137.898 248.752 137.874 249.376C137.85 249.976 137.826 250.576 137.802 251.176C137.802 251.752 137.778 252.292 137.73 252.796H137.802C138.066 252.052 138.342 251.26 138.63 250.42C138.942 249.556 139.302 248.668 139.71 247.756L142.662 241.636C142.71 241.492 142.83 241.42 143.022 241.42H146.514C146.802 241.42 146.862 241.576 146.694 241.888L142.194 251.14L147.306 264.532C147.45 264.844 147.378 265 147.09 265H143.382C143.19 265 143.07 264.916 143.022 264.748L139.566 254.704L137.91 257.836V264.604C137.91 264.868 137.802 265 137.586 265H134.454Z" fill="#171616"/>
</g>
<g id="bogstav 8_2" filter="url(#filter10_d_73_1214)">
<rect x="167.5" y="231.5" width="35" height="43" rx="3" fill="#2D2C2B"/>
<path id="l" d="M180.967 263.5C180.727 263.5 180.607 263.368 180.607 263.104V240.316C180.607 240.052 180.727 239.92 180.967 239.92H184.027C184.267 239.92 184.387 240.052 184.387 240.316V260.08H190.111C190.351 260.08 190.471 260.212 190.471 260.476V263.104C190.471 263.368 190.351 263.5 190.111 263.5H180.967Z" fill="#171616"/>
</g>
</g>
<g id="Bund" filter="url(#filter11_d_73_1214)">
<g clip-path="url(#clip4_73_1214)">
<g id="bogstav 4_2" filter="url(#filter12_d_73_1214)">
<rect x="10" y="281.5" width="35" height="43" rx="3" fill="#2D2C2B"/>
<path id="b" d="M22.237 313.5C21.973 313.5 21.841 313.368 21.841 313.104V290.316C21.841 290.052 21.973 289.92 22.237 289.92H26.845C28.957 289.92 30.529 290.412 31.561 291.396C32.593 292.356 33.109 293.82 33.109 295.788C33.109 297.036 32.881 298.092 32.425 298.956C31.969 299.82 31.273 300.504 30.337 301.008V301.08C31.465 301.44 32.317 302.1 32.893 303.06C33.493 304.02 33.793 305.244 33.793 306.732C33.793 308.988 33.241 310.68 32.137 311.808C31.057 312.936 29.401 313.5 27.169 313.5H22.237ZM25.621 310.26H27.133C28.117 310.26 28.849 309.948 29.329 309.324C29.833 308.7 30.085 307.752 30.085 306.48C30.085 305.28 29.833 304.38 29.329 303.78C28.849 303.18 28.129 302.88 27.169 302.88H25.621V310.26ZM25.621 299.892H26.917C27.733 299.892 28.345 299.592 28.753 298.992C29.185 298.392 29.401 297.516 29.401 296.364C29.401 295.236 29.197 294.42 28.789 293.916C28.381 293.412 27.733 293.16 26.845 293.16H25.621V299.892Z" fill="#171616"/>
</g>
<g id="bogstav 5_3" filter="url(#filter13_d_73_1214)">
<rect x="55" y="281.5" width="35" height="43" rx="3" fill="#2D2C2B"/>
<path id="n" d="M66.3564 313.5C66.1404 313.5 66.0324 313.368 66.0324 313.104V290.316C66.0324 290.052 66.1404 289.92 66.3564 289.92H70.4964C70.6884 289.92 70.8084 290.016 70.8564 290.208L74.1324 302.088C74.3004 302.688 74.4684 303.36 74.6364 304.104C74.8284 304.848 75.0084 305.604 75.1764 306.372C75.3684 307.116 75.5124 307.776 75.6084 308.352H75.6804C75.6564 307.872 75.6204 307.32 75.5724 306.696C75.5484 306.048 75.5124 305.388 75.4644 304.716C75.4404 304.02 75.4164 303.36 75.3924 302.736C75.3924 302.088 75.3924 301.524 75.3924 301.044V290.28C75.3924 290.04 75.5004 289.92 75.7164 289.92H78.6324C78.8484 289.92 78.9564 290.04 78.9564 290.28V313.104C78.9564 313.368 78.8484 313.5 78.6324 313.5H74.5284C74.3604 313.5 74.2404 313.416 74.1684 313.248L70.8924 301.62C70.5804 300.492 70.3044 299.376 70.0644 298.272C69.8244 297.144 69.6084 296.1 69.4164 295.14H69.3444C69.3924 295.836 69.4284 296.652 69.4524 297.588C69.5004 298.524 69.5364 299.46 69.5604 300.396C69.5844 301.308 69.5964 302.112 69.5964 302.808V313.104C69.5964 313.368 69.5004 313.5 69.3084 313.5H66.3564Z" fill="#171616"/>
</g>
<g id="bogstav 6_3" filter="url(#filter14_d_73_1214)">
<rect x="100" y="281.5" width="35" height="43" rx="3" fill="#2D2C2B"/>
<path id="m" d="M109.558 313.5C109.342 313.5 109.234 313.368 109.234 313.104L109.522 290.316C109.522 290.052 109.642 289.92 109.882 289.92H113.806C114.046 289.92 114.178 290.016 114.202 290.208L117.478 302.844L120.79 290.208C120.814 290.016 120.946 289.92 121.186 289.92H125.11C125.326 289.92 125.434 290.052 125.434 290.316L125.758 313.104C125.758 313.368 125.65 313.5 125.434 313.5H122.374C122.158 313.5 122.05 313.368 122.05 313.104L121.942 301.44C121.918 300.384 121.918 299.388 121.942 298.452C121.99 297.492 122.038 296.616 122.086 295.824H122.05C121.882 296.568 121.69 297.324 121.474 298.092C121.258 298.836 121.03 299.58 120.79 300.324L117.91 310.188C117.862 310.38 117.742 310.476 117.55 310.476H117.406C117.238 310.476 117.13 310.38 117.082 310.188L114.166 300.324C113.926 299.58 113.698 298.836 113.482 298.092C113.29 297.324 113.11 296.568 112.942 295.824H112.87C112.942 296.616 112.99 297.492 113.014 298.452C113.062 299.388 113.074 300.384 113.05 301.44L112.942 313.104C112.942 313.368 112.834 313.5 112.618 313.5H109.558Z" fill="#171616"/>
</g>
<g id="Slet m. BG" filter="url(#filter15_d_73_1214)">
<rect x="145" y="281.5" width="35" height="43" rx="3" fill="#2D2C2B"/>
<g id="Icon / material-icon / backspace_black_24dp">
<path id="fill" d="M173.75 292.875H156.875C156.099 292.875 155.491 293.269 155.086 293.865L149 303L155.086 312.124C155.491 312.72 156.099 313.125 156.875 313.125H173.75C174.988 313.125 176 312.113 176 310.875V295.125C176 293.887 174.988 292.875 173.75 292.875ZM173.75 310.875H156.954L151.7 303L156.942 295.125H173.75V310.875ZM160.711 308.625L164.75 304.586L168.789 308.625L170.375 307.039L166.336 303L170.375 298.961L168.789 297.375L164.75 301.414L160.711 297.375L159.125 298.961L163.164 303L159.125 307.039L160.711 308.625Z" fill="#171616"/>
</g>
</g>
</g>
</g>
</g>
</g>
<g id="textRight">
<g id="keyboardTitle">
<path id="keyboard" d="M240.439 280C240.065 280 239.879 279.76 239.879 279.28V228.32C239.879 227.84 240.065 227.6 240.439 227.6H244.519C244.892 227.6 245.079 227.84 245.079 228.32V245.28C245.079 246.4 245.052 247.547 244.999 248.72C244.999 249.84 244.972 250.96 244.919 252.08C244.919 253.147 244.892 254.267 244.839 255.44H244.919C245.612 253.68 246.332 251.973 247.079 250.32C247.825 248.667 248.599 247.013 249.399 245.36L258.039 227.92C258.092 227.707 258.305 227.6 258.679 227.6H263.399C263.932 227.6 264.039 227.893 263.719 228.48L252.999 248.72L264.759 279.12C265.025 279.707 264.919 280 264.439 280H259.559C259.239 280 259.025 279.84 258.919 279.52L249.719 254.72L245.079 263.44V279.28C245.079 279.76 244.892 280 244.519 280H240.439ZM269.425 280C268.998 280 268.785 279.76 268.785 279.28V228.32C268.785 227.84 268.972 227.6 269.345 227.6H287.425C287.798 227.6 287.985 227.84 287.985 228.32V231.92C287.985 232.4 287.798 232.64 287.425 232.64H273.985V250.88H286.305C286.678 250.88 286.865 251.12 286.865 251.6V254.96C286.865 255.44 286.678 255.68 286.305 255.68H273.985V274.96H287.425C287.798 274.96 287.985 275.2 287.985 275.68V279.28C287.985 279.76 287.798 280 287.425 280H269.425ZM302.946 280C302.572 280 302.386 279.76 302.386 279.28V262.08L291.986 228.48C291.826 227.893 291.959 227.6 292.386 227.6H297.106C297.426 227.6 297.612 227.76 297.666 228.08L302.546 246.16C302.972 247.653 303.372 249.2 303.746 250.8C304.172 252.347 304.572 253.893 304.946 255.44H305.026C305.452 253.893 305.879 252.347 306.306 250.8C306.732 249.2 307.132 247.627 307.506 246.08L312.386 228.08C312.492 227.76 312.679 227.6 312.946 227.6H317.506C317.932 227.6 318.092 227.893 317.986 228.48L307.586 262V279.28C307.586 279.76 307.426 280 307.106 280H302.946ZM323.568 280C323.088 280 322.848 279.76 322.848 279.28V228.32C322.848 227.84 323.088 227.6 323.568 227.6H331.248C335.621 227.6 338.821 228.667 340.848 230.8C342.928 232.88 343.968 236.08 343.968 240.4C343.968 243.227 343.488 245.627 342.528 247.6C341.621 249.573 340.234 251.12 338.368 252.24V252.4C340.661 253.147 342.394 254.613 343.568 256.8C344.794 258.987 345.408 261.813 345.408 265.28C345.408 270.08 344.314 273.733 342.128 276.24C339.941 278.747 336.714 280 332.448 280H323.568ZM328.048 274.96H332.288C334.954 274.96 336.928 274.16 338.208 272.56C339.541 270.907 340.208 268.347 340.208 264.88C340.208 261.573 339.568 259.147 338.288 257.6C337.061 256.053 335.141 255.28 332.528 255.28H328.048V274.96ZM328.048 250.4H331.968C334.208 250.4 335.888 249.627 337.008 248.08C338.181 246.48 338.768 244.16 338.768 241.12C338.768 238.08 338.208 235.92 337.088 234.64C335.968 233.307 334.181 232.64 331.728 232.64H328.048V250.4ZM363.748 280.48C359.748 280.48 356.655 279.253 354.468 276.8C352.335 274.347 351.268 270.64 351.268 265.68V242.08C351.268 237.013 352.335 233.253 354.468 230.8C356.655 228.347 359.748 227.12 363.748 227.12C367.748 227.12 370.841 228.347 373.028 230.8C375.215 233.253 376.308 237.013 376.308 242.08V265.68C376.308 270.64 375.215 274.347 373.028 276.8C370.841 279.253 367.748 280.48 363.748 280.48ZM363.748 275.44C366.148 275.44 367.961 274.64 369.188 273.04C370.468 271.387 371.108 268.8 371.108 265.28V242.4C371.108 238.827 370.468 236.24 369.188 234.64C367.961 232.987 366.148 232.16 363.748 232.16C361.401 232.16 359.588 232.987 358.308 234.64C357.081 236.24 356.468 238.827 356.468 242.4V265.28C356.468 268.8 357.081 271.387 358.308 273.04C359.588 274.64 361.401 275.44 363.748 275.44ZM380.101 280C379.728 280 379.568 279.733 379.621 279.2L390.021 228.16C390.075 227.787 390.315 227.6 390.741 227.6H396.341C396.768 227.6 397.008 227.787 397.061 228.16L407.541 279.2C407.595 279.733 407.435 280 407.061 280H402.661C402.341 280 402.128 279.84 402.021 279.52L395.541 244.88C395.168 243.013 394.795 241.173 394.421 239.36C394.101 237.493 393.808 235.627 393.541 233.76H393.381C393.115 235.627 392.821 237.493 392.501 239.36C392.235 241.173 391.915 243.04 391.541 244.96L385.061 279.52C385.008 279.84 384.821 280 384.501 280H380.101ZM386.501 267.12L387.461 262.08H399.461L400.581 267.12H386.501ZM412.079 280C411.706 280 411.519 279.76 411.519 279.28V228.32C411.519 227.84 411.706 227.6 412.079 227.6H420.879C425.306 227.6 428.533 228.773 430.559 231.12C432.639 233.467 433.679 237.04 433.679 241.84C433.679 245.84 433.093 249.013 431.919 251.36C430.799 253.653 429.226 255.2 427.199 256V256.08L435.439 279.12C435.546 279.707 435.359 280 434.879 280H430.479C430.213 280 429.999 279.84 429.839 279.52L422.079 257.2H416.719V279.28C416.719 279.76 416.533 280 416.159 280H412.079ZM416.719 252.4H421.039C423.706 252.4 425.599 251.573 426.719 249.92C427.893 248.213 428.479 245.653 428.479 242.24C428.479 238.773 427.839 236.32 426.559 234.88C425.333 233.387 423.413 232.64 420.799 232.64H416.719V252.4ZM442.005 280C441.525 280 441.285 279.76 441.285 279.28V228.32C441.285 227.84 441.498 227.6 441.925 227.6H449.765C455.258 227.6 459.312 229.333 461.925 232.8C464.592 236.213 465.925 241.493 465.925 248.64V256.56C465.925 264.507 464.645 270.4 462.085 274.24C459.525 278.08 455.552 280 450.165 280H442.005ZM446.485 274.96H449.765C453.712 274.96 456.512 273.547 458.165 270.72C459.872 267.84 460.725 263.253 460.725 256.96V248.48C460.725 242.987 459.845 238.987 458.085 236.48C456.325 233.92 453.472 232.64 449.525 232.64H446.485V274.96Z" fill="#F9F8F5"/>
</g>
<g id="firmware">
<path id="v1.2" d="M446.024 310C445.954 310 445.905 309.958 445.877 309.874L443.231 296.455C443.217 296.315 443.259 296.245 443.357 296.245H444.491C444.589 296.245 444.645 296.287 444.659 296.371L446.339 305.422C446.423 305.912 446.5 306.409 446.57 306.913C446.654 307.403 446.731 307.893 446.801 308.383H446.843C446.913 307.893 446.99 307.403 447.074 306.913C447.158 306.409 447.242 305.912 447.326 305.422L449.006 296.392C449.02 296.294 449.069 296.245 449.153 296.245H450.308C450.406 296.245 450.448 296.315 450.434 296.455L447.788 309.853C447.76 309.951 447.711 310 447.641 310H446.024ZM451.321 310C451.195 310 451.132 309.937 451.132 309.811V308.845C451.132 308.719 451.195 308.656 451.321 308.656H453.19L453.211 297.904L451.363 298.639C451.321 298.653 451.279 298.653 451.237 298.639C451.209 298.611 451.195 298.569 451.195 298.513V297.526C451.195 297.442 451.237 297.379 451.321 297.337L454.03 296.224C454.1 296.182 454.17 296.161 454.24 296.161H454.387C454.513 296.161 454.576 296.224 454.576 296.35V308.656H456.277C456.403 308.656 456.466 308.719 456.466 308.845V309.811C456.466 309.937 456.403 310 456.277 310H451.321ZM458.81 310.126C458.516 310.126 458.285 310.049 458.117 309.895C457.963 309.741 457.886 309.51 457.886 309.202V309.034C457.886 308.726 457.963 308.495 458.117 308.341C458.285 308.187 458.516 308.11 458.81 308.11C459.118 308.11 459.349 308.187 459.503 308.341C459.657 308.495 459.734 308.726 459.734 309.034V309.202C459.734 309.51 459.657 309.741 459.503 309.895C459.349 310.049 459.118 310.126 458.81 310.126ZM462.053 310C461.927 310 461.864 309.937 461.864 309.811V308.635C461.864 307.795 461.962 307.074 462.158 306.472C462.354 305.87 462.606 305.345 462.914 304.897C463.222 304.435 463.551 304.015 463.901 303.637C464.251 303.259 464.58 302.881 464.888 302.503C465.196 302.111 465.448 301.691 465.644 301.243C465.84 300.781 465.938 300.242 465.938 299.626V299.227C465.938 298.569 465.833 298.107 465.623 297.841C465.427 297.575 465.091 297.442 464.615 297.442C464.111 297.442 463.761 297.631 463.565 298.009C463.369 298.387 463.278 298.926 463.292 299.626C463.292 299.752 463.229 299.815 463.103 299.815H462.158C462.032 299.815 461.969 299.752 461.969 299.626C461.955 298.464 462.165 297.589 462.599 297.001C463.047 296.413 463.726 296.119 464.636 296.119C465.518 296.119 466.183 296.378 466.631 296.896C467.093 297.414 467.324 298.226 467.324 299.332C467.324 300.172 467.226 300.879 467.03 301.453C466.834 302.027 466.582 302.524 466.274 302.944C465.98 303.35 465.658 303.735 465.308 304.099C464.958 304.463 464.629 304.848 464.321 305.254C464.027 305.646 463.782 306.115 463.586 306.661C463.39 307.207 463.292 307.872 463.292 308.656H467.114C467.226 308.656 467.282 308.719 467.282 308.845V309.811C467.282 309.937 467.226 310 467.114 310H462.053Z" fill="#BDBAB2"/>
</g>
</g>
</g>
</g>
<defs>
<filter id="filter0_d_73_1214" x="251" y="8.98889" width="228" height="183.022" filterUnits="userSpaceOnUse" color-interpolation-filters="sRGB">
<feFlood flood-opacity="0" result="BackgroundImageFix"/>
<feColorMatrix in="SourceAlpha" type="matrix" values="0 0 0 0 0 0 0 0 0 0 0 0 0 0 0 0 0 0 127 0" result="hardAlpha"/>
<feOffset dy="4"/>
<feGaussianBlur stdDeviation="2"/>
<feComposite in2="hardAlpha" operator="out"/>
<feColorMatrix type="matrix" values="0 0 0 0 0 0 0 0 0 0 0 0 0 0 0 0 0 0 0.25 0"/>
<feBlend mode="normal" in2="BackgroundImageFix" result="effect1_dropShadow_73_1214"/>
<feBlend mode="normal" in="SourceGraphic" in2="effect1_dropShadow_73_1214" result="shape"/>
</filter>
<filter id="filter1_d_73_1214" x="6" y="181.5" width="43" height="51" filterUnits="userSpaceOnUse" color-interpolation-filters="sRGB">
<feFlood flood-opacity="0" result="BackgroundImageFix"/>
<feColorMatrix in="SourceAlpha" type="matrix" values="0 0 0 0 0 0 0 0 0 0 0 0 0 0 0 0 0 0 127 0" result="hardAlpha"/>
<feOffset dy="4"/>
<feGaussianBlur stdDeviation="2"/>
<feComposite in2="hardAlpha" operator="out"/>
<feColorMatrix type="matrix" values="0 0 0 0 0 0 0 0 0 0 0 0 0 0 0 0 0 0 0.25 0"/>
<feBlend mode="normal" in2="BackgroundImageFix" result="effect1_dropShadow_73_1214"/>
<feBlend mode="normal" in="SourceGraphic" in2="effect1_dropShadow_73_1214" result="shape"/>
</filter>
<filter id="filter2_d_73_1214" x="51" y="181.5" width="43" height="51" filterUnits="userSpaceOnUse" color-interpolation-filters="sRGB">
<feFlood flood-opacity="0" result="BackgroundImageFix"/>
<feColorMatrix in="SourceAlpha" type="matrix" values="0 0 0 0 0 0 0 0 0 0 0 0 0 0 0 0 0 0 127 0" result="hardAlpha"/>
<feOffset dy="4"/>
<feGaussianBlur stdDeviation="2"/>
<feComposite in2="hardAlpha" operator="out"/>
<feColorMatrix type="matrix" values="0 0 0 0 0 0 0 0 0 0 0 0 0 0 0 0 0 0 0.25 0"/>
<feBlend mode="normal" in2="BackgroundImageFix" result="effect1_dropShadow_73_1214"/>
<feBlend mode="normal" in="SourceGraphic" in2="effect1_dropShadow_73_1214" result="shape"/>
</filter>
<filter id="filter3_d_73_1214" x="96" y="181.5" width="43" height="51" filterUnits="userSpaceOnUse" color-interpolation-filters="sRGB">
<feFlood flood-opacity="0" result="BackgroundImageFix"/>
<feColorMatrix in="SourceAlpha" type="matrix" values="0 0 0 0 0 0 0 0 0 0 0 0 0 0 0 0 0 0 127 0" result="hardAlpha"/>
<feOffset dy="4"/>
<feGaussianBlur stdDeviation="2"/>
<feComposite in2="hardAlpha" operator="out"/>
<feColorMatrix type="matrix" values="0 0 0 0 0 0 0 0 0 0 0 0 0 0 0 0 0 0 0.25 0"/>
<feBlend mode="normal" in2="BackgroundImageFix" result="effect1_dropShadow_73_1214"/>
<feBlend mode="normal" in="SourceGraphic" in2="effect1_dropShadow_73_1214" result="shape"/>
</filter>
<filter id="filter4_d_73_1214" x="141" y="181.5" width="43" height="51" filterUnits="userSpaceOnUse" color-interpolation-filters="sRGB">
<feFlood flood-opacity="0" result="BackgroundImageFix"/>
<feColorMatrix in="SourceAlpha" type="matrix" values="0 0 0 0 0 0 0 0 0 0 0 0 0 0 0 0 0 0 127 0" result="hardAlpha"/>
<feOffset dy="4"/>
<feGaussianBlur stdDeviation="2"/>
<feComposite in2="hardAlpha" operator="out"/>
<feColorMatrix type="matrix" values="0 0 0 0 0 0 0 0 0 0 0 0 0 0 0 0 0 0 0.25 0"/>
<feBlend mode="normal" in2="BackgroundImageFix" result="effect1_dropShadow_73_1214"/>
<feBlend mode="normal" in="SourceGraphic" in2="effect1_dropShadow_73_1214" result="shape"/>
</filter>
<filter id="filter5_d_73_1214" x="186" y="181.5" width="43" height="51" filterUnits="userSpaceOnUse" color-interpolation-filters="sRGB">
<feFlood flood-opacity="0" result="BackgroundImageFix"/>
<feColorMatrix in="SourceAlpha" type="matrix" values="0 0 0 0 0 0 0 0 0 0 0 0 0 0 0 0 0 0 127 0" result="hardAlpha"/>
<feOffset dy="4"/>
<feGaussianBlur stdDeviation="2"/>
<feComposite in2="hardAlpha" operator="out"/>
<feColorMatrix type="matrix" values="0 0 0 0 0 0 0 0 0 0 0 0 0 0 0 0 0 0 0.25 0"/>
<feBlend mode="normal" in2="BackgroundImageFix" result="effect1_dropShadow_73_1214"/>
<feBlend mode="normal" in="SourceGraphic" in2="effect1_dropShadow_73_1214" result="shape"/>
</filter>
<filter id="filter6_d_73_1214" x="-16.5" y="231.5" width="43" height="51" filterUnits="userSpaceOnUse" color-interpolation-filters="sRGB">
<feFlood flood-opacity="0" result="BackgroundImageFix"/>
<feColorMatrix in="SourceAlpha" type="matrix" values="0 0 0 0 0 0 0 0 0 0 0 0 0 0 0 0 0 0 127 0" result="hardAlpha"/>
<feOffset dy="4"/>
<feGaussianBlur stdDeviation="2"/>
<feComposite in2="hardAlpha" operator="out"/>
<feColorMatrix type="matrix" values="0 0 0 0 0 0 0 0 0 0 0 0 0 0 0 0 0 0 0.25 0"/>
<feBlend mode="normal" in2="BackgroundImageFix" result="effect1_dropShadow_73_1214"/>
<feBlend mode="normal" in="SourceGraphic" in2="effect1_dropShadow_73_1214" result="shape"/>
</filter>
<filter id="filter7_d_73_1214" x="28.5" y="231.5" width="43" height="51" filterUnits="userSpaceOnUse" color-interpolation-filters="sRGB">
<feFlood flood-opacity="0" result="BackgroundImageFix"/>
<feColorMatrix in="SourceAlpha" type="matrix" values="0 0 0 0 0 0 0 0 0 0 0 0 0 0 0 0 0 0 127 0" result="hardAlpha"/>
<feOffset dy="4"/>
<feGaussianBlur stdDeviation="2"/>
<feComposite in2="hardAlpha" operator="out"/>
<feColorMatrix type="matrix" values="0 0 0 0 0 0 0 0 0 0 0 0 0 0 0 0 0 0 0.25 0"/>
<feBlend mode="normal" in2="BackgroundImageFix" result="effect1_dropShadow_73_1214"/>
<feBlend mode="normal" in="SourceGraphic" in2="effect1_dropShadow_73_1214" result="shape"/>
</filter>
<filter id="filter8_d_73_1214" x="73.5" y="231.5" width="43" height="51" filterUnits="userSpaceOnUse" color-interpolation-filters="sRGB">
<feFlood flood-opacity="0" result="BackgroundImageFix"/>
<feColorMatrix in="SourceAlpha" type="matrix" values="0 0 0 0 0 0 0 0 0 0 0 0 0 0 0 0 0 0 127 0" result="hardAlpha"/>
<feOffset dy="4"/>
<feGaussianBlur stdDeviation="2"/>
<feComposite in2="hardAlpha" operator="out"/>
<feColorMatrix type="matrix" values="0 0 0 0 0 0 0 0 0 0 0 0 0 0 0 0 0 0 0.25 0"/>
<feBlend mode="normal" in2="BackgroundImageFix" result="effect1_dropShadow_73_1214"/>
<feBlend mode="normal" in="SourceGraphic" in2="effect1_dropShadow_73_1214" result="shape"/>
</filter>
<filter id="filter9_d_73_1214" x="118.5" y="231.5" width="43" height="51" filterUnits="userSpaceOnUse" color-interpolation-filters="sRGB">
<feFlood flood-opacity="0" result="BackgroundImageFix"/>
<feColorMatrix in="SourceAlpha" type="matrix" values="0 0 0 0 0 0 0 0 0 0 0 0 0 0 0 0 0 0 127 0" result="hardAlpha"/>
<feOffset dy="4"/>
<feGaussianBlur stdDeviation="2"/>
<feComposite in2="hardAlpha" operator="out"/>
<feColorMatrix type="matrix" values="0 0 0 0 0 0 0 0 0 0 0 0 0 0 0 0 0 0 0.25 0"/>
<feBlend mode="normal" in2="BackgroundImageFix" result="effect1_dropShadow_73_1214"/>
<feBlend mode="normal" in="SourceGraphic" in2="effect1_dropShadow_73_1214" result="shape"/>
</filter>
<filter id="filter10_d_73_1214" x="163.5" y="231.5" width="43" height="51" filterUnits="userSpaceOnUse" color-interpolation-filters="sRGB">
<feFlood flood-opacity="0" result="BackgroundImageFix"/>
<feColorMatrix in="SourceAlpha" type="matrix" values="0 0 0 0 0 0 0 0 0 0 0 0 0 0 0 0 0 0 127 0" result="hardAlpha"/>
<feOffset dy="4"/>
<feGaussianBlur stdDeviation="2"/>
<feComposite in2="hardAlpha" operator="out"/>
<feColorMatrix type="matrix" values="0 0 0 0 0 0 0 0 0 0 0 0 0 0 0 0 0 0 0.25 0"/>
<feBlend mode="normal" in2="BackgroundImageFix" result="effect1_dropShadow_73_1214"/>
<feBlend mode="normal" in="SourceGraphic" in2="effect1_dropShadow_73_1214" result="shape"/>
</filter>
<filter id="filter11_d_73_1214" x="-174" y="281.5" width="358" height="55" filterUnits="userSpaceOnUse" color-interpolation-filters="sRGB">
<feFlood flood-opacity="0" result="BackgroundImageFix"/>
<feColorMatrix in="SourceAlpha" type="matrix" values="0 0 0 0 0 0 0 0 0 0 0 0 0 0 0 0 0 0 127 0" result="hardAlpha"/>
<feOffset dy="4"/>
<feGaussianBlur stdDeviation="2"/>
<feComposite in2="hardAlpha" operator="out"/>
<feColorMatrix type="matrix" values="0 0 0 0 0 0 0 0 0 0 0 0 0 0 0 0 0 0 0.9 0"/>
<feBlend mode="normal" in2="BackgroundImageFix" result="effect1_dropShadow_73_1214"/>
<feBlend mode="normal" in="SourceGraphic" in2="effect1_dropShadow_73_1214" result="shape"/>
</filter>
<filter id="filter12_d_73_1214" x="6" y="281.5" width="43" height="51" filterUnits="userSpaceOnUse" color-interpolation-filters="sRGB">
<feFlood flood-opacity="0" result="BackgroundImageFix"/>
<feColorMatrix in="SourceAlpha" type="matrix" values="0 0 0 0 0 0 0 0 0 0 0 0 0 0 0 0 0 0 127 0" result="hardAlpha"/>
<feOffset dy="4"/>
<feGaussianBlur stdDeviation="2"/>
<feComposite in2="hardAlpha" operator="out"/>
<feColorMatrix type="matrix" values="0 0 0 0 0 0 0 0 0 0 0 0 0 0 0 0 0 0 0.25 0"/>
<feBlend mode="normal" in2="BackgroundImageFix" result="effect1_dropShadow_73_1214"/>
<feBlend mode="normal" in="SourceGraphic" in2="effect1_dropShadow_73_1214" result="shape"/>
</filter>
<filter id="filter13_d_73_1214" x="51" y="281.5" width="43" height="51" filterUnits="userSpaceOnUse" color-interpolation-filters="sRGB">
<feFlood flood-opacity="0" result="BackgroundImageFix"/>
<feColorMatrix in="SourceAlpha" type="matrix" values="0 0 0 0 0 0 0 0 0 0 0 0 0 0 0 0 0 0 127 0" result="hardAlpha"/>
<feOffset dy="4"/>
<feGaussianBlur stdDeviation="2"/>
<feComposite in2="hardAlpha" operator="out"/>
<feColorMatrix type="matrix" values="0 0 0 0 0 0 0 0 0 0 0 0 0 0 0 0 0 0 0.25 0"/>
<feBlend mode="normal" in2="BackgroundImageFix" result="effect1_dropShadow_73_1214"/>
<feBlend mode="normal" in="SourceGraphic" in2="effect1_dropShadow_73_1214" result="shape"/>
</filter>
<filter id="filter14_d_73_1214" x="96" y="281.5" width="43" height="51" filterUnits="userSpaceOnUse" color-interpolation-filters="sRGB">
<feFlood flood-opacity="0" result="BackgroundImageFix"/>
<feColorMatrix in="SourceAlpha" type="matrix" values="0 0 0 0 0 0 0 0 0 0 0 0 0 0 0 0 0 0 127 0" result="hardAlpha"/>
<feOffset dy="4"/>
<feGaussianBlur stdDeviation="2"/>
<feComposite in2="hardAlpha" operator="out"/>
<feColorMatrix type="matrix" values="0 0 0 0 0 0 0 0 0 0 0 0 0 0 0 0 0 0 0.25 0"/>
<feBlend mode="normal" in2="BackgroundImageFix" result="effect1_dropShadow_73_1214"/>
<feBlend mode="normal" in="SourceGraphic" in2="effect1_dropShadow_73_1214" result="shape"/>
</filter>
<filter id="filter15_d_73_1214" x="141" y="281.5" width="43" height="51" filterUnits="userSpaceOnUse" color-interpolation-filters="sRGB">
<feFlood flood-opacity="0" result="BackgroundImageFix"/>
<feColorMatrix in="SourceAlpha" type="matrix" values="0 0 0 0 0 0 0 0 0 0 0 0 0 0 0 0 0 0 127 0" result="hardAlpha"/>
<feOffset dy="4"/>
<feGaussianBlur stdDeviation="2"/>
<feComposite in2="hardAlpha" operator="out"/>
<feColorMatrix type="matrix" values="0 0 0 0 0 0 0 0 0 0 0 0 0 0 0 0 0 0 0.25 0"/>
<feBlend mode="normal" in2="BackgroundImageFix" result="effect1_dropShadow_73_1214"/>
<feBlend mode="normal" in="SourceGraphic" in2="effect1_dropShadow_73_1214" result="shape"/>
</filter>
<clipPath id="clip0_73_1214">
<rect x="5" y="5" width="470" height="183" rx="5" fill="white"/>
</clipPath>
<clipPath id="clip1_73_1214">
<rect width="220" height="122" fill="white" transform="translate(5 193)"/>
</clipPath>
<clipPath id="clip2_73_1214">
<rect width="440" height="49" fill="white" transform="translate(-215 181.5)"/>
</clipPath>
<clipPath id="clip3_73_1214">
<rect width="395" height="49" fill="white" transform="translate(-192.5 231.5)"/>
</clipPath>
<clipPath id="clip4_73_1214">
<rect width="350" height="47" fill="white" transform="translate(-170 281.5)"/>
</clipPath>
</defs>
</svg>
