<svg width="480" height="338" viewBox="0 0 480 338" fill="none" xmlns="http://www.w3.org/2000/svg">
<g id="Start">
<rect width="480" height="320" transform="translate(0 9)" fill="#636363"/>
<g id="startTop">
<g clip-path="url(#clip0_102_1446)">
<rect x="5" y="14" width="470" height="183" rx="5" fill="#212020"/>
<g id="textLeft">
<g id="#nfcTitle">
<path id="NFC" d="M19.64 132C19.32 132 19.16 131.76 19.16 131.28V80.32C19.16 79.84 19.3467 79.6 19.72 79.6H26.28C26.6533 79.6 26.8667 79.76 26.92 80.08L35.56 110.8C35.9867 112.187 36.4133 113.76 36.84 115.52C37.2667 117.227 37.6667 118.96 38.04 120.72C38.4667 122.427 38.8133 123.973 39.08 125.36H39.24C39.1867 124.293 39.1333 123.12 39.08 121.84C39.0267 120.56 38.9733 119.253 38.92 117.92C38.92 116.587 38.8933 115.28 38.84 114C38.84 112.72 38.84 111.547 38.84 110.48V80.24C38.84 79.8133 39.0267 79.6 39.4 79.6H43.32C43.6933 79.6 43.88 79.8133 43.88 80.24V131.28C43.88 131.76 43.6933 132 43.32 132H36.76C36.4933 132 36.3067 131.867 36.2 131.6L27.8 101.84C27 99.0133 26.3067 96.2933 25.72 93.68C25.1333 91.0133 24.6 88.5333 24.12 86.24H23.96C24.0133 87.7867 24.04 89.52 24.04 91.44C24.0933 93.3067 24.12 95.2 24.12 97.12C24.1733 98.9867 24.2 100.693 24.2 102.24V131.28C24.2 131.76 24.04 132 23.72 132H19.64ZM52.6088 132C52.2888 132 52.1288 131.76 52.1288 131.28V80.32C52.1288 79.84 52.3154 79.6 52.6888 79.6H70.7688C71.1421 79.6 71.3288 79.84 71.3288 80.32V83.92C71.3288 84.4 71.1421 84.64 70.7688 84.64H57.3288V103.68H69.0088C69.4354 103.68 69.6488 103.92 69.6488 104.4V107.76C69.6488 108.24 69.4354 108.48 69.0088 108.48H57.3288V131.28C57.3288 131.76 57.1688 132 56.8488 132H52.6088ZM88.8106 132.48C84.7573 132.48 81.664 131.173 79.5306 128.56C77.3973 125.947 76.3306 122 76.3306 116.72V94.88C76.3306 89.6 77.3973 85.6533 79.5306 83.04C81.664 80.4267 84.7573 79.12 88.8106 79.12C91.744 79.12 94.1706 79.84 96.0906 81.28C98.0106 82.6667 99.3706 84.6667 100.171 87.28C100.971 89.84 101.157 92.9067 100.731 96.48C100.624 96.9067 100.437 97.12 100.171 97.12H96.0906C95.6106 97.12 95.424 96.8533 95.5306 96.32C95.8506 92.32 95.4506 89.3067 94.3306 87.28C93.264 85.2 91.424 84.16 88.8106 84.16C86.464 84.16 84.6506 85.04 83.3706 86.8C82.144 88.56 81.5306 91.3867 81.5306 95.28V116.32C81.5306 120.16 82.144 122.987 83.3706 124.8C84.6506 126.56 86.464 127.44 88.8106 127.44C91.584 127.44 93.4773 126.347 94.4906 124.16C95.5573 121.973 95.9573 119.013 95.6906 115.28C95.584 114.747 95.7706 114.48 96.2506 114.48H100.011C100.491 114.48 100.757 114.747 100.811 115.28C101.131 120.773 100.277 125.013 98.2506 128C96.224 130.987 93.0773 132.48 88.8106 132.48Z" fill="#F9F8F5"/>
</g>
<g id="ScanningTxt">
<path id="scanning to the right" d="M18.34 170.12C17.62 170.12 17.0467 169.96 16.62 169.64C16.1933 169.32 15.9 168.887 15.74 168.34C15.58 167.78 15.5267 167.147 15.58 166.44C15.5933 166.307 15.64 166.24 15.72 166.24H16.72C16.8267 166.24 16.8733 166.307 16.86 166.44C16.7667 167.253 16.8533 167.86 17.12 168.26C17.4 168.66 17.8267 168.86 18.4 168.86C18.92 168.86 19.3067 168.707 19.56 168.4C19.8267 168.08 19.96 167.587 19.96 166.92C19.96 166.333 19.88 165.853 19.72 165.48C19.56 165.093 19.28 164.753 18.88 164.46L17.26 163.18C16.7133 162.753 16.3067 162.273 16.04 161.74C15.7867 161.193 15.66 160.54 15.66 159.78C15.6733 158.833 15.9133 158.1 16.38 157.58C16.86 157.047 17.52 156.78 18.36 156.78C19.3467 156.78 20.0667 157.1 20.52 157.74C20.9867 158.38 21.1667 159.253 21.06 160.36C21.06 160.507 21.0133 160.58 20.92 160.58H19.9C19.8067 160.58 19.7667 160.507 19.78 160.36C19.86 159.613 19.7733 159.04 19.52 158.64C19.2667 158.24 18.8867 158.04 18.38 158.04C17.9533 158.04 17.6133 158.18 17.36 158.46C17.1067 158.74 16.9733 159.167 16.96 159.74C16.96 160.273 17.0533 160.727 17.24 161.1C17.4267 161.473 17.7133 161.813 18.1 162.12L19.66 163.34C20.0467 163.633 20.3533 163.947 20.58 164.28C20.82 164.6 20.9933 164.973 21.1 165.4C21.2067 165.813 21.26 166.3 21.26 166.86C21.26 167.873 21.02 168.673 20.54 169.26C20.0733 169.833 19.34 170.12 18.34 170.12ZM25.9769 170.12C24.9635 170.12 24.1902 169.793 23.6569 169.14C23.1235 168.487 22.8569 167.5 22.8569 166.18V160.72C22.8569 159.4 23.1235 158.413 23.6569 157.76C24.1902 157.107 24.9635 156.78 25.9769 156.78C26.7102 156.78 27.3169 156.96 27.7969 157.32C28.2769 157.667 28.6169 158.167 28.8169 158.82C29.0169 159.46 29.0635 160.227 28.9569 161.12C28.9302 161.227 28.8835 161.28 28.8169 161.28H27.7969C27.6769 161.28 27.6302 161.213 27.6569 161.08C27.7369 160.08 27.6369 159.327 27.3569 158.82C27.0902 158.3 26.6302 158.04 25.9769 158.04C25.3902 158.04 24.9369 158.26 24.6169 158.7C24.3102 159.14 24.1569 159.847 24.1569 160.82V166.08C24.1569 167.04 24.3102 167.747 24.6169 168.2C24.9369 168.64 25.3902 168.86 25.9769 168.86C26.6702 168.86 27.1435 168.587 27.3969 168.04C27.6635 167.493 27.7635 166.753 27.6969 165.82C27.6702 165.687 27.7169 165.62 27.8369 165.62H28.7769C28.8969 165.62 28.9635 165.687 28.9769 165.82C29.0569 167.193 28.8435 168.253 28.3369 169C27.8302 169.747 27.0435 170.12 25.9769 170.12ZM30.1284 170C30.0351 170 29.9951 169.933 30.0084 169.8L32.6084 157.04C32.6218 156.947 32.6818 156.9 32.7884 156.9H34.1884C34.2951 156.9 34.3551 156.947 34.3684 157.04L36.9884 169.8C37.0018 169.933 36.9618 170 36.8684 170H35.7684C35.6884 170 35.6351 169.96 35.6084 169.88L33.9884 161.22C33.8951 160.753 33.8018 160.293 33.7084 159.84C33.6284 159.373 33.5551 158.907 33.4884 158.44H33.4484C33.3818 158.907 33.3084 159.373 33.2284 159.84C33.1618 160.293 33.0818 160.76 32.9884 161.24L31.3684 169.88C31.3551 169.96 31.3084 170 31.2284 170H30.1284ZM31.7284 166.78L31.9684 165.52H34.9684L35.2484 166.78H31.7284ZM38.303 170C38.223 170 38.183 169.94 38.183 169.82V157.08C38.183 156.96 38.2296 156.9 38.323 156.9H39.963C40.0563 156.9 40.1096 156.94 40.123 157.02L42.283 164.7C42.3896 165.047 42.4963 165.44 42.603 165.88C42.7096 166.307 42.8096 166.74 42.903 167.18C43.0096 167.607 43.0963 167.993 43.163 168.34H43.203C43.1896 168.073 43.1763 167.78 43.163 167.46C43.1496 167.14 43.1363 166.813 43.123 166.48C43.123 166.147 43.1163 165.82 43.103 165.5C43.103 165.18 43.103 164.887 43.103 164.62V157.06C43.103 156.953 43.1496 156.9 43.243 156.9H44.223C44.3163 156.9 44.363 156.953 44.363 157.06V169.82C44.363 169.94 44.3163 170 44.223 170H42.583C42.5163 170 42.4696 169.967 42.443 169.9L40.343 162.46C40.143 161.753 39.9696 161.073 39.823 160.42C39.6763 159.753 39.543 159.133 39.423 158.56H39.383C39.3963 158.947 39.403 159.38 39.403 159.86C39.4163 160.327 39.423 160.8 39.423 161.28C39.4363 161.747 39.443 162.173 39.443 162.56V169.82C39.443 169.94 39.403 170 39.323 170H38.303ZM46.7452 170C46.6652 170 46.6252 169.94 46.6252 169.82V157.08C46.6252 156.96 46.6718 156.9 46.7652 156.9H48.4052C48.4985 156.9 48.5518 156.94 48.5652 157.02L50.7252 164.7C50.8318 165.047 50.9385 165.44 51.0452 165.88C51.1518 166.307 51.2518 166.74 51.3452 167.18C51.4518 167.607 51.5385 167.993 51.6052 168.34H51.6452C51.6318 168.073 51.6185 167.78 51.6052 167.46C51.5918 167.14 51.5785 166.813 51.5652 166.48C51.5652 166.147 51.5585 165.82 51.5452 165.5C51.5452 165.18 51.5452 164.887 51.5452 164.62V157.06C51.5452 156.953 51.5918 156.9 51.6852 156.9H52.6652C52.7585 156.9 52.8052 156.953 52.8052 157.06V169.82C52.8052 169.94 52.7585 170 52.6652 170H51.0252C50.9585 170 50.9118 169.967 50.8852 169.9L48.7852 162.46C48.5852 161.753 48.4118 161.073 48.2652 160.42C48.1185 159.753 47.9852 159.133 47.8652 158.56H47.8252C47.8385 158.947 47.8452 159.38 47.8452 159.86C47.8585 160.327 47.8652 160.8 47.8652 161.28C47.8785 161.747 47.8852 162.173 47.8852 162.56V169.82C47.8852 169.94 47.8452 170 47.7652 170H46.7452ZM55.2073 170C55.114 170 55.0673 169.94 55.0673 169.82V157.08C55.0673 156.96 55.114 156.9 55.2073 156.9H56.2273C56.3207 156.9 56.3673 156.96 56.3673 157.08V169.82C56.3673 169.94 56.3207 170 56.2273 170H55.2073ZM58.7467 170C58.6667 170 58.6267 169.94 58.6267 169.82V157.08C58.6267 156.96 58.6734 156.9 58.7667 156.9H60.4067C60.5001 156.9 60.5534 156.94 60.5667 157.02L62.7267 164.7C62.8334 165.047 62.9401 165.44 63.0467 165.88C63.1534 166.307 63.2534 166.74 63.3467 167.18C63.4534 167.607 63.5401 167.993 63.6067 168.34H63.6467C63.6334 168.073 63.6201 167.78 63.6067 167.46C63.5934 167.14 63.5801 166.813 63.5667 166.48C63.5667 166.147 63.5601 165.82 63.5467 165.5C63.5467 165.18 63.5467 164.887 63.5467 164.62V157.06C63.5467 156.953 63.5934 156.9 63.6867 156.9H64.6667C64.7601 156.9 64.8067 156.953 64.8067 157.06V169.82C64.8067 169.94 64.7601 170 64.6667 170H63.0267C62.9601 170 62.9134 169.967 62.8867 169.9L60.7867 162.46C60.5867 161.753 60.4134 161.073 60.2667 160.42C60.1201 159.753 59.9867 159.133 59.8667 158.56H59.8267C59.8401 158.947 59.8467 159.38 59.8467 159.86C59.8601 160.327 59.8667 160.8 59.8667 161.28C59.8801 161.747 59.8867 162.173 59.8867 162.56V169.82C59.8867 169.94 59.8467 170 59.7667 170H58.7467ZM69.6889 170.12C68.7289 170.12 68.0222 169.807 67.5689 169.18C67.1156 168.54 66.8889 167.58 66.8889 166.3V160.68C66.8889 159.413 67.1556 158.447 67.6889 157.78C68.2222 157.113 68.9889 156.78 69.9889 156.78C71.0422 156.78 71.8356 157.147 72.3689 157.88C72.9022 158.613 73.1156 159.627 73.0089 160.92C73.0089 161.027 72.9622 161.08 72.8689 161.08H71.8289C71.7222 161.08 71.6822 161.027 71.7089 160.92C71.8022 160.013 71.6956 159.307 71.3889 158.8C71.0822 158.293 70.6289 158.04 70.0289 158.04C69.4156 158.04 68.9556 158.26 68.6489 158.7C68.3422 159.14 68.1889 159.82 68.1889 160.74V166.2C68.1889 167.147 68.3222 167.827 68.5889 168.24C68.8556 168.653 69.3022 168.86 69.9289 168.86C70.5556 168.86 71.0289 168.607 71.3489 168.1C71.6689 167.593 71.8289 166.813 71.8289 165.76V164.64H70.1689C70.0756 164.64 70.0289 164.58 70.0289 164.46V163.58C70.0289 163.46 70.0756 163.4 70.1689 163.4H72.9489C73.0422 163.4 73.0889 163.46 73.0889 163.58V167.44C73.0889 168.027 73.0956 168.493 73.1089 168.84C73.1222 169.173 73.1489 169.493 73.1889 169.8C73.2022 169.933 73.1622 170 73.0689 170H72.2489C72.1422 170 72.0889 169.953 72.0889 169.86C72.0622 169.687 72.0422 169.487 72.0289 169.26C72.0156 169.033 72.0022 168.747 71.9889 168.4H71.9689C71.7956 168.933 71.5156 169.353 71.1289 169.66C70.7556 169.967 70.2756 170.12 69.6889 170.12ZM79.7939 170C79.7006 170 79.6539 169.94 79.6539 169.82V158.16H77.5539C77.4472 158.16 77.3939 158.1 77.3939 157.98V157.08C77.3939 156.96 77.4472 156.9 77.5539 156.9H83.0539C83.1472 156.9 83.1939 156.96 83.1939 157.08V157.98C83.1939 158.1 83.1472 158.16 83.0539 158.16H80.9539V169.82C80.9539 169.94 80.9006 170 80.7939 170H79.7939ZM87.4448 170.12C86.4448 170.12 85.6715 169.813 85.1248 169.2C84.5915 168.587 84.3248 167.66 84.3248 166.42V160.52C84.3248 159.253 84.5915 158.313 85.1248 157.7C85.6715 157.087 86.4448 156.78 87.4448 156.78C88.4448 156.78 89.2182 157.087 89.7648 157.7C90.3115 158.313 90.5848 159.253 90.5848 160.52V166.42C90.5848 167.66 90.3115 168.587 89.7648 169.2C89.2182 169.813 88.4448 170.12 87.4448 170.12ZM87.4448 168.86C88.0448 168.86 88.4982 168.66 88.8048 168.26C89.1248 167.847 89.2848 167.2 89.2848 166.32V160.6C89.2848 159.707 89.1248 159.06 88.8048 158.66C88.4982 158.247 88.0448 158.04 87.4448 158.04C86.8582 158.04 86.4048 158.247 86.0848 158.66C85.7782 159.06 85.6248 159.707 85.6248 160.6V166.32C85.6248 167.2 85.7782 167.847 86.0848 168.26C86.4048 168.66 86.8582 168.86 87.4448 168.86ZM97.0931 170C96.9998 170 96.9531 169.94 96.9531 169.82V158.16H94.8531C94.7465 158.16 94.6931 158.1 94.6931 157.98V157.08C94.6931 156.96 94.7465 156.9 94.8531 156.9H100.353C100.446 156.9 100.493 156.96 100.493 157.08V157.98C100.493 158.1 100.446 158.16 100.353 158.16H98.2531V169.82C98.2531 169.94 98.1998 170 98.0931 170H97.0931ZM102.217 170C102.124 170 102.077 169.94 102.077 169.82V157.08C102.077 156.96 102.124 156.9 102.217 156.9H103.237C103.331 156.9 103.377 156.96 103.377 157.08V162.6H106.937V157.08C106.937 156.96 106.984 156.9 107.077 156.9H108.077C108.184 156.9 108.237 156.96 108.237 157.08V169.82C108.237 169.94 108.184 170 108.077 170H107.077C106.984 170 106.937 169.94 106.937 169.82V163.84H103.377V169.82C103.377 169.94 103.331 170 103.237 170H102.217ZM110.66 170C110.553 170 110.5 169.94 110.5 169.82V157.08C110.5 156.96 110.547 156.9 110.64 156.9H115.16C115.253 156.9 115.3 156.96 115.3 157.08V157.98C115.3 158.1 115.253 158.16 115.16 158.16H111.8V162.72H114.88C114.973 162.72 115.02 162.78 115.02 162.9V163.74C115.02 163.86 114.973 163.92 114.88 163.92H111.8V168.74H115.16C115.253 168.74 115.3 168.8 115.3 168.92V169.82C115.3 169.94 115.253 170 115.16 170H110.66ZM120.2 170C120.107 170 120.06 169.94 120.06 169.82V157.08C120.06 156.96 120.107 156.9 120.2 156.9H122.4C123.507 156.9 124.314 157.193 124.82 157.78C125.34 158.367 125.6 159.26 125.6 160.46C125.6 161.46 125.454 162.253 125.16 162.84C124.88 163.413 124.487 163.8 123.98 164V164.02L126.04 169.78C126.067 169.927 126.02 170 125.9 170H124.8C124.734 170 124.68 169.96 124.64 169.88L122.7 164.3H121.36V169.82C121.36 169.94 121.314 170 121.22 170H120.2ZM121.36 163.1H122.44C123.107 163.1 123.58 162.893 123.86 162.48C124.154 162.053 124.3 161.413 124.3 160.56C124.3 159.693 124.14 159.08 123.82 158.72C123.514 158.347 123.034 158.16 122.38 158.16H121.36V163.1ZM127.842 170C127.748 170 127.702 169.94 127.702 169.82V157.08C127.702 156.96 127.748 156.9 127.842 156.9H128.862C128.955 156.9 129.002 156.96 129.002 157.08V169.82C129.002 169.94 128.955 170 128.862 170H127.842ZM133.881 170.12C132.921 170.12 132.214 169.807 131.761 169.18C131.308 168.54 131.081 167.58 131.081 166.3V160.68C131.081 159.413 131.348 158.447 131.881 157.78C132.414 157.113 133.181 156.78 134.181 156.78C135.234 156.78 136.028 157.147 136.561 157.88C137.094 158.613 137.308 159.627 137.201 160.92C137.201 161.027 137.154 161.08 137.061 161.08H136.021C135.914 161.08 135.874 161.027 135.901 160.92C135.994 160.013 135.888 159.307 135.581 158.8C135.274 158.293 134.821 158.04 134.221 158.04C133.608 158.04 133.148 158.26 132.841 158.7C132.534 159.14 132.381 159.82 132.381 160.74V166.2C132.381 167.147 132.514 167.827 132.781 168.24C133.048 168.653 133.494 168.86 134.121 168.86C134.748 168.86 135.221 168.607 135.541 168.1C135.861 167.593 136.021 166.813 136.021 165.76V164.64H134.361C134.268 164.64 134.221 164.58 134.221 164.46V163.58C134.221 163.46 134.268 163.4 134.361 163.4H137.141C137.234 163.4 137.281 163.46 137.281 163.58V167.44C137.281 168.027 137.288 168.493 137.301 168.84C137.314 169.173 137.341 169.493 137.381 169.8C137.394 169.933 137.354 170 137.261 170H136.441C136.334 170 136.281 169.953 136.281 169.86C136.254 169.687 136.234 169.487 136.221 169.26C136.208 169.033 136.194 168.747 136.181 168.4H136.161C135.988 168.933 135.708 169.353 135.321 169.66C134.948 169.967 134.468 170.12 133.881 170.12ZM139.726 170C139.633 170 139.586 169.94 139.586 169.82V157.08C139.586 156.96 139.633 156.9 139.726 156.9H140.746C140.839 156.9 140.886 156.96 140.886 157.08V162.6H144.446V157.08C144.446 156.96 144.493 156.9 144.586 156.9H145.586C145.693 156.9 145.746 156.96 145.746 157.08V169.82C145.746 169.94 145.693 170 145.586 170H144.586C144.493 170 144.446 169.94 144.446 169.82V163.84H140.886V169.82C140.886 169.94 140.839 170 140.746 170H139.726ZM149.709 170C149.615 170 149.569 169.94 149.569 169.82V158.16H147.469C147.362 158.16 147.309 158.1 147.309 157.98V157.08C147.309 156.96 147.362 156.9 147.469 156.9H152.969C153.062 156.9 153.109 156.96 153.109 157.08V157.98C153.109 158.1 153.062 158.16 152.969 158.16H150.869V169.82C150.869 169.94 150.815 170 150.709 170H149.709Z" fill="#BDBAB2"/>
</g>
</g>
<g id="LogoRight">
<g id="Vector" filter="url(#filter0_d_102_1446)">
<path d="M347.751 56.1568C347.751 56.1568 355.036 53.0745 359.672 58.0059C364.308 62.9374 376.229 82.0469 376.229 101.156C376.229 120.265 370.931 140.608 365.633 147.388C360.334 154.169 355.036 154.169 351.062 151.703C347.088 149.238 285.496 105.471 282.185 104.238C278.874 103.006 277.549 106.087 280.86 122.732C284.172 139.375 278.874 144.307 274.237 144.923C269.601 145.539 255.694 141.84 255.032 107.321C254.369 72.8004 264.303 67.2525 268.939 67.2525C277.65 67.2525 343.794 122.832 348.413 122.115C352.387 121.498 354.374 98.0741 346.426 79.581C337.821 59.5571 347.751 56.1568 347.751 56.1568ZM454.213 21.6365C476.459 62.7553 475.101 101.635 474.924 105.738C475.101 109.313 476.459 148.245 454.213 189.363C454.213 189.363 448.418 195.528 439.808 191.829C431.199 188.131 434.179 178.268 434.179 178.268C434.179 178.268 452.206 145.874 451.729 106.087L451.738 105.471C452.206 65.6787 434.179 32.7322 434.179 32.7322C434.179 32.7322 431.199 22.8692 439.808 19.1705C448.418 15.4723 454.213 21.6365 454.213 21.6365ZM411.067 40.1297C429.212 70.9507 427.982 101.635 427.804 105.738C427.982 109.313 429.212 138.759 411.091 172.074C411.091 172.074 405.297 178.239 396.687 174.54C388.077 170.842 391.057 160.979 391.057 160.979C391.057 160.979 402.721 145.539 404.61 106.087L404.618 105.471C403.383 66.0192 391.033 51.2254 391.033 51.2254C391.033 51.2254 388.053 41.3624 396.662 37.6637C405.272 33.9649 411.067 40.1297 411.067 40.1297Z" fill="#2D2C2B"/>
</g>
</g>
</g>
</g>
<g id="startBottom">
<rect x="5" y="202" width="470" height="122" rx="5" fill="#171616"/>
<g id="Keybordicon" clip-path="url(#clip1_102_1446)">
<g id="Frame 13">
<g id="Top" clip-path="url(#clip2_102_1446)">
<g id="bogstav 5" filter="url(#filter1_d_102_1446)">
<rect x="10" y="190.5" width="35" height="43" rx="3" fill="#2D2C2B"/>
<path id="y" d="M25.9592 222.5C25.7432 222.5 25.6352 222.368 25.6352 222.104V214.4L20.6672 199.388C20.5712 199.076 20.6552 198.92 20.9192 198.92H24.4112C24.6032 198.92 24.7112 199.016 24.7352 199.208L26.5352 206.336C26.7032 207.008 26.8712 207.704 27.0392 208.424C27.2072 209.12 27.3632 209.816 27.5072 210.512H27.5432C27.7112 209.816 27.8672 209.12 28.0112 208.424C28.1792 207.704 28.3472 206.996 28.5152 206.3L30.3152 199.208C30.3392 199.016 30.4472 198.92 30.6392 198.92H34.0592C34.3232 198.92 34.4072 199.076 34.3112 199.388L29.3792 214.364V222.104C29.3792 222.368 29.2832 222.5 29.0912 222.5H25.9592Z" fill="#171616"/>
</g>
<g id="bogstav 6" filter="url(#filter2_d_102_1446)">
<rect x="55" y="190.5" width="35" height="43" rx="3" fill="#2D2C2B"/>
<path id="u" d="M72.4897 222.716C70.3297 222.716 68.7217 222.068 67.6657 220.772C66.6337 219.452 66.1177 217.472 66.1177 214.832V199.28C66.1177 199.04 66.2257 198.92 66.4417 198.92H69.5737C69.7897 198.92 69.8977 199.04 69.8977 199.28V214.724C69.8977 216.356 70.1017 217.52 70.5097 218.216C70.9177 218.912 71.5777 219.26 72.4897 219.26C73.4257 219.26 74.0977 218.924 74.5057 218.252C74.9137 217.556 75.1177 216.38 75.1177 214.724V199.28C75.1177 199.04 75.2257 198.92 75.4417 198.92H78.5737C78.7897 198.92 78.8977 199.04 78.8977 199.28V214.832C78.8977 217.472 78.3577 219.452 77.2777 220.772C76.2217 222.068 74.6257 222.716 72.4897 222.716Z" fill="#171616"/>
</g>
<g id="bogstav 7" filter="url(#filter3_d_102_1446)">
<rect x="100" y="190.5" width="35" height="43" rx="3" fill="#2D2C2B"/>
<path id="i" d="M115.927 222.5C115.711 222.5 115.603 222.368 115.603 222.104V199.316C115.603 199.052 115.711 198.92 115.927 198.92H119.059C119.275 198.92 119.383 199.052 119.383 199.316V222.104C119.383 222.368 119.275 222.5 119.059 222.5H115.927Z" fill="#171616"/>
</g>
<g id="bogstav 8" filter="url(#filter4_d_102_1446)">
<rect x="145" y="190.5" width="35" height="43" rx="3" fill="#2D2C2B"/>
<path id="o" d="M162.507 222.716C160.371 222.716 158.739 222.092 157.611 220.844C156.507 219.596 155.955 217.736 155.955 215.264V206.192C155.955 203.696 156.507 201.824 157.611 200.576C158.739 199.328 160.371 198.704 162.507 198.704C164.619 198.704 166.239 199.328 167.367 200.576C168.495 201.824 169.059 203.696 169.059 206.192V215.264C169.059 217.736 168.495 219.596 167.367 220.844C166.239 222.092 164.619 222.716 162.507 222.716ZM162.507 219.26C163.443 219.26 164.139 218.936 164.595 218.288C165.075 217.64 165.315 216.572 165.315 215.084V206.372C165.315 204.86 165.075 203.78 164.595 203.132C164.139 202.484 163.443 202.16 162.507 202.16C161.571 202.16 160.863 202.484 160.383 203.132C159.927 203.78 159.699 204.86 159.699 206.372V215.084C159.699 216.572 159.927 217.64 160.383 218.288C160.863 218.936 161.571 219.26 162.507 219.26Z" fill="#171616"/>
</g>
<g id="bogstav 9" filter="url(#filter5_d_102_1446)">
<rect x="190" y="190.5" width="35" height="43" rx="3" fill="#2D2C2B"/>
<path id="p" d="M202.534 222.5C202.318 222.5 202.21 222.368 202.21 222.104V199.316C202.21 199.052 202.318 198.92 202.534 198.92H206.962C209.218 198.92 210.874 199.532 211.93 200.756C213.01 201.98 213.55 203.9 213.55 206.516C213.55 208.94 212.998 210.8 211.894 212.096C210.814 213.392 209.218 214.04 207.106 214.04H205.99V222.104C205.99 222.368 205.882 222.5 205.666 222.5H202.534ZM205.99 210.62H206.962C207.946 210.62 208.654 210.284 209.086 209.612C209.542 208.94 209.77 207.92 209.77 206.552C209.77 205.04 209.542 203.96 209.086 203.312C208.654 202.664 207.97 202.34 207.034 202.34H205.99V210.62Z" fill="#171616"/>
</g>
</g>
<g id="Midt" clip-path="url(#clip3_102_1446)">
<g id="bogstav 4" filter="url(#filter6_d_102_1446)">
<rect x="-12.5" y="240.5" width="35" height="43" rx="3" fill="#2D2C2B"/>
<path id="g" d="M3.87542 272.716C2.07542 272.716 0.707422 272.104 -0.228578 270.88C-1.16458 269.656 -1.63258 267.796 -1.63258 265.3V256.444C-1.63258 253.924 -1.08058 252.004 0.0234219 250.684C1.15142 249.364 2.77142 248.704 4.88342 248.704C7.04342 248.704 8.67542 249.388 9.77942 250.756C10.8834 252.124 11.3514 253.984 11.1834 256.336C11.1594 256.6 11.0514 256.732 10.8594 256.732L7.72742 256.696C7.51142 256.696 7.41542 256.576 7.43942 256.336C7.55942 255.016 7.40342 253.996 6.97142 253.276C6.53942 252.532 5.85542 252.16 4.91942 252.16C3.95942 252.16 3.25142 252.508 2.79542 253.204C2.33942 253.9 2.11142 254.992 2.11142 256.48V265.012C2.11142 266.548 2.30342 267.64 2.68742 268.288C3.09542 268.936 3.79142 269.26 4.77542 269.26C5.68742 269.26 6.38342 268.9 6.86342 268.18C7.34342 267.436 7.58342 266.32 7.58342 264.832V263.212H5.09942C4.88342 263.212 4.77542 263.08 4.77542 262.816V260.692C4.77542 260.428 4.88342 260.296 5.09942 260.296H10.9314C11.1474 260.296 11.2554 260.428 11.2554 260.692V267.28C11.2554 268.432 11.2674 269.38 11.2914 270.124C11.3394 270.844 11.3994 271.492 11.4714 272.068C11.5194 272.356 11.4234 272.5 11.1834 272.5H8.73542C8.51942 272.5 8.39942 272.392 8.37542 272.176C8.32742 271.888 8.27942 271.552 8.23142 271.168C8.20742 270.76 8.19542 270.268 8.19542 269.692H8.12342C7.76342 270.628 7.24742 271.372 6.57542 271.924C5.90342 272.452 5.00342 272.716 3.87542 272.716Z" fill="#171616"/>
</g>
<g id="bogstav 5_2" filter="url(#filter7_d_102_1446)">
<rect x="32.5" y="240.5" width="35" height="43" rx="3" fill="#2D2C2B"/>
<path id="h" d="M43.91 272.5C43.67 272.5 43.55 272.368 43.55 272.104V249.316C43.55 249.052 43.67 248.92 43.91 248.92H46.97C47.21 248.92 47.33 249.052 47.33 249.316V258.748H52.694V249.316C52.694 249.052 52.802 248.92 53.018 248.92H56.078C56.318 248.92 56.438 249.052 56.438 249.316V272.104C56.438 272.368 56.318 272.5 56.078 272.5H53.018C52.802 272.5 52.694 272.368 52.694 272.104V262.132H47.33V272.104C47.33 272.368 47.21 272.5 46.97 272.5H43.91Z" fill="#171616"/>
</g>
<g id="bogstav 6_2" filter="url(#filter8_d_102_1446)">
<rect x="77.5" y="240.5" width="35" height="43" rx="3" fill="#2D2C2B"/>
<path id="j" d="M92.3827 277.864C92.1667 277.96 92.0227 277.876 91.9507 277.612L91.1587 275.056C91.1107 274.912 91.1107 274.792 91.1587 274.696C91.1827 274.6 91.2427 274.54 91.3387 274.516C91.7467 274.348 92.0827 274.096 92.3467 273.76C92.6107 273.448 92.8027 272.98 92.9227 272.356C93.0427 271.708 93.1027 270.844 93.1027 269.764V249.316C93.1027 249.052 93.2107 248.92 93.4267 248.92H96.5587C96.7747 248.92 96.8827 249.052 96.8827 249.316V269.62C96.8827 271.372 96.7147 272.812 96.3787 273.94C96.0427 275.068 95.5387 275.944 94.8667 276.568C94.1947 277.192 93.3667 277.624 92.3827 277.864Z" fill="#171616"/>
</g>
<g id="bogstav 7_2" filter="url(#filter9_d_102_1446)">
<rect x="122.5" y="240.5" width="35" height="43" rx="3" fill="#2D2C2B"/>
<path id="k" d="M134.454 274C134.238 274 134.13 273.868 134.13 273.604V250.816C134.13 250.552 134.238 250.42 134.454 250.42H137.586C137.802 250.42 137.91 250.552 137.91 250.816V256.72C137.91 257.2 137.898 257.752 137.874 258.376C137.85 258.976 137.826 259.576 137.802 260.176C137.802 260.752 137.778 261.292 137.73 261.796H137.802C138.066 261.052 138.342 260.26 138.63 259.42C138.942 258.556 139.302 257.668 139.71 256.756L142.662 250.636C142.71 250.492 142.83 250.42 143.022 250.42H146.514C146.802 250.42 146.862 250.576 146.694 250.888L142.194 260.14L147.306 273.532C147.45 273.844 147.378 274 147.09 274H143.382C143.19 274 143.07 273.916 143.022 273.748L139.566 263.704L137.91 266.836V273.604C137.91 273.868 137.802 274 137.586 274H134.454Z" fill="#171616"/>
</g>
<g id="bogstav 8_2" filter="url(#filter10_d_102_1446)">
<rect x="167.5" y="240.5" width="35" height="43" rx="3" fill="#2D2C2B"/>
<path id="l" d="M180.967 272.5C180.727 272.5 180.607 272.368 180.607 272.104V249.316C180.607 249.052 180.727 248.92 180.967 248.92H184.027C184.267 248.92 184.387 249.052 184.387 249.316V269.08H190.111C190.351 269.08 190.471 269.212 190.471 269.476V272.104C190.471 272.368 190.351 272.5 190.111 272.5H180.967Z" fill="#171616"/>
</g>
</g>
<g id="Bund" filter="url(#filter11_d_102_1446)">
<g clip-path="url(#clip4_102_1446)">
<g id="bogstav 4_2" filter="url(#filter12_d_102_1446)">
<rect x="10" y="290.5" width="35" height="43" rx="3" fill="#2D2C2B"/>
<path id="b" d="M22.237 322.5C21.973 322.5 21.841 322.368 21.841 322.104V299.316C21.841 299.052 21.973 298.92 22.237 298.92H26.845C28.957 298.92 30.529 299.412 31.561 300.396C32.593 301.356 33.109 302.82 33.109 304.788C33.109 306.036 32.881 307.092 32.425 307.956C31.969 308.82 31.273 309.504 30.337 310.008V310.08C31.465 310.44 32.317 311.1 32.893 312.06C33.493 313.02 33.793 314.244 33.793 315.732C33.793 317.988 33.241 319.68 32.137 320.808C31.057 321.936 29.401 322.5 27.169 322.5H22.237ZM25.621 319.26H27.133C28.117 319.26 28.849 318.948 29.329 318.324C29.833 317.7 30.085 316.752 30.085 315.48C30.085 314.28 29.833 313.38 29.329 312.78C28.849 312.18 28.129 311.88 27.169 311.88H25.621V319.26ZM25.621 308.892H26.917C27.733 308.892 28.345 308.592 28.753 307.992C29.185 307.392 29.401 306.516 29.401 305.364C29.401 304.236 29.197 303.42 28.789 302.916C28.381 302.412 27.733 302.16 26.845 302.16H25.621V308.892Z" fill="#171616"/>
</g>
<g id="bogstav 5_3" filter="url(#filter13_d_102_1446)">
<rect x="55" y="290.5" width="35" height="43" rx="3" fill="#2D2C2B"/>
<path id="n" d="M66.3564 322.5C66.1404 322.5 66.0324 322.368 66.0324 322.104V299.316C66.0324 299.052 66.1404 298.92 66.3564 298.92H70.4964C70.6884 298.92 70.8084 299.016 70.8564 299.208L74.1324 311.088C74.3004 311.688 74.4684 312.36 74.6364 313.104C74.8284 313.848 75.0084 314.604 75.1764 315.372C75.3684 316.116 75.5124 316.776 75.6084 317.352H75.6804C75.6564 316.872 75.6204 316.32 75.5724 315.696C75.5484 315.048 75.5124 314.388 75.4644 313.716C75.4404 313.02 75.4164 312.36 75.3924 311.736C75.3924 311.088 75.3924 310.524 75.3924 310.044V299.28C75.3924 299.04 75.5004 298.92 75.7164 298.92H78.6324C78.8484 298.92 78.9564 299.04 78.9564 299.28V322.104C78.9564 322.368 78.8484 322.5 78.6324 322.5H74.5284C74.3604 322.5 74.2404 322.416 74.1684 322.248L70.8924 310.62C70.5804 309.492 70.3044 308.376 70.0644 307.272C69.8244 306.144 69.6084 305.1 69.4164 304.14H69.3444C69.3924 304.836 69.4284 305.652 69.4524 306.588C69.5004 307.524 69.5364 308.46 69.5604 309.396C69.5844 310.308 69.5964 311.112 69.5964 311.808V322.104C69.5964 322.368 69.5004 322.5 69.3084 322.5H66.3564Z" fill="#171616"/>
</g>
<g id="bogstav 6_3" filter="url(#filter14_d_102_1446)">
<rect x="100" y="290.5" width="35" height="43" rx="3" fill="#2D2C2B"/>
<path id="m" d="M109.558 322.5C109.342 322.5 109.234 322.368 109.234 322.104L109.522 299.316C109.522 299.052 109.642 298.92 109.882 298.92H113.806C114.046 298.92 114.178 299.016 114.202 299.208L117.478 311.844L120.79 299.208C120.814 299.016 120.946 298.92 121.186 298.92H125.11C125.326 298.92 125.434 299.052 125.434 299.316L125.758 322.104C125.758 322.368 125.65 322.5 125.434 322.5H122.374C122.158 322.5 122.05 322.368 122.05 322.104L121.942 310.44C121.918 309.384 121.918 308.388 121.942 307.452C121.99 306.492 122.038 305.616 122.086 304.824H122.05C121.882 305.568 121.69 306.324 121.474 307.092C121.258 307.836 121.03 308.58 120.79 309.324L117.91 319.188C117.862 319.38 117.742 319.476 117.55 319.476H117.406C117.238 319.476 117.13 319.38 117.082 319.188L114.166 309.324C113.926 308.58 113.698 307.836 113.482 307.092C113.29 306.324 113.11 305.568 112.942 304.824H112.87C112.942 305.616 112.99 306.492 113.014 307.452C113.062 308.388 113.074 309.384 113.05 310.44L112.942 322.104C112.942 322.368 112.834 322.5 112.618 322.5H109.558Z" fill="#171616"/>
</g>
<g id="Slet m. BG" filter="url(#filter15_d_102_1446)">
<rect x="145" y="290.5" width="35" height="43" rx="3" fill="#2D2C2B"/>
<g id="Icon / material-icon / backspace_black_24dp">
<path id="fill" d="M173.75 301.875H156.875C156.099 301.875 155.491 302.269 155.086 302.865L149 312L155.086 321.124C155.491 321.72 156.099 322.125 156.875 322.125H173.75C174.988 322.125 176 321.113 176 319.875V304.125C176 302.887 174.988 301.875 173.75 301.875ZM173.75 319.875H156.954L151.7 312L156.942 304.125H173.75V319.875ZM160.711 317.625L164.75 313.586L168.789 317.625L170.375 316.039L166.336 312L170.375 307.961L168.789 306.375L164.75 310.414L160.711 306.375L159.125 307.961L163.164 312L159.125 316.039L160.711 317.625Z" fill="#171616"/>
</g>
</g>
</g>
</g>
</g>
</g>
<g id="textRight">
<g id="keyboardTitle">
<path id="keyboard" d="M240.439 289C240.065 289 239.879 288.76 239.879 288.28V237.32C239.879 236.84 240.065 236.6 240.439 236.6H244.519C244.892 236.6 245.079 236.84 245.079 237.32V254.28C245.079 255.4 245.052 256.547 244.999 257.72C244.999 258.84 244.972 259.96 244.919 261.08C244.919 262.147 244.892 263.267 244.839 264.44H244.919C245.612 262.68 246.332 260.973 247.079 259.32C247.825 257.667 248.599 256.013 249.399 254.36L258.039 236.92C258.092 236.707 258.305 236.6 258.679 236.6H263.399C263.932 236.6 264.039 236.893 263.719 237.48L252.999 257.72L264.759 288.12C265.025 288.707 264.919 289 264.439 289H259.559C259.239 289 259.025 288.84 258.919 288.52L249.719 263.72L245.079 272.44V288.28C245.079 288.76 244.892 289 244.519 289H240.439ZM269.425 289C268.998 289 268.785 288.76 268.785 288.28V237.32C268.785 236.84 268.972 236.6 269.345 236.6H287.425C287.798 236.6 287.985 236.84 287.985 237.32V240.92C287.985 241.4 287.798 241.64 287.425 241.64H273.985V259.88H286.305C286.678 259.88 286.865 260.12 286.865 260.6V263.96C286.865 264.44 286.678 264.68 286.305 264.68H273.985V283.96H287.425C287.798 283.96 287.985 284.2 287.985 284.68V288.28C287.985 288.76 287.798 289 287.425 289H269.425ZM302.946 289C302.572 289 302.386 288.76 302.386 288.28V271.08L291.986 237.48C291.826 236.893 291.959 236.6 292.386 236.6H297.106C297.426 236.6 297.612 236.76 297.666 237.08L302.546 255.16C302.972 256.653 303.372 258.2 303.746 259.8C304.172 261.347 304.572 262.893 304.946 264.44H305.026C305.452 262.893 305.879 261.347 306.306 259.8C306.732 258.2 307.132 256.627 307.506 255.08L312.386 237.08C312.492 236.76 312.679 236.6 312.946 236.6H317.506C317.932 236.6 318.092 236.893 317.986 237.48L307.586 271V288.28C307.586 288.76 307.426 289 307.106 289H302.946ZM323.568 289C323.088 289 322.848 288.76 322.848 288.28V237.32C322.848 236.84 323.088 236.6 323.568 236.6H331.248C335.621 236.6 338.821 237.667 340.848 239.8C342.928 241.88 343.968 245.08 343.968 249.4C343.968 252.227 343.488 254.627 342.528 256.6C341.621 258.573 340.234 260.12 338.368 261.24V261.4C340.661 262.147 342.394 263.613 343.568 265.8C344.794 267.987 345.408 270.813 345.408 274.28C345.408 279.08 344.314 282.733 342.128 285.24C339.941 287.747 336.714 289 332.448 289H323.568ZM328.048 283.96H332.288C334.954 283.96 336.928 283.16 338.208 281.56C339.541 279.907 340.208 277.347 340.208 273.88C340.208 270.573 339.568 268.147 338.288 266.6C337.061 265.053 335.141 264.28 332.528 264.28H328.048V283.96ZM328.048 259.4H331.968C334.208 259.4 335.888 258.627 337.008 257.08C338.181 255.48 338.768 253.16 338.768 250.12C338.768 247.08 338.208 244.92 337.088 243.64C335.968 242.307 334.181 241.64 331.728 241.64H328.048V259.4ZM363.748 289.48C359.748 289.48 356.655 288.253 354.468 285.8C352.335 283.347 351.268 279.64 351.268 274.68V251.08C351.268 246.013 352.335 242.253 354.468 239.8C356.655 237.347 359.748 236.12 363.748 236.12C367.748 236.12 370.841 237.347 373.028 239.8C375.215 242.253 376.308 246.013 376.308 251.08V274.68C376.308 279.64 375.215 283.347 373.028 285.8C370.841 288.253 367.748 289.48 363.748 289.48ZM363.748 284.44C366.148 284.44 367.961 283.64 369.188 282.04C370.468 280.387 371.108 277.8 371.108 274.28V251.4C371.108 247.827 370.468 245.24 369.188 243.64C367.961 241.987 366.148 241.16 363.748 241.16C361.401 241.16 359.588 241.987 358.308 243.64C357.081 245.24 356.468 247.827 356.468 251.4V274.28C356.468 277.8 357.081 280.387 358.308 282.04C359.588 283.64 361.401 284.44 363.748 284.44ZM380.101 289C379.728 289 379.568 288.733 379.621 288.2L390.021 237.16C390.075 236.787 390.315 236.6 390.741 236.6H396.341C396.768 236.6 397.008 236.787 397.061 237.16L407.541 288.2C407.595 288.733 407.435 289 407.061 289H402.661C402.341 289 402.128 288.84 402.021 288.52L395.541 253.88C395.168 252.013 394.795 250.173 394.421 248.36C394.101 246.493 393.808 244.627 393.541 242.76H393.381C393.115 244.627 392.821 246.493 392.501 248.36C392.235 250.173 391.915 252.04 391.541 253.96L385.061 288.52C385.008 288.84 384.821 289 384.501 289H380.101ZM386.501 276.12L387.461 271.08H399.461L400.581 276.12H386.501ZM412.079 289C411.706 289 411.519 288.76 411.519 288.28V237.32C411.519 236.84 411.706 236.6 412.079 236.6H420.879C425.306 236.6 428.533 237.773 430.559 240.12C432.639 242.467 433.679 246.04 433.679 250.84C433.679 254.84 433.093 258.013 431.919 260.36C430.799 262.653 429.226 264.2 427.199 265V265.08L435.439 288.12C435.546 288.707 435.359 289 434.879 289H430.479C430.213 289 429.999 288.84 429.839 288.52L422.079 266.2H416.719V288.28C416.719 288.76 416.533 289 416.159 289H412.079ZM416.719 261.4H421.039C423.706 261.4 425.599 260.573 426.719 258.92C427.893 257.213 428.479 254.653 428.479 251.24C428.479 247.773 427.839 245.32 426.559 243.88C425.333 242.387 423.413 241.64 420.799 241.64H416.719V261.4ZM442.005 289C441.525 289 441.285 288.76 441.285 288.28V237.32C441.285 236.84 441.498 236.6 441.925 236.6H449.765C455.258 236.6 459.312 238.333 461.925 241.8C464.592 245.213 465.925 250.493 465.925 257.64V265.56C465.925 273.507 464.645 279.4 462.085 283.24C459.525 287.08 455.552 289 450.165 289H442.005ZM446.485 283.96H449.765C453.712 283.96 456.512 282.547 458.165 279.72C459.872 276.84 460.725 272.253 460.725 265.96V257.48C460.725 251.987 459.845 247.987 458.085 245.48C456.325 242.92 453.472 241.64 449.525 241.64H446.485V283.96Z" fill="#F9F8F5"/>
</g>
<g id="firmwareTxt">
<path id="v1.2" d="M446.024 319C445.954 319 445.905 318.958 445.877 318.874L443.231 305.455C443.217 305.315 443.259 305.245 443.357 305.245H444.491C444.589 305.245 444.645 305.287 444.659 305.371L446.339 314.422C446.423 314.912 446.5 315.409 446.57 315.913C446.654 316.403 446.731 316.893 446.801 317.383H446.843C446.913 316.893 446.99 316.403 447.074 315.913C447.158 315.409 447.242 314.912 447.326 314.422L449.006 305.392C449.02 305.294 449.069 305.245 449.153 305.245H450.308C450.406 305.245 450.448 305.315 450.434 305.455L447.788 318.853C447.76 318.951 447.711 319 447.641 319H446.024ZM451.321 319C451.195 319 451.132 318.937 451.132 318.811V317.845C451.132 317.719 451.195 317.656 451.321 317.656H453.19L453.211 306.904L451.363 307.639C451.321 307.653 451.279 307.653 451.237 307.639C451.209 307.611 451.195 307.569 451.195 307.513V306.526C451.195 306.442 451.237 306.379 451.321 306.337L454.03 305.224C454.1 305.182 454.17 305.161 454.24 305.161H454.387C454.513 305.161 454.576 305.224 454.576 305.35V317.656H456.277C456.403 317.656 456.466 317.719 456.466 317.845V318.811C456.466 318.937 456.403 319 456.277 319H451.321ZM458.81 319.126C458.516 319.126 458.285 319.049 458.117 318.895C457.963 318.741 457.886 318.51 457.886 318.202V318.034C457.886 317.726 457.963 317.495 458.117 317.341C458.285 317.187 458.516 317.11 458.81 317.11C459.118 317.11 459.349 317.187 459.503 317.341C459.657 317.495 459.734 317.726 459.734 318.034V318.202C459.734 318.51 459.657 318.741 459.503 318.895C459.349 319.049 459.118 319.126 458.81 319.126ZM462.053 319C461.927 319 461.864 318.937 461.864 318.811V317.635C461.864 316.795 461.962 316.074 462.158 315.472C462.354 314.87 462.606 314.345 462.914 313.897C463.222 313.435 463.551 313.015 463.901 312.637C464.251 312.259 464.58 311.881 464.888 311.503C465.196 311.111 465.448 310.691 465.644 310.243C465.84 309.781 465.938 309.242 465.938 308.626V308.227C465.938 307.569 465.833 307.107 465.623 306.841C465.427 306.575 465.091 306.442 464.615 306.442C464.111 306.442 463.761 306.631 463.565 307.009C463.369 307.387 463.278 307.926 463.292 308.626C463.292 308.752 463.229 308.815 463.103 308.815H462.158C462.032 308.815 461.969 308.752 461.969 308.626C461.955 307.464 462.165 306.589 462.599 306.001C463.047 305.413 463.726 305.119 464.636 305.119C465.518 305.119 466.183 305.378 466.631 305.896C467.093 306.414 467.324 307.226 467.324 308.332C467.324 309.172 467.226 309.879 467.03 310.453C466.834 311.027 466.582 311.524 466.274 311.944C465.98 312.35 465.658 312.735 465.308 313.099C464.958 313.463 464.629 313.848 464.321 314.254C464.027 314.646 463.782 315.115 463.586 315.661C463.39 316.207 463.292 316.872 463.292 317.656H467.114C467.226 317.656 467.282 317.719 467.282 317.845V318.811C467.282 318.937 467.226 319 467.114 319H462.053Z" fill="#BDBAB2"/>
<rect id="firmware" opacity="0.01" x="440" y="302" width="32" height="20" fill="#D9D9D9"/>
</g>
</g>
</g>
<g id="nfcLogoArrow">
<path id="Vector 33" d="M336.5 121.667C333.554 121.667 331.167 124.054 331.167 127C331.167 129.946 333.554 132.333 336.5 132.333C339.446 132.333 341.833 129.946 341.833 127C341.833 124.054 339.446 121.667 336.5 121.667ZM336.5 127H337.5V0L336.5 0L335.5 0V127H336.5Z" fill="#F4682C"/>
</g>
<g id="firmwareArrow">
<path id="Vector 36" d="M429.5 317.333C432.446 317.333 434.833 314.946 434.833 312C434.833 309.054 432.446 306.667 429.5 306.667C426.554 306.667 424.167 309.054 424.167 312C424.167 314.946 426.554 317.333 429.5 317.333ZM429.5 312H428.5V338H429.5H430.5V312H429.5Z" fill="#F4682C"/>
</g>
<g id="keyboardArrow">
<path id="Vector 33_2" d="M123.95 278.333C126.895 278.328 129.279 275.936 129.274 272.99C129.268 270.045 126.876 267.661 123.931 267.667C120.985 267.672 118.602 270.064 118.607 273.01C118.612 275.955 121.004 278.339 123.95 278.333ZM123.94 273L122.94 273.002L123.059 338.002L124.059 338L125.059 337.998L124.94 272.998L123.94 273Z" fill="#F4682C"/>
</g>
<g id="scanningArrow">
<path id="Vector 33_3" d="M161.5 169.333C164.446 169.333 166.833 166.946 166.833 164C166.833 161.054 164.446 158.667 161.5 158.667C158.554 158.667 156.167 161.054 156.167 164C156.167 166.946 158.554 169.333 161.5 169.333ZM161.5 164H160.5V338H161.5H162.5V164H161.5Z" fill="#F4682C"/>
</g>
</g>
<defs>
<filter id="filter0_d_102_1446" x="251" y="17.9889" width="228" height="183.022" filterUnits="userSpaceOnUse" color-interpolation-filters="sRGB">
<feFlood flood-opacity="0" result="BackgroundImageFix"/>
<feColorMatrix in="SourceAlpha" type="matrix" values="0 0 0 0 0 0 0 0 0 0 0 0 0 0 0 0 0 0 127 0" result="hardAlpha"/>
<feOffset dy="4"/>
<feGaussianBlur stdDeviation="2"/>
<feComposite in2="hardAlpha" operator="out"/>
<feColorMatrix type="matrix" values="0 0 0 0 0 0 0 0 0 0 0 0 0 0 0 0 0 0 0.25 0"/>
<feBlend mode="normal" in2="BackgroundImageFix" result="effect1_dropShadow_102_1446"/>
<feBlend mode="normal" in="SourceGraphic" in2="effect1_dropShadow_102_1446" result="shape"/>
</filter>
<filter id="filter1_d_102_1446" x="6" y="190.5" width="43" height="51" filterUnits="userSpaceOnUse" color-interpolation-filters="sRGB">
<feFlood flood-opacity="0" result="BackgroundImageFix"/>
<feColorMatrix in="SourceAlpha" type="matrix" values="0 0 0 0 0 0 0 0 0 0 0 0 0 0 0 0 0 0 127 0" result="hardAlpha"/>
<feOffset dy="4"/>
<feGaussianBlur stdDeviation="2"/>
<feComposite in2="hardAlpha" operator="out"/>
<feColorMatrix type="matrix" values="0 0 0 0 0 0 0 0 0 0 0 0 0 0 0 0 0 0 0.25 0"/>
<feBlend mode="normal" in2="BackgroundImageFix" result="effect1_dropShadow_102_1446"/>
<feBlend mode="normal" in="SourceGraphic" in2="effect1_dropShadow_102_1446" result="shape"/>
</filter>
<filter id="filter2_d_102_1446" x="51" y="190.5" width="43" height="51" filterUnits="userSpaceOnUse" color-interpolation-filters="sRGB">
<feFlood flood-opacity="0" result="BackgroundImageFix"/>
<feColorMatrix in="SourceAlpha" type="matrix" values="0 0 0 0 0 0 0 0 0 0 0 0 0 0 0 0 0 0 127 0" result="hardAlpha"/>
<feOffset dy="4"/>
<feGaussianBlur stdDeviation="2"/>
<feComposite in2="hardAlpha" operator="out"/>
<feColorMatrix type="matrix" values="0 0 0 0 0 0 0 0 0 0 0 0 0 0 0 0 0 0 0.25 0"/>
<feBlend mode="normal" in2="BackgroundImageFix" result="effect1_dropShadow_102_1446"/>
<feBlend mode="normal" in="SourceGraphic" in2="effect1_dropShadow_102_1446" result="shape"/>
</filter>
<filter id="filter3_d_102_1446" x="96" y="190.5" width="43" height="51" filterUnits="userSpaceOnUse" color-interpolation-filters="sRGB">
<feFlood flood-opacity="0" result="BackgroundImageFix"/>
<feColorMatrix in="SourceAlpha" type="matrix" values="0 0 0 0 0 0 0 0 0 0 0 0 0 0 0 0 0 0 127 0" result="hardAlpha"/>
<feOffset dy="4"/>
<feGaussianBlur stdDeviation="2"/>
<feComposite in2="hardAlpha" operator="out"/>
<feColorMatrix type="matrix" values="0 0 0 0 0 0 0 0 0 0 0 0 0 0 0 0 0 0 0.25 0"/>
<feBlend mode="normal" in2="BackgroundImageFix" result="effect1_dropShadow_102_1446"/>
<feBlend mode="normal" in="SourceGraphic" in2="effect1_dropShadow_102_1446" result="shape"/>
</filter>
<filter id="filter4_d_102_1446" x="141" y="190.5" width="43" height="51" filterUnits="userSpaceOnUse" color-interpolation-filters="sRGB">
<feFlood flood-opacity="0" result="BackgroundImageFix"/>
<feColorMatrix in="SourceAlpha" type="matrix" values="0 0 0 0 0 0 0 0 0 0 0 0 0 0 0 0 0 0 127 0" result="hardAlpha"/>
<feOffset dy="4"/>
<feGaussianBlur stdDeviation="2"/>
<feComposite in2="hardAlpha" operator="out"/>
<feColorMatrix type="matrix" values="0 0 0 0 0 0 0 0 0 0 0 0 0 0 0 0 0 0 0.25 0"/>
<feBlend mode="normal" in2="BackgroundImageFix" result="effect1_dropShadow_102_1446"/>
<feBlend mode="normal" in="SourceGraphic" in2="effect1_dropShadow_102_1446" result="shape"/>
</filter>
<filter id="filter5_d_102_1446" x="186" y="190.5" width="43" height="51" filterUnits="userSpaceOnUse" color-interpolation-filters="sRGB">
<feFlood flood-opacity="0" result="BackgroundImageFix"/>
<feColorMatrix in="SourceAlpha" type="matrix" values="0 0 0 0 0 0 0 0 0 0 0 0 0 0 0 0 0 0 127 0" result="hardAlpha"/>
<feOffset dy="4"/>
<feGaussianBlur stdDeviation="2"/>
<feComposite in2="hardAlpha" operator="out"/>
<feColorMatrix type="matrix" values="0 0 0 0 0 0 0 0 0 0 0 0 0 0 0 0 0 0 0.25 0"/>
<feBlend mode="normal" in2="BackgroundImageFix" result="effect1_dropShadow_102_1446"/>
<feBlend mode="normal" in="SourceGraphic" in2="effect1_dropShadow_102_1446" result="shape"/>
</filter>
<filter id="filter6_d_102_1446" x="-16.5" y="240.5" width="43" height="51" filterUnits="userSpaceOnUse" color-interpolation-filters="sRGB">
<feFlood flood-opacity="0" result="BackgroundImageFix"/>
<feColorMatrix in="SourceAlpha" type="matrix" values="0 0 0 0 0 0 0 0 0 0 0 0 0 0 0 0 0 0 127 0" result="hardAlpha"/>
<feOffset dy="4"/>
<feGaussianBlur stdDeviation="2"/>
<feComposite in2="hardAlpha" operator="out"/>
<feColorMatrix type="matrix" values="0 0 0 0 0 0 0 0 0 0 0 0 0 0 0 0 0 0 0.25 0"/>
<feBlend mode="normal" in2="BackgroundImageFix" result="effect1_dropShadow_102_1446"/>
<feBlend mode="normal" in="SourceGraphic" in2="effect1_dropShadow_102_1446" result="shape"/>
</filter>
<filter id="filter7_d_102_1446" x="28.5" y="240.5" width="43" height="51" filterUnits="userSpaceOnUse" color-interpolation-filters="sRGB">
<feFlood flood-opacity="0" result="BackgroundImageFix"/>
<feColorMatrix in="SourceAlpha" type="matrix" values="0 0 0 0 0 0 0 0 0 0 0 0 0 0 0 0 0 0 127 0" result="hardAlpha"/>
<feOffset dy="4"/>
<feGaussianBlur stdDeviation="2"/>
<feComposite in2="hardAlpha" operator="out"/>
<feColorMatrix type="matrix" values="0 0 0 0 0 0 0 0 0 0 0 0 0 0 0 0 0 0 0.25 0"/>
<feBlend mode="normal" in2="BackgroundImageFix" result="effect1_dropShadow_102_1446"/>
<feBlend mode="normal" in="SourceGraphic" in2="effect1_dropShadow_102_1446" result="shape"/>
</filter>
<filter id="filter8_d_102_1446" x="73.5" y="240.5" width="43" height="51" filterUnits="userSpaceOnUse" color-interpolation-filters="sRGB">
<feFlood flood-opacity="0" result="BackgroundImageFix"/>
<feColorMatrix in="SourceAlpha" type="matrix" values="0 0 0 0 0 0 0 0 0 0 0 0 0 0 0 0 0 0 127 0" result="hardAlpha"/>
<feOffset dy="4"/>
<feGaussianBlur stdDeviation="2"/>
<feComposite in2="hardAlpha" operator="out"/>
<feColorMatrix type="matrix" values="0 0 0 0 0 0 0 0 0 0 0 0 0 0 0 0 0 0 0.25 0"/>
<feBlend mode="normal" in2="BackgroundImageFix" result="effect1_dropShadow_102_1446"/>
<feBlend mode="normal" in="SourceGraphic" in2="effect1_dropShadow_102_1446" result="shape"/>
</filter>
<filter id="filter9_d_102_1446" x="118.5" y="240.5" width="43" height="51" filterUnits="userSpaceOnUse" color-interpolation-filters="sRGB">
<feFlood flood-opacity="0" result="BackgroundImageFix"/>
<feColorMatrix in="SourceAlpha" type="matrix" values="0 0 0 0 0 0 0 0 0 0 0 0 0 0 0 0 0 0 127 0" result="hardAlpha"/>
<feOffset dy="4"/>
<feGaussianBlur stdDeviation="2"/>
<feComposite in2="hardAlpha" operator="out"/>
<feColorMatrix type="matrix" values="0 0 0 0 0 0 0 0 0 0 0 0 0 0 0 0 0 0 0.25 0"/>
<feBlend mode="normal" in2="BackgroundImageFix" result="effect1_dropShadow_102_1446"/>
<feBlend mode="normal" in="SourceGraphic" in2="effect1_dropShadow_102_1446" result="shape"/>
</filter>
<filter id="filter10_d_102_1446" x="163.5" y="240.5" width="43" height="51" filterUnits="userSpaceOnUse" color-interpolation-filters="sRGB">
<feFlood flood-opacity="0" result="BackgroundImageFix"/>
<feColorMatrix in="SourceAlpha" type="matrix" values="0 0 0 0 0 0 0 0 0 0 0 0 0 0 0 0 0 0 127 0" result="hardAlpha"/>
<feOffset dy="4"/>
<feGaussianBlur stdDeviation="2"/>
<feComposite in2="hardAlpha" operator="out"/>
<feColorMatrix type="matrix" values="0 0 0 0 0 0 0 0 0 0 0 0 0 0 0 0 0 0 0.25 0"/>
<feBlend mode="normal" in2="BackgroundImageFix" result="effect1_dropShadow_102_1446"/>
<feBlend mode="normal" in="SourceGraphic" in2="effect1_dropShadow_102_1446" result="shape"/>
</filter>
<filter id="filter11_d_102_1446" x="-174" y="290.5" width="358" height="55" filterUnits="userSpaceOnUse" color-interpolation-filters="sRGB">
<feFlood flood-opacity="0" result="BackgroundImageFix"/>
<feColorMatrix in="SourceAlpha" type="matrix" values="0 0 0 0 0 0 0 0 0 0 0 0 0 0 0 0 0 0 127 0" result="hardAlpha"/>
<feOffset dy="4"/>
<feGaussianBlur stdDeviation="2"/>
<feComposite in2="hardAlpha" operator="out"/>
<feColorMatrix type="matrix" values="0 0 0 0 0 0 0 0 0 0 0 0 0 0 0 0 0 0 0.9 0"/>
<feBlend mode="normal" in2="BackgroundImageFix" result="effect1_dropShadow_102_1446"/>
<feBlend mode="normal" in="SourceGraphic" in2="effect1_dropShadow_102_1446" result="shape"/>
</filter>
<filter id="filter12_d_102_1446" x="6" y="290.5" width="43" height="51" filterUnits="userSpaceOnUse" color-interpolation-filters="sRGB">
<feFlood flood-opacity="0" result="BackgroundImageFix"/>
<feColorMatrix in="SourceAlpha" type="matrix" values="0 0 0 0 0 0 0 0 0 0 0 0 0 0 0 0 0 0 127 0" result="hardAlpha"/>
<feOffset dy="4"/>
<feGaussianBlur stdDeviation="2"/>
<feComposite in2="hardAlpha" operator="out"/>
<feColorMatrix type="matrix" values="0 0 0 0 0 0 0 0 0 0 0 0 0 0 0 0 0 0 0.25 0"/>
<feBlend mode="normal" in2="BackgroundImageFix" result="effect1_dropShadow_102_1446"/>
<feBlend mode="normal" in="SourceGraphic" in2="effect1_dropShadow_102_1446" result="shape"/>
</filter>
<filter id="filter13_d_102_1446" x="51" y="290.5" width="43" height="51" filterUnits="userSpaceOnUse" color-interpolation-filters="sRGB">
<feFlood flood-opacity="0" result="BackgroundImageFix"/>
<feColorMatrix in="SourceAlpha" type="matrix" values="0 0 0 0 0 0 0 0 0 0 0 0 0 0 0 0 0 0 127 0" result="hardAlpha"/>
<feOffset dy="4"/>
<feGaussianBlur stdDeviation="2"/>
<feComposite in2="hardAlpha" operator="out"/>
<feColorMatrix type="matrix" values="0 0 0 0 0 0 0 0 0 0 0 0 0 0 0 0 0 0 0.25 0"/>
<feBlend mode="normal" in2="BackgroundImageFix" result="effect1_dropShadow_102_1446"/>
<feBlend mode="normal" in="SourceGraphic" in2="effect1_dropShadow_102_1446" result="shape"/>
</filter>
<filter id="filter14_d_102_1446" x="96" y="290.5" width="43" height="51" filterUnits="userSpaceOnUse" color-interpolation-filters="sRGB">
<feFlood flood-opacity="0" result="BackgroundImageFix"/>
<feColorMatrix in="SourceAlpha" type="matrix" values="0 0 0 0 0 0 0 0 0 0 0 0 0 0 0 0 0 0 127 0" result="hardAlpha"/>
<feOffset dy="4"/>
<feGaussianBlur stdDeviation="2"/>
<feComposite in2="hardAlpha" operator="out"/>
<feColorMatrix type="matrix" values="0 0 0 0 0 0 0 0 0 0 0 0 0 0 0 0 0 0 0.25 0"/>
<feBlend mode="normal" in2="BackgroundImageFix" result="effect1_dropShadow_102_1446"/>
<feBlend mode="normal" in="SourceGraphic" in2="effect1_dropShadow_102_1446" result="shape"/>
</filter>
<filter id="filter15_d_102_1446" x="141" y="290.5" width="43" height="51" filterUnits="userSpaceOnUse" color-interpolation-filters="sRGB">
<feFlood flood-opacity="0" result="BackgroundImageFix"/>
<feColorMatrix in="SourceAlpha" type="matrix" values="0 0 0 0 0 0 0 0 0 0 0 0 0 0 0 0 0 0 127 0" result="hardAlpha"/>
<feOffset dy="4"/>
<feGaussianBlur stdDeviation="2"/>
<feComposite in2="hardAlpha" operator="out"/>
<feColorMatrix type="matrix" values="0 0 0 0 0 0 0 0 0 0 0 0 0 0 0 0 0 0 0.25 0"/>
<feBlend mode="normal" in2="BackgroundImageFix" result="effect1_dropShadow_102_1446"/>
<feBlend mode="normal" in="SourceGraphic" in2="effect1_dropShadow_102_1446" result="shape"/>
</filter>
<clipPath id="clip0_102_1446">
<rect x="5" y="14" width="470" height="183" rx="5" fill="white"/>
</clipPath>
<clipPath id="clip1_102_1446">
<rect width="220" height="122" fill="white" transform="translate(5 202)"/>
</clipPath>
<clipPath id="clip2_102_1446">
<rect width="440" height="49" fill="white" transform="translate(-215 190.5)"/>
</clipPath>
<clipPath id="clip3_102_1446">
<rect width="395" height="49" fill="white" transform="translate(-192.5 240.5)"/>
</clipPath>
<clipPath id="clip4_102_1446">
<rect width="350" height="47" fill="white" transform="translate(-170 290.5)"/>
</clipPath>
</defs>
</svg>
