<?xml version="1.0" encoding="UTF-8" standalone="no"?>
<!DOCTYPE svg PUBLIC "-//W3C//DTD SVG 1.1//EN" "http://www.w3.org/Graphics/SVG/1.1/DTD/svg11.dtd">
<svg width="100%" height="100%" viewBox="0 0 480 320" version="1.1" xmlns="http://www.w3.org/2000/svg" xmlns:xlink="http://www.w3.org/1999/xlink" xml:space="preserve" xmlns:serif="http://www.serif.com/" style="fill-rule:evenodd;clip-rule:evenodd;stroke-linejoin:round;stroke-miterlimit:2;">
    <g id="startScreen" transform="matrix(1,0,0,1,-445,-105.02)">
        <g id="Background" transform="matrix(1,0,0,1,445,105)">
            <rect x="0" y="0" width="480" height="320" style="fill:rgb(99,99,99);"/>
        </g>
        <g id="startTop">
            <g>
                <clipPath id="_clip1">
                    <path d="M920,115L920,288C920,290.76 917.76,293 915,293L455,293C452.24,293 450,290.76 450,288L450,115C450,112.24 452.24,110 455,110L915,110C917.76,110 920,112.24 920,115Z"/>
                </clipPath>
                <g clip-path="url(#_clip1)">
                    <g id="topBG">
                        <path d="M920,115L920,288C920,290.76 917.76,293 915,293L455,293C452.24,293 450,290.76 450,288L450,115C450,112.24 452.24,110 455,110L915,110C917.76,110 920,112.24 920,115Z" style="fill:rgb(33,32,32);"/>
                    </g>
                    <g id="nfcTitle">
                        <path d="M464.64,228C464.32,228 464.16,227.76 464.16,227.28L464.16,176.32C464.16,175.84 464.347,175.6 464.72,175.6L471.28,175.6C471.653,175.6 471.867,175.76 471.92,176.08L480.56,206.8C480.987,208.187 481.413,209.76 481.84,211.52C482.267,213.227 482.667,214.96 483.04,216.72C483.467,218.427 483.813,219.973 484.08,221.36L484.24,221.36C484.187,220.293 484.133,219.12 484.08,217.84C484.027,216.56 483.973,215.253 483.92,213.92C483.92,212.587 483.893,211.28 483.84,210L483.84,176.24C483.84,175.813 484.027,175.6 484.4,175.6L488.32,175.6C488.693,175.6 488.88,175.813 488.88,176.24L488.88,227.28C488.88,227.76 488.693,228 488.32,228L481.76,228C481.493,228 481.307,227.867 481.2,227.6L472.8,197.84C472,195.013 471.307,192.293 470.72,189.68C470.133,187.013 469.6,184.533 469.12,182.24L468.96,182.24C469.013,183.787 469.04,185.52 469.04,187.44C469.093,189.307 469.12,191.2 469.12,193.12C469.173,194.987 469.2,196.693 469.2,198.24L469.2,227.28C469.2,227.76 469.04,228 468.72,228L464.64,228ZM497.609,228C497.289,228 497.129,227.76 497.129,227.28L497.129,176.32C497.129,175.84 497.315,175.6 497.689,175.6L515.769,175.6C516.142,175.6 516.329,175.84 516.329,176.32L516.329,179.92C516.329,180.4 516.142,180.64 515.769,180.64L502.329,180.64L502.329,199.68L514.009,199.68C514.435,199.68 514.649,199.92 514.649,200.4L514.649,203.76C514.649,204.24 514.435,204.48 514.009,204.48L502.329,204.48L502.329,227.28C502.329,227.76 502.169,228 501.849,228L497.609,228ZM533.811,228.48C529.757,228.48 526.664,227.173 524.531,224.56C522.397,221.947 521.331,218 521.331,212.72L521.331,190.88C521.331,185.6 522.397,181.653 524.531,179.04C526.664,176.427 529.757,175.12 533.811,175.12C536.744,175.12 539.171,175.84 541.091,177.28C543.011,178.667 544.371,180.667 545.171,183.28C545.971,185.84 546.157,188.907 545.731,192.48C545.624,192.907 545.437,193.12 545.171,193.12L541.091,193.12C540.611,193.12 540.424,192.853 540.531,192.32C540.851,188.32 540.451,185.307 539.331,183.28C538.264,181.2 536.424,180.16 533.811,180.16C531.464,180.16 529.651,181.04 528.371,182.8C527.144,184.56 526.531,187.387 526.531,191.28L526.531,212.32C526.531,216.16 527.144,218.987 528.371,220.8C529.651,222.56 531.464,223.44 533.811,223.44C536.584,223.44 538.477,222.347 539.491,220.16C540.557,217.973 540.957,215.013 540.691,211.28C540.584,210.747 540.771,210.48 541.251,210.48L545.011,210.48C545.491,210.48 545.757,210.747 545.811,211.28C546.131,216.773 545.277,221.013 543.251,224C541.224,226.987 538.077,228.48 533.811,228.48Z" style="fill:rgb(249,248,245);fill-rule:nonzero;"/>
                    </g>
                    <g id="nfcScanning">
                        <path d="M463.34,266.12C462.62,266.12 462.047,265.96 461.62,265.64C461.193,265.32 460.9,264.887 460.74,264.34C460.58,263.78 460.527,263.147 460.58,262.44C460.593,262.307 460.64,262.24 460.72,262.24L461.72,262.24C461.827,262.24 461.873,262.307 461.86,262.44C461.767,263.253 461.853,263.86 462.12,264.26C462.4,264.66 462.827,264.86 463.4,264.86C463.92,264.86 464.307,264.707 464.56,264.4C464.827,264.08 464.96,263.587 464.96,262.92C464.96,262.333 464.88,261.853 464.72,261.48C464.56,261.093 464.28,260.753 463.88,260.46L462.26,259.18C461.713,258.753 461.307,258.273 461.04,257.74C460.787,257.193 460.66,256.54 460.66,255.78C460.673,254.833 460.913,254.1 461.38,253.58C461.86,253.047 462.52,252.78 463.36,252.78C464.347,252.78 465.067,253.1 465.52,253.74C465.987,254.38 466.167,255.253 466.06,256.36C466.06,256.507 466.013,256.58 465.92,256.58L464.9,256.58C464.807,256.58 464.767,256.507 464.78,256.36C464.86,255.613 464.773,255.04 464.52,254.64C464.267,254.24 463.887,254.04 463.38,254.04C462.953,254.04 462.613,254.18 462.36,254.46C462.107,254.74 461.973,255.167 461.96,255.74C461.96,256.273 462.053,256.727 462.24,257.1C462.427,257.473 462.713,257.813 463.1,258.12L464.66,259.34C465.047,259.633 465.353,259.947 465.58,260.28C465.82,260.6 465.993,260.973 466.1,261.4C466.207,261.813 466.26,262.3 466.26,262.86C466.26,263.873 466.02,264.673 465.54,265.26C465.073,265.833 464.34,266.12 463.34,266.12ZM470.977,266.12C469.964,266.12 469.19,265.793 468.657,265.14C468.124,264.487 467.857,263.5 467.857,262.18L467.857,256.72C467.857,255.4 468.124,254.413 468.657,253.76C469.19,253.107 469.964,252.78 470.977,252.78C471.71,252.78 472.317,252.96 472.797,253.32C473.277,253.667 473.617,254.167 473.817,254.82C474.017,255.46 474.064,256.227 473.957,257.12C473.93,257.227 473.884,257.28 473.817,257.28L472.797,257.28C472.677,257.28 472.63,257.213 472.657,257.08C472.737,256.08 472.637,255.327 472.357,254.82C472.09,254.3 471.63,254.04 470.977,254.04C470.39,254.04 469.937,254.26 469.617,254.7C469.31,255.14 469.157,255.847 469.157,256.82L469.157,262.08C469.157,263.04 469.31,263.747 469.617,264.2C469.937,264.64 470.39,264.86 470.977,264.86C471.67,264.86 472.144,264.587 472.397,264.04C472.664,263.493 472.764,262.753 472.697,261.82C472.67,261.687 472.717,261.62 472.837,261.62L473.777,261.62C473.897,261.62 473.964,261.687 473.977,261.82C474.057,263.193 473.844,264.253 473.337,265C472.83,265.747 472.044,266.12 470.977,266.12ZM475.128,266C475.035,266 474.995,265.933 475.008,265.8L477.608,253.04C477.622,252.947 477.682,252.9 477.788,252.9L479.188,252.9C479.295,252.9 479.355,252.947 479.368,253.04L481.988,265.8C482.002,265.933 481.962,266 481.868,266L480.768,266C480.688,266 480.635,265.96 480.608,265.88L478.988,257.22C478.895,256.753 478.802,256.293 478.708,255.84C478.628,255.373 478.555,254.907 478.488,254.44L478.448,254.44C478.382,254.907 478.308,255.373 478.228,255.84C478.162,256.293 478.082,256.76 477.988,257.24L476.368,265.88C476.355,265.96 476.308,266 476.228,266L475.128,266ZM476.728,262.78L476.968,261.52L479.968,261.52L480.248,262.78L476.728,262.78ZM483.303,266C483.223,266 483.183,265.94 483.183,265.82L483.183,253.08C483.183,252.96 483.23,252.9 483.323,252.9L484.963,252.9C485.056,252.9 485.11,252.94 485.123,253.02L487.283,260.7C487.39,261.047 487.496,261.44 487.603,261.88C487.71,262.307 487.81,262.74 487.903,263.18C488.01,263.607 488.096,263.993 488.163,264.34L488.203,264.34C488.19,264.073 488.176,263.78 488.163,263.46C488.15,263.14 488.136,262.813 488.123,262.48C488.123,262.147 488.116,261.82 488.103,261.5L488.103,253.06C488.103,252.953 488.15,252.9 488.243,252.9L489.223,252.9C489.316,252.9 489.363,252.953 489.363,253.06L489.363,265.82C489.363,265.94 489.316,266 489.223,266L487.583,266C487.516,266 487.47,265.967 487.443,265.9L485.343,258.46C485.143,257.753 484.97,257.073 484.823,256.42C484.676,255.753 484.543,255.133 484.423,254.56L484.383,254.56C484.396,254.947 484.403,255.38 484.403,255.86C484.416,256.327 484.423,256.8 484.423,257.28C484.436,257.747 484.443,258.173 484.443,258.56L484.443,265.82C484.443,265.94 484.403,266 484.323,266L483.303,266ZM491.745,266C491.665,266 491.625,265.94 491.625,265.82L491.625,253.08C491.625,252.96 491.672,252.9 491.765,252.9L493.405,252.9C493.498,252.9 493.552,252.94 493.565,253.02L495.725,260.7C495.832,261.047 495.938,261.44 496.045,261.88C496.152,262.307 496.252,262.74 496.345,263.18C496.452,263.607 496.538,263.993 496.605,264.34L496.645,264.34C496.632,264.073 496.618,263.78 496.605,263.46C496.592,263.14 496.578,262.813 496.565,262.48C496.565,262.147 496.558,261.82 496.545,261.5L496.545,253.06C496.545,252.953 496.592,252.9 496.685,252.9L497.665,252.9C497.758,252.9 497.805,252.953 497.805,253.06L497.805,265.82C497.805,265.94 497.758,266 497.665,266L496.025,266C495.958,266 495.912,265.967 495.885,265.9L493.785,258.46C493.585,257.753 493.412,257.073 493.265,256.42C493.118,255.753 492.985,255.133 492.865,254.56L492.825,254.56C492.838,254.947 492.845,255.38 492.845,255.86C492.858,256.327 492.865,256.8 492.865,257.28C492.878,257.747 492.885,258.173 492.885,258.56L492.885,265.82C492.885,265.94 492.845,266 492.765,266L491.745,266ZM500.207,266C500.114,266 500.067,265.94 500.067,265.82L500.067,253.08C500.067,252.96 500.114,252.9 500.207,252.9L501.227,252.9C501.321,252.9 501.367,252.96 501.367,253.08L501.367,265.82C501.367,265.94 501.321,266 501.227,266L500.207,266ZM503.747,266C503.667,266 503.627,265.94 503.627,265.82L503.627,253.08C503.627,252.96 503.673,252.9 503.767,252.9L505.407,252.9C505.5,252.9 505.553,252.94 505.567,253.02L507.727,260.7C507.833,261.047 507.94,261.44 508.047,261.88C508.153,262.307 508.253,262.74 508.347,263.18C508.453,263.607 508.54,263.993 508.607,264.34L508.647,264.34C508.633,264.073 508.62,263.78 508.607,263.46C508.593,263.14 508.58,262.813 508.567,262.48C508.567,262.147 508.56,261.82 508.547,261.5L508.547,253.06C508.547,252.953 508.593,252.9 508.687,252.9L509.667,252.9C509.76,252.9 509.807,252.953 509.807,253.06L509.807,265.82C509.807,265.94 509.76,266 509.667,266L508.027,266C507.96,266 507.913,265.967 507.887,265.9L505.787,258.46C505.587,257.753 505.413,257.073 505.267,256.42C505.12,255.753 504.987,255.133 504.867,254.56L504.827,254.56C504.84,254.947 504.847,255.38 504.847,255.86C504.86,256.327 504.867,256.8 504.867,257.28C504.88,257.747 504.887,258.173 504.887,258.56L504.887,265.82C504.887,265.94 504.847,266 504.767,266L503.747,266ZM514.689,266.12C513.729,266.12 513.022,265.807 512.569,265.18C512.116,264.54 511.889,263.58 511.889,262.3L511.889,256.68C511.889,255.413 512.156,254.447 512.689,253.78C513.222,253.113 513.989,252.78 514.989,252.78C516.042,252.78 516.836,253.147 517.369,253.88C517.902,254.613 518.116,255.627 518.009,256.92C518.009,257.027 517.962,257.08 517.869,257.08L516.829,257.08C516.722,257.08 516.682,257.027 516.709,256.92C516.802,256.013 516.696,255.307 516.389,254.8C516.082,254.293 515.629,254.04 515.029,254.04C514.416,254.04 513.956,254.26 513.649,254.7C513.342,255.14 513.189,255.82 513.189,256.74L513.189,262.2C513.189,263.147 513.322,263.827 513.589,264.24C513.856,264.653 514.302,264.86 514.929,264.86C515.556,264.86 516.029,264.607 516.349,264.1C516.669,263.593 516.829,262.813 516.829,261.76L516.829,260.64L515.169,260.64C515.076,260.64 515.029,260.58 515.029,260.46L515.029,259.58C515.029,259.46 515.076,259.4 515.169,259.4L517.949,259.4C518.042,259.4 518.089,259.46 518.089,259.58L518.089,263.44C518.089,264.027 518.096,264.493 518.109,264.84C518.122,265.173 518.149,265.493 518.189,265.8C518.202,265.933 518.162,266 518.069,266L517.249,266C517.142,266 517.089,265.953 517.089,265.86C517.062,265.687 517.042,265.487 517.029,265.26C517.016,265.033 517.002,264.747 516.989,264.4L516.969,264.4C516.796,264.933 516.516,265.353 516.129,265.66C515.756,265.967 515.276,266.12 514.689,266.12ZM524.794,266C524.701,266 524.654,265.94 524.654,265.82L524.654,254.16L522.554,254.16C522.447,254.16 522.394,254.1 522.394,253.98L522.394,253.08C522.394,252.96 522.447,252.9 522.554,252.9L528.054,252.9C528.147,252.9 528.194,252.96 528.194,253.08L528.194,253.98C528.194,254.1 528.147,254.16 528.054,254.16L525.954,254.16L525.954,265.82C525.954,265.94 525.901,266 525.794,266L524.794,266ZM532.445,266.12C531.445,266.12 530.672,265.813 530.125,265.2C529.592,264.587 529.325,263.66 529.325,262.42L529.325,256.52C529.325,255.253 529.592,254.313 530.125,253.7C530.672,253.087 531.445,252.78 532.445,252.78C533.445,252.78 534.218,253.087 534.765,253.7C535.312,254.313 535.585,255.253 535.585,256.52L535.585,262.42C535.585,263.66 535.312,264.587 534.765,265.2C534.218,265.813 533.445,266.12 532.445,266.12ZM532.445,264.86C533.045,264.86 533.498,264.66 533.805,264.26C534.125,263.847 534.285,263.2 534.285,262.32L534.285,256.6C534.285,255.707 534.125,255.06 533.805,254.66C533.498,254.247 533.045,254.04 532.445,254.04C531.858,254.04 531.405,254.247 531.085,254.66C530.778,255.06 530.625,255.707 530.625,256.6L530.625,262.32C530.625,263.2 530.778,263.847 531.085,264.26C531.405,264.66 531.858,264.86 532.445,264.86ZM542.093,266C542,266 541.953,265.94 541.953,265.82L541.953,254.16L539.853,254.16C539.746,254.16 539.693,254.1 539.693,253.98L539.693,253.08C539.693,252.96 539.746,252.9 539.853,252.9L545.353,252.9C545.446,252.9 545.493,252.96 545.493,253.08L545.493,253.98C545.493,254.1 545.446,254.16 545.353,254.16L543.253,254.16L543.253,265.82C543.253,265.94 543.2,266 543.093,266L542.093,266ZM547.217,266C547.124,266 547.077,265.94 547.077,265.82L547.077,253.08C547.077,252.96 547.124,252.9 547.217,252.9L548.237,252.9C548.331,252.9 548.377,252.96 548.377,253.08L548.377,258.6L551.937,258.6L551.937,253.08C551.937,252.96 551.984,252.9 552.077,252.9L553.077,252.9C553.184,252.9 553.237,252.96 553.237,253.08L553.237,265.82C553.237,265.94 553.184,266 553.077,266L552.077,266C551.984,266 551.937,265.94 551.937,265.82L551.937,259.84L548.377,259.84L548.377,265.82C548.377,265.94 548.331,266 548.237,266L547.217,266ZM555.66,266C555.553,266 555.5,265.94 555.5,265.82L555.5,253.08C555.5,252.96 555.547,252.9 555.64,252.9L560.16,252.9C560.253,252.9 560.3,252.96 560.3,253.08L560.3,253.98C560.3,254.1 560.253,254.16 560.16,254.16L556.8,254.16L556.8,258.72L559.88,258.72C559.973,258.72 560.02,258.78 560.02,258.9L560.02,259.74C560.02,259.86 559.973,259.92 559.88,259.92L556.8,259.92L556.8,264.74L560.16,264.74C560.253,264.74 560.3,264.8 560.3,264.92L560.3,265.82C560.3,265.94 560.253,266 560.16,266L555.66,266ZM565.2,266C565.107,266 565.06,265.94 565.06,265.82L565.06,253.08C565.06,252.96 565.107,252.9 565.2,252.9L567.4,252.9C568.507,252.9 569.314,253.193 569.82,253.78C570.34,254.367 570.6,255.26 570.6,256.46C570.6,257.46 570.454,258.253 570.16,258.84C569.88,259.413 569.487,259.8 568.98,260L568.98,260.02L571.04,265.78C571.067,265.927 571.02,266 570.9,266L569.8,266C569.734,266 569.68,265.96 569.64,265.88L567.7,260.3L566.36,260.3L566.36,265.82C566.36,265.94 566.314,266 566.22,266L565.2,266ZM566.36,259.1L567.44,259.1C568.107,259.1 568.58,258.893 568.86,258.48C569.154,258.053 569.3,257.413 569.3,256.56C569.3,255.693 569.14,255.08 568.82,254.72C568.514,254.347 568.034,254.16 567.38,254.16L566.36,254.16L566.36,259.1ZM572.842,266C572.748,266 572.702,265.94 572.702,265.82L572.702,253.08C572.702,252.96 572.748,252.9 572.842,252.9L573.862,252.9C573.955,252.9 574.002,252.96 574.002,253.08L574.002,265.82C574.002,265.94 573.955,266 573.862,266L572.842,266ZM578.881,266.12C577.921,266.12 577.214,265.807 576.761,265.18C576.308,264.54 576.081,263.58 576.081,262.3L576.081,256.68C576.081,255.413 576.348,254.447 576.881,253.78C577.414,253.113 578.181,252.78 579.181,252.78C580.234,252.78 581.028,253.147 581.561,253.88C582.094,254.613 582.308,255.627 582.201,256.92C582.201,257.027 582.154,257.08 582.061,257.08L581.021,257.08C580.914,257.08 580.874,257.027 580.901,256.92C580.994,256.013 580.888,255.307 580.581,254.8C580.274,254.293 579.821,254.04 579.221,254.04C578.608,254.04 578.148,254.26 577.841,254.7C577.534,255.14 577.381,255.82 577.381,256.74L577.381,262.2C577.381,263.147 577.514,263.827 577.781,264.24C578.048,264.653 578.494,264.86 579.121,264.86C579.748,264.86 580.221,264.607 580.541,264.1C580.861,263.593 581.021,262.813 581.021,261.76L581.021,260.64L579.361,260.64C579.268,260.64 579.221,260.58 579.221,260.46L579.221,259.58C579.221,259.46 579.268,259.4 579.361,259.4L582.141,259.4C582.234,259.4 582.281,259.46 582.281,259.58L582.281,263.44C582.281,264.027 582.288,264.493 582.301,264.84C582.314,265.173 582.341,265.493 582.381,265.8C582.394,265.933 582.354,266 582.261,266L581.441,266C581.334,266 581.281,265.953 581.281,265.86C581.254,265.687 581.234,265.487 581.221,265.26C581.208,265.033 581.194,264.747 581.181,264.4L581.161,264.4C580.988,264.933 580.708,265.353 580.321,265.66C579.948,265.967 579.468,266.12 578.881,266.12ZM584.726,266C584.633,266 584.586,265.94 584.586,265.82L584.586,253.08C584.586,252.96 584.633,252.9 584.726,252.9L585.746,252.9C585.839,252.9 585.886,252.96 585.886,253.08L585.886,258.6L589.446,258.6L589.446,253.08C589.446,252.96 589.493,252.9 589.586,252.9L590.586,252.9C590.693,252.9 590.746,252.96 590.746,253.08L590.746,265.82C590.746,265.94 590.693,266 590.586,266L589.586,266C589.493,266 589.446,265.94 589.446,265.82L589.446,259.84L585.886,259.84L585.886,265.82C585.886,265.94 585.839,266 585.746,266L584.726,266ZM594.709,266C594.615,266 594.569,265.94 594.569,265.82L594.569,254.16L592.469,254.16C592.362,254.16 592.309,254.1 592.309,253.98L592.309,253.08C592.309,252.96 592.362,252.9 592.469,252.9L597.969,252.9C598.062,252.9 598.109,252.96 598.109,253.08L598.109,253.98C598.109,254.1 598.062,254.16 597.969,254.16L595.869,254.16L595.869,265.82C595.869,265.94 595.815,266 595.709,266L594.709,266Z" style="fill:rgb(189,186,178);fill-rule:nonzero;"/>
                    </g>
                    <g id="nfcLogo">
                        <path d="M792.751,152.157C792.751,152.157 800.036,149.074 804.672,154.006C809.308,158.937 821.229,178.047 821.229,197.156C821.229,216.265 815.931,236.608 810.633,243.388C805.334,250.169 800.036,250.169 796.062,247.703C792.088,245.238 730.496,201.471 727.185,200.238C723.874,199.006 722.549,202.087 725.86,218.732C729.172,235.375 723.874,240.307 719.237,240.923C714.601,241.539 700.694,237.84 700.032,203.321C699.369,168.8 709.303,163.253 713.939,163.253C722.65,163.253 788.794,218.832 793.413,218.115C797.387,217.498 799.374,194.074 791.426,175.581C782.821,155.557 792.751,152.157 792.751,152.157ZM899.213,117.637C921.459,158.755 920.101,197.635 919.924,201.738C920.101,205.313 921.459,244.245 899.213,285.363C899.213,285.363 893.418,291.528 884.808,287.829C876.199,284.131 879.179,274.268 879.179,274.268C879.179,274.268 897.206,241.874 896.729,202.087L896.738,201.471C897.206,161.679 879.179,128.732 879.179,128.732C879.179,128.732 876.199,118.869 884.808,115.17C893.418,111.472 899.213,117.637 899.213,117.637ZM856.067,136.13C874.212,166.951 872.982,197.635 872.804,201.738C872.982,205.313 874.212,234.759 856.091,268.074C856.091,268.074 850.297,274.239 841.687,270.54C833.077,266.842 836.057,256.979 836.057,256.979C836.057,256.979 847.721,241.539 849.61,202.087L849.618,201.471C848.383,162.019 836.033,147.225 836.033,147.225C836.033,147.225 833.053,137.362 841.662,133.664C850.272,129.965 856.067,136.13 856.067,136.13Z" style="fill:rgb(45,44,43);fill-rule:nonzero;"/>
                    </g>
                </g>
            </g>
        </g>
        <g id="startBottom">
            <path id="bottomBG" d="M920,303L920,415C920,417.76 917.76,420 915,420L455,420C452.24,420 450,417.76 450,415L450,303C450,300.24 452.24,298 455,298L915,298C917.76,298 920,300.24 920,303Z" style="fill:rgb(23,22,22);"/>
            <g id="keyboardIcon">
                <g>
                    <clipPath id="_clip2">
                        <rect x="450" y="298" width="220" height="122"/>
                    </clipPath>
                    <g clip-path="url(#_clip2)">
                        <g>
                            <g>
                                <path d="M490,289.5L490,326.5C490,328.156 488.656,329.5 487,329.5L458,329.5C456.344,329.5 455,328.156 455,326.5L455,289.5C455,287.844 456.344,286.5 458,286.5L487,286.5C488.656,286.5 490,287.844 490,289.5Z" style="fill:rgb(45,44,43);"/>
                                <path d="M470.959,318.5C470.743,318.5 470.635,318.368 470.635,318.104L470.635,310.4L465.667,295.388C465.571,295.076 465.655,294.92 465.919,294.92L469.411,294.92C469.603,294.92 469.711,295.016 469.735,295.208L471.535,302.336C471.703,303.008 471.871,303.704 472.039,304.424C472.207,305.12 472.363,305.816 472.507,306.512L472.543,306.512C472.711,305.816 472.867,305.12 473.011,304.424C473.179,303.704 473.347,302.996 473.515,302.3L475.315,295.208C475.339,295.016 475.447,294.92 475.639,294.92L479.059,294.92C479.323,294.92 479.407,295.076 479.311,295.388L474.379,310.364L474.379,318.104C474.379,318.368 474.283,318.5 474.091,318.5L470.959,318.5Z" style="fill:rgb(23,22,22);fill-rule:nonzero;"/>
                            </g>
                            <g>
                                <path d="M535,289.5L535,326.5C535,328.156 533.656,329.5 532,329.5L503,329.5C501.344,329.5 500,328.156 500,326.5L500,289.5C500,287.844 501.344,286.5 503,286.5L532,286.5C533.656,286.5 535,287.844 535,289.5Z" style="fill:rgb(45,44,43);"/>
                                <path d="M517.49,318.716C515.33,318.716 513.722,318.068 512.666,316.772C511.634,315.452 511.118,313.472 511.118,310.832L511.118,295.28C511.118,295.04 511.226,294.92 511.442,294.92L514.574,294.92C514.79,294.92 514.898,295.04 514.898,295.28L514.898,310.724C514.898,312.356 515.102,313.52 515.51,314.216C515.918,314.912 516.578,315.26 517.49,315.26C518.426,315.26 519.098,314.924 519.506,314.252C519.914,313.556 520.118,312.38 520.118,310.724L520.118,295.28C520.118,295.04 520.226,294.92 520.442,294.92L523.574,294.92C523.79,294.92 523.898,295.04 523.898,295.28L523.898,310.832C523.898,313.472 523.358,315.452 522.278,316.772C521.222,318.068 519.626,318.716 517.49,318.716Z" style="fill:rgb(23,22,22);fill-rule:nonzero;"/>
                            </g>
                            <g>
                                <path d="M580,289.5L580,326.5C580,328.156 578.656,329.5 577,329.5L548,329.5C546.344,329.5 545,328.156 545,326.5L545,289.5C545,287.844 546.344,286.5 548,286.5L577,286.5C578.656,286.5 580,287.844 580,289.5Z" style="fill:rgb(45,44,43);"/>
                                <path d="M560.927,318.5C560.711,318.5 560.603,318.368 560.603,318.104L560.603,295.316C560.603,295.052 560.711,294.92 560.927,294.92L564.059,294.92C564.275,294.92 564.383,295.052 564.383,295.316L564.383,318.104C564.383,318.368 564.275,318.5 564.059,318.5L560.927,318.5Z" style="fill:rgb(23,22,22);fill-rule:nonzero;"/>
                            </g>
                            <g>
                                <path d="M625,289.5L625,326.5C625,328.156 623.656,329.5 622,329.5L593,329.5C591.344,329.5 590,328.156 590,326.5L590,289.5C590,287.844 591.344,286.5 593,286.5L622,286.5C623.656,286.5 625,287.844 625,289.5Z" style="fill:rgb(45,44,43);"/>
                                <path d="M607.507,318.716C605.371,318.716 603.739,318.092 602.611,316.844C601.507,315.596 600.955,313.736 600.955,311.264L600.955,302.192C600.955,299.696 601.507,297.824 602.611,296.576C603.739,295.328 605.371,294.704 607.507,294.704C609.619,294.704 611.239,295.328 612.367,296.576C613.495,297.824 614.059,299.696 614.059,302.192L614.059,311.264C614.059,313.736 613.495,315.596 612.367,316.844C611.239,318.092 609.619,318.716 607.507,318.716ZM607.507,315.26C608.443,315.26 609.139,314.936 609.595,314.288C610.075,313.64 610.315,312.572 610.315,311.084L610.315,302.372C610.315,300.86 610.075,299.78 609.595,299.132C609.139,298.484 608.443,298.16 607.507,298.16C606.571,298.16 605.863,298.484 605.383,299.132C604.927,299.78 604.699,300.86 604.699,302.372L604.699,311.084C604.699,312.572 604.927,313.64 605.383,314.288C605.863,314.936 606.571,315.26 607.507,315.26Z" style="fill:rgb(23,22,22);fill-rule:nonzero;"/>
                            </g>
                            <g>
                                <path d="M670,289.5L670,326.5C670,328.156 668.656,329.5 667,329.5L638,329.5C636.344,329.5 635,328.156 635,326.5L635,289.5C635,287.844 636.344,286.5 638,286.5L667,286.5C668.656,286.5 670,287.844 670,289.5Z" style="fill:rgb(45,44,43);"/>
                                <path d="M647.534,318.5C647.318,318.5 647.21,318.368 647.21,318.104L647.21,295.316C647.21,295.052 647.318,294.92 647.534,294.92L651.962,294.92C654.218,294.92 655.874,295.532 656.93,296.756C658.01,297.98 658.55,299.9 658.55,302.516C658.55,304.94 657.998,306.8 656.894,308.096C655.814,309.392 654.218,310.04 652.106,310.04L650.99,310.04L650.99,318.104C650.99,318.368 650.882,318.5 650.666,318.5L647.534,318.5ZM650.99,306.62L651.962,306.62C652.946,306.62 653.654,306.284 654.086,305.612C654.542,304.94 654.77,303.92 654.77,302.552C654.77,301.04 654.542,299.96 654.086,299.312C653.654,298.664 652.97,298.34 652.034,298.34L650.99,298.34L650.99,306.62Z" style="fill:rgb(23,22,22);fill-rule:nonzero;"/>
                            </g>
                        </g>
                        <g>
                            <g>
                                <path d="M467.5,339.5L467.5,376.5C467.5,378.156 466.156,379.5 464.5,379.5L435.5,379.5C433.844,379.5 432.5,378.156 432.5,376.5L432.5,339.5C432.5,337.844 433.844,336.5 435.5,336.5L464.5,336.5C466.156,336.5 467.5,337.844 467.5,339.5Z" style="fill:rgb(45,44,43);"/>
                                <path d="M448.875,368.716C447.075,368.716 445.707,368.104 444.771,366.88C443.835,365.656 443.367,363.796 443.367,361.3L443.367,352.444C443.367,349.924 443.919,348.004 445.023,346.684C446.151,345.364 447.771,344.704 449.883,344.704C452.043,344.704 453.675,345.388 454.779,346.756C455.883,348.124 456.351,349.984 456.183,352.336C456.159,352.6 456.051,352.732 455.859,352.732L452.727,352.696C452.511,352.696 452.415,352.576 452.439,352.336C452.559,351.016 452.403,349.996 451.971,349.276C451.539,348.532 450.855,348.16 449.919,348.16C448.959,348.16 448.251,348.508 447.795,349.204C447.339,349.9 447.111,350.992 447.111,352.48L447.111,361.012C447.111,362.548 447.303,363.64 447.687,364.288C448.095,364.936 448.791,365.26 449.775,365.26C450.687,365.26 451.383,364.9 451.863,364.18C452.343,363.436 452.583,362.32 452.583,360.832L452.583,359.212L450.099,359.212C449.883,359.212 449.775,359.08 449.775,358.816L449.775,356.692C449.775,356.428 449.883,356.296 450.099,356.296L455.931,356.296C456.147,356.296 456.255,356.428 456.255,356.692L456.255,363.28C456.255,364.432 456.267,365.38 456.291,366.124C456.339,366.844 456.399,367.492 456.471,368.068C456.519,368.356 456.423,368.5 456.183,368.5L453.735,368.5C453.519,368.5 453.399,368.392 453.375,368.176C453.327,367.888 453.279,367.552 453.231,367.168C453.207,366.76 453.195,366.268 453.195,365.692L453.123,365.692C452.763,366.628 452.247,367.372 451.575,367.924C450.903,368.452 450.003,368.716 448.875,368.716Z" style="fill:rgb(23,22,22);fill-rule:nonzero;"/>
                            </g>
                            <g>
                                <path d="M512.5,339.5L512.5,376.5C512.5,378.156 511.156,379.5 509.5,379.5L480.5,379.5C478.844,379.5 477.5,378.156 477.5,376.5L477.5,339.5C477.5,337.844 478.844,336.5 480.5,336.5L509.5,336.5C511.156,336.5 512.5,337.844 512.5,339.5Z" style="fill:rgb(45,44,43);"/>
                                <path d="M488.91,368.5C488.67,368.5 488.55,368.368 488.55,368.104L488.55,345.316C488.55,345.052 488.67,344.92 488.91,344.92L491.97,344.92C492.21,344.92 492.33,345.052 492.33,345.316L492.33,354.748L497.694,354.748L497.694,345.316C497.694,345.052 497.802,344.92 498.018,344.92L501.078,344.92C501.318,344.92 501.438,345.052 501.438,345.316L501.438,368.104C501.438,368.368 501.318,368.5 501.078,368.5L498.018,368.5C497.802,368.5 497.694,368.368 497.694,368.104L497.694,358.132L492.33,358.132L492.33,368.104C492.33,368.368 492.21,368.5 491.97,368.5L488.91,368.5Z" style="fill:rgb(23,22,22);fill-rule:nonzero;"/>
                            </g>
                            <g>
                                <path d="M557.5,339.5L557.5,376.5C557.5,378.156 556.156,379.5 554.5,379.5L525.5,379.5C523.844,379.5 522.5,378.156 522.5,376.5L522.5,339.5C522.5,337.844 523.844,336.5 525.5,336.5L554.5,336.5C556.156,336.5 557.5,337.844 557.5,339.5Z" style="fill:rgb(45,44,43);"/>
                                <path d="M537.383,373.864C537.167,373.96 537.023,373.876 536.951,373.612L536.159,371.056C536.111,370.912 536.111,370.792 536.159,370.696C536.183,370.6 536.243,370.54 536.339,370.516C536.747,370.348 537.083,370.096 537.347,369.76C537.611,369.448 537.803,368.98 537.923,368.356C538.043,367.708 538.103,366.844 538.103,365.764L538.103,345.316C538.103,345.052 538.211,344.92 538.427,344.92L541.559,344.92C541.775,344.92 541.883,345.052 541.883,345.316L541.883,365.62C541.883,367.372 541.715,368.812 541.379,369.94C541.043,371.068 540.539,371.944 539.867,372.568C539.195,373.192 538.367,373.624 537.383,373.864Z" style="fill:rgb(23,22,22);fill-rule:nonzero;"/>
                            </g>
                            <g>
                                <path d="M602.5,339.5L602.5,376.5C602.5,378.156 601.156,379.5 599.5,379.5L570.5,379.5C568.844,379.5 567.5,378.156 567.5,376.5L567.5,339.5C567.5,337.844 568.844,336.5 570.5,336.5L599.5,336.5C601.156,336.5 602.5,337.844 602.5,339.5Z" style="fill:rgb(45,44,43);"/>
                                <path d="M579.454,370C579.238,370 579.13,369.868 579.13,369.604L579.13,346.816C579.13,346.552 579.238,346.42 579.454,346.42L582.586,346.42C582.802,346.42 582.91,346.552 582.91,346.816L582.91,352.72C582.91,353.2 582.898,353.752 582.874,354.376C582.85,354.976 582.826,355.576 582.802,356.176C582.802,356.752 582.778,357.292 582.73,357.796L582.802,357.796C583.066,357.052 583.342,356.26 583.63,355.42C583.942,354.556 584.302,353.668 584.71,352.756L587.662,346.636C587.71,346.492 587.83,346.42 588.022,346.42L591.514,346.42C591.802,346.42 591.862,346.576 591.694,346.888L587.194,356.14L592.306,369.532C592.45,369.844 592.378,370 592.09,370L588.382,370C588.19,370 588.07,369.916 588.022,369.748L584.566,359.704L582.91,362.836L582.91,369.604C582.91,369.868 582.802,370 582.586,370L579.454,370Z" style="fill:rgb(23,22,22);fill-rule:nonzero;"/>
                            </g>
                            <g>
                                <path d="M647.5,339.5L647.5,376.5C647.5,378.156 646.156,379.5 644.5,379.5L615.5,379.5C613.844,379.5 612.5,378.156 612.5,376.5L612.5,339.5C612.5,337.844 613.844,336.5 615.5,336.5L644.5,336.5C646.156,336.5 647.5,337.844 647.5,339.5Z" style="fill:rgb(45,44,43);"/>
                                <path d="M625.967,368.5C625.727,368.5 625.607,368.368 625.607,368.104L625.607,345.316C625.607,345.052 625.727,344.92 625.967,344.92L629.027,344.92C629.267,344.92 629.387,345.052 629.387,345.316L629.387,365.08L635.111,365.08C635.351,365.08 635.471,365.212 635.471,365.476L635.471,368.104C635.471,368.368 635.351,368.5 635.111,368.5L625.967,368.5Z" style="fill:rgb(23,22,22);fill-rule:nonzero;"/>
                            </g>
                        </g>
                        <g>
                            <g>
                                <g>
                                    <path d="M490,389.5L490,426.5C490,428.156 488.656,429.5 487,429.5L458,429.5C456.344,429.5 455,428.156 455,426.5L455,389.5C455,387.844 456.344,386.5 458,386.5L487,386.5C488.656,386.5 490,387.844 490,389.5Z" style="fill:rgb(45,44,43);"/>
                                    <path d="M467.237,418.5C466.973,418.5 466.841,418.368 466.841,418.104L466.841,395.316C466.841,395.052 466.973,394.92 467.237,394.92L471.845,394.92C473.957,394.92 475.529,395.412 476.561,396.396C477.593,397.356 478.109,398.82 478.109,400.788C478.109,402.036 477.881,403.092 477.425,403.956C476.969,404.82 476.273,405.504 475.337,406.008L475.337,406.08C476.465,406.44 477.317,407.1 477.893,408.06C478.493,409.02 478.793,410.244 478.793,411.732C478.793,413.988 478.241,415.68 477.137,416.808C476.057,417.936 474.401,418.5 472.169,418.5L467.237,418.5ZM470.621,415.26L472.133,415.26C473.117,415.26 473.849,414.948 474.329,414.324C474.833,413.7 475.085,412.752 475.085,411.48C475.085,410.28 474.833,409.38 474.329,408.78C473.849,408.18 473.129,407.88 472.169,407.88L470.621,407.88L470.621,415.26ZM470.621,404.892L471.917,404.892C472.733,404.892 473.345,404.592 473.753,403.992C474.185,403.392 474.401,402.516 474.401,401.364C474.401,400.236 474.197,399.42 473.789,398.916C473.381,398.412 472.733,398.16 471.845,398.16L470.621,398.16L470.621,404.892Z" style="fill:rgb(23,22,22);fill-rule:nonzero;"/>
                                </g>
                                <g>
                                    <path d="M535,389.5L535,426.5C535,428.156 533.656,429.5 532,429.5L503,429.5C501.344,429.5 500,428.156 500,426.5L500,389.5C500,387.844 501.344,386.5 503,386.5L532,386.5C533.656,386.5 535,387.844 535,389.5Z" style="fill:rgb(45,44,43);"/>
                                    <path d="M511.356,418.5C511.14,418.5 511.032,418.368 511.032,418.104L511.032,395.316C511.032,395.052 511.14,394.92 511.356,394.92L515.496,394.92C515.688,394.92 515.808,395.016 515.856,395.208L519.132,407.088C519.3,407.688 519.468,408.36 519.636,409.104C519.828,409.848 520.008,410.604 520.176,411.372C520.368,412.116 520.512,412.776 520.608,413.352L520.68,413.352C520.656,412.872 520.62,412.32 520.572,411.696C520.548,411.048 520.512,410.388 520.464,409.716C520.44,409.02 520.416,408.36 520.392,407.736L520.392,395.28C520.392,395.04 520.5,394.92 520.716,394.92L523.632,394.92C523.848,394.92 523.956,395.04 523.956,395.28L523.956,418.104C523.956,418.368 523.848,418.5 523.632,418.5L519.528,418.5C519.36,418.5 519.24,418.416 519.168,418.248L515.892,406.62C515.58,405.492 515.304,404.376 515.064,403.272C514.824,402.144 514.608,401.1 514.416,400.14L514.344,400.14C514.392,400.836 514.428,401.652 514.452,402.588C514.5,403.524 514.536,404.46 514.56,405.396C514.584,406.308 514.596,407.112 514.596,407.808L514.596,418.104C514.596,418.368 514.5,418.5 514.308,418.5L511.356,418.5Z" style="fill:rgb(23,22,22);fill-rule:nonzero;"/>
                                </g>
                                <g>
                                    <path d="M580,389.5L580,426.5C580,428.156 578.656,429.5 577,429.5L548,429.5C546.344,429.5 545,428.156 545,426.5L545,389.5C545,387.844 546.344,386.5 548,386.5L577,386.5C578.656,386.5 580,387.844 580,389.5Z" style="fill:rgb(45,44,43);"/>
                                    <path d="M554.558,418.5C554.342,418.5 554.234,418.368 554.234,418.104L554.522,395.316C554.522,395.052 554.642,394.92 554.882,394.92L558.806,394.92C559.046,394.92 559.178,395.016 559.202,395.208L562.478,407.844L565.79,395.208C565.814,395.016 565.946,394.92 566.186,394.92L570.11,394.92C570.326,394.92 570.434,395.052 570.434,395.316L570.758,418.104C570.758,418.368 570.65,418.5 570.434,418.5L567.374,418.5C567.158,418.5 567.05,418.368 567.05,418.104L566.942,406.44C566.918,405.384 566.918,404.388 566.942,403.452C566.99,402.492 567.038,401.616 567.086,400.824L567.05,400.824C566.882,401.568 566.69,402.324 566.474,403.092C566.258,403.836 566.03,404.58 565.79,405.324L562.91,415.188C562.862,415.38 562.742,415.476 562.55,415.476L562.406,415.476C562.238,415.476 562.13,415.38 562.082,415.188L559.166,405.324C558.926,404.58 558.698,403.836 558.482,403.092C558.29,402.324 558.11,401.568 557.942,400.824L557.87,400.824C557.942,401.616 557.99,402.492 558.014,403.452C558.062,404.388 558.074,405.384 558.05,406.44L557.942,418.104C557.942,418.368 557.834,418.5 557.618,418.5L554.558,418.5Z" style="fill:rgb(23,22,22);fill-rule:nonzero;"/>
                                </g>
                                <g>
                                    <path d="M625,389.5L625,426.5C625,428.156 623.656,429.5 622,429.5L593,429.5C591.344,429.5 590,428.156 590,426.5L590,389.5C590,387.844 591.344,386.5 593,386.5L622,386.5C623.656,386.5 625,387.844 625,389.5Z" style="fill:rgb(45,44,43);"/>
                                    <path d="M618.75,397.875L601.875,397.875C601.099,397.875 600.491,398.269 600.086,398.865L594,408L600.086,417.124C600.491,417.72 601.099,418.125 601.875,418.125L618.75,418.125C619.988,418.125 621,417.113 621,415.875L621,400.125C621,398.887 619.988,397.875 618.75,397.875ZM618.75,415.875L601.954,415.875L596.7,408L601.942,400.125L618.75,400.125L618.75,415.875ZM605.711,413.625L609.75,409.586L613.789,413.625L615.375,412.039L611.336,408L615.375,403.961L613.789,402.375L609.75,406.414L605.711,402.375L604.125,403.961L608.164,408L604.125,412.039L605.711,413.625Z" style="fill:rgb(23,22,22);fill-rule:nonzero;"/>
                                </g>
                            </g>
                        </g>
                    </g>
                </g>
            </g>
            <g id="keyboard">
                <path d="M685.439,385C685.065,385 684.879,384.76 684.879,384.28L684.879,333.32C684.879,332.84 685.065,332.6 685.439,332.6L689.519,332.6C689.892,332.6 690.079,332.84 690.079,333.32L690.079,350.28C690.079,351.4 690.052,352.547 689.999,353.72C689.999,354.84 689.972,355.96 689.919,357.08C689.919,358.147 689.892,359.267 689.839,360.44L689.919,360.44C690.612,358.68 691.332,356.973 692.079,355.32C692.825,353.667 693.599,352.013 694.399,350.36L703.039,332.92C703.092,332.707 703.305,332.6 703.679,332.6L708.399,332.6C708.932,332.6 709.039,332.893 708.719,333.48L697.999,353.72L709.759,384.12C710.025,384.707 709.919,385 709.439,385L704.559,385C704.239,385 704.025,384.84 703.919,384.52L694.719,359.72L690.079,368.44L690.079,384.28C690.079,384.76 689.892,385 689.519,385L685.439,385ZM714.425,385C713.998,385 713.785,384.76 713.785,384.28L713.785,333.32C713.785,332.84 713.972,332.6 714.345,332.6L732.425,332.6C732.798,332.6 732.985,332.84 732.985,333.32L732.985,336.92C732.985,337.4 732.798,337.64 732.425,337.64L718.985,337.64L718.985,355.88L731.305,355.88C731.678,355.88 731.865,356.12 731.865,356.6L731.865,359.96C731.865,360.44 731.678,360.68 731.305,360.68L718.985,360.68L718.985,379.96L732.425,379.96C732.798,379.96 732.985,380.2 732.985,380.68L732.985,384.28C732.985,384.76 732.798,385 732.425,385L714.425,385ZM747.946,385C747.572,385 747.386,384.76 747.386,384.28L747.386,367.08L736.986,333.48C736.826,332.893 736.959,332.6 737.386,332.6L742.106,332.6C742.426,332.6 742.612,332.76 742.666,333.08L747.546,351.16C747.972,352.653 748.372,354.2 748.746,355.8C749.172,357.347 749.572,358.893 749.946,360.44L750.026,360.44C750.452,358.893 750.879,357.347 751.306,355.8C751.732,354.2 752.132,352.627 752.506,351.08L757.386,333.08C757.492,332.76 757.679,332.6 757.946,332.6L762.506,332.6C762.932,332.6 763.092,332.893 762.986,333.48L752.586,367L752.586,384.28C752.586,384.76 752.426,385 752.106,385L747.946,385ZM768.568,385C768.088,385 767.848,384.76 767.848,384.28L767.848,333.32C767.848,332.84 768.088,332.6 768.568,332.6L776.248,332.6C780.621,332.6 783.821,333.667 785.848,335.8C787.928,337.88 788.968,341.08 788.968,345.4C788.968,348.227 788.488,350.627 787.528,352.6C786.621,354.573 785.234,356.12 783.368,357.24L783.368,357.4C785.661,358.147 787.394,359.613 788.568,361.8C789.794,363.987 790.408,366.813 790.408,370.28C790.408,375.08 789.314,378.733 787.128,381.24C784.941,383.747 781.714,385 777.448,385L768.568,385ZM773.048,379.96L777.288,379.96C779.954,379.96 781.928,379.16 783.208,377.56C784.541,375.907 785.208,373.347 785.208,369.88C785.208,366.573 784.568,364.147 783.288,362.6C782.061,361.053 780.141,360.28 777.528,360.28L773.048,360.28L773.048,379.96ZM773.048,355.4L776.968,355.4C779.208,355.4 780.888,354.627 782.008,353.08C783.181,351.48 783.768,349.16 783.768,346.12C783.768,343.08 783.208,340.92 782.088,339.64C780.968,338.307 779.181,337.64 776.728,337.64L773.048,337.64L773.048,355.4ZM808.748,385.48C804.748,385.48 801.655,384.253 799.468,381.8C797.335,379.347 796.268,375.64 796.268,370.68L796.268,347.08C796.268,342.013 797.335,338.253 799.468,335.8C801.655,333.347 804.748,332.12 808.748,332.12C812.748,332.12 815.841,333.347 818.028,335.8C820.215,338.253 821.308,342.013 821.308,347.08L821.308,370.68C821.308,375.64 820.215,379.347 818.028,381.8C815.841,384.253 812.748,385.48 808.748,385.48ZM808.748,380.44C811.148,380.44 812.961,379.64 814.188,378.04C815.468,376.387 816.108,373.8 816.108,370.28L816.108,347.4C816.108,343.827 815.468,341.24 814.188,339.64C812.961,337.987 811.148,337.16 808.748,337.16C806.401,337.16 804.588,337.987 803.308,339.64C802.081,341.24 801.468,343.827 801.468,347.4L801.468,370.28C801.468,373.8 802.081,376.387 803.308,378.04C804.588,379.64 806.401,380.44 808.748,380.44ZM825.101,385C824.728,385 824.568,384.733 824.621,384.2L835.021,333.16C835.075,332.787 835.315,332.6 835.741,332.6L841.341,332.6C841.768,332.6 842.008,332.787 842.061,333.16L852.541,384.2C852.595,384.733 852.435,385 852.061,385L847.661,385C847.341,385 847.128,384.84 847.021,384.52L840.541,349.88C840.168,348.013 839.795,346.173 839.421,344.36C839.101,342.493 838.808,340.627 838.541,338.76L838.381,338.76C838.115,340.627 837.821,342.493 837.501,344.36C837.235,346.173 836.915,348.04 836.541,349.96L830.061,384.52C830.008,384.84 829.821,385 829.501,385L825.101,385ZM831.501,372.12L832.461,367.08L844.461,367.08L845.581,372.12L831.501,372.12ZM857.079,385C856.706,385 856.519,384.76 856.519,384.28L856.519,333.32C856.519,332.84 856.706,332.6 857.079,332.6L865.879,332.6C870.306,332.6 873.533,333.773 875.559,336.12C877.639,338.467 878.679,342.04 878.679,346.84C878.679,350.84 878.093,354.013 876.919,356.36C875.799,358.653 874.226,360.2 872.199,361L872.199,361.08L880.439,384.12C880.546,384.707 880.359,385 879.879,385L875.479,385C875.213,385 874.999,384.84 874.839,384.52L867.079,362.2L861.719,362.2L861.719,384.28C861.719,384.76 861.533,385 861.159,385L857.079,385ZM861.719,357.4L866.039,357.4C868.706,357.4 870.599,356.573 871.719,354.92C872.893,353.213 873.479,350.653 873.479,347.24C873.479,343.773 872.839,341.32 871.559,339.88C870.333,338.387 868.413,337.64 865.799,337.64L861.719,337.64L861.719,357.4ZM887.005,385C886.525,385 886.285,384.76 886.285,384.28L886.285,333.32C886.285,332.84 886.498,332.6 886.925,332.6L894.765,332.6C900.258,332.6 904.312,334.333 906.925,337.8C909.592,341.213 910.925,346.493 910.925,353.64L910.925,361.56C910.925,369.507 909.645,375.4 907.085,379.24C904.525,383.08 900.552,385 895.165,385L887.005,385ZM891.485,379.96L894.765,379.96C898.712,379.96 901.512,378.547 903.165,375.72C904.872,372.84 905.725,368.253 905.725,361.96L905.725,353.48C905.725,347.987 904.845,343.987 903.085,341.48C901.325,338.92 898.472,337.64 894.525,337.64L891.485,337.64L891.485,379.96Z" style="fill:rgb(249,248,245);fill-rule:nonzero;"/>
            </g>
            <g id="firmware">
                <path d="M891.024,415C890.954,415 890.905,414.958 890.877,414.874L888.231,401.455C888.217,401.315 888.259,401.245 888.357,401.245L889.491,401.245C889.589,401.245 889.645,401.287 889.659,401.371L891.339,410.422C891.423,410.912 891.5,411.409 891.57,411.913C891.654,412.403 891.731,412.893 891.801,413.383L891.843,413.383C891.913,412.893 891.99,412.403 892.074,411.913C892.158,411.409 892.242,410.912 892.326,410.422L894.006,401.392C894.02,401.294 894.069,401.245 894.153,401.245L895.308,401.245C895.406,401.245 895.448,401.315 895.434,401.455L892.788,414.853C892.76,414.951 892.711,415 892.641,415L891.024,415ZM896.321,415C896.195,415 896.132,414.937 896.132,414.811L896.132,413.845C896.132,413.719 896.195,413.656 896.321,413.656L898.19,413.656L898.211,402.904L896.363,403.639C896.321,403.653 896.279,403.653 896.237,403.639C896.209,403.611 896.195,403.569 896.195,403.513L896.195,402.526C896.195,402.442 896.237,402.379 896.321,402.337L899.03,401.224C899.1,401.182 899.17,401.161 899.24,401.161L899.387,401.161C899.513,401.161 899.576,401.224 899.576,401.35L899.576,413.656L901.277,413.656C901.403,413.656 901.466,413.719 901.466,413.845L901.466,414.811C901.466,414.937 901.403,415 901.277,415L896.321,415ZM903.81,415.126C903.516,415.126 903.285,415.049 903.117,414.895C902.963,414.741 902.886,414.51 902.886,414.202L902.886,414.034C902.886,413.726 902.963,413.495 903.117,413.341C903.285,413.187 903.516,413.11 903.81,413.11C904.118,413.11 904.349,413.187 904.503,413.341C904.657,413.495 904.734,413.726 904.734,414.034L904.734,414.202C904.734,414.51 904.657,414.741 904.503,414.895C904.349,415.049 904.118,415.126 903.81,415.126ZM907.053,415C906.927,415 906.864,414.937 906.864,414.811L906.864,413.635C906.864,412.795 906.962,412.074 907.158,411.472C907.354,410.87 907.606,410.345 907.914,409.897C908.222,409.435 908.551,409.015 908.901,408.637C909.251,408.259 909.58,407.881 909.888,407.503C910.196,407.111 910.448,406.691 910.644,406.243C910.84,405.781 910.938,405.242 910.938,404.626L910.938,404.227C910.938,403.569 910.833,403.107 910.623,402.841C910.427,402.575 910.091,402.442 909.615,402.442C909.111,402.442 908.761,402.631 908.565,403.009C908.369,403.387 908.278,403.926 908.292,404.626C908.292,404.752 908.229,404.815 908.103,404.815L907.158,404.815C907.032,404.815 906.969,404.752 906.969,404.626C906.955,403.464 907.165,402.589 907.599,402.001C908.047,401.413 908.726,401.119 909.636,401.119C910.518,401.119 911.183,401.378 911.631,401.896C912.093,402.414 912.324,403.226 912.324,404.332C912.324,405.172 912.226,405.879 912.03,406.453C911.834,407.027 911.582,407.524 911.274,407.944C910.98,408.35 910.658,408.735 910.308,409.099C909.958,409.463 909.629,409.848 909.321,410.254C909.027,410.646 908.782,411.115 908.586,411.661C908.39,412.207 908.292,412.872 908.292,413.656L912.114,413.656C912.226,413.656 912.282,413.719 912.282,413.845L912.282,414.811C912.282,414.937 912.226,415 912.114,415L907.053,415Z" style="fill:rgb(189,186,178);fill-rule:nonzero;"/>
            </g>
        </g>
    </g>
    <g id="nfcLogoTxtArrow" transform="matrix(1,0,0,1,-445,-105.02)">
        <path d="M815,195.667C812.054,195.667 809.667,198.054 809.667,201C809.667,203.946 812.054,206.333 815,206.333C817.946,206.333 820.333,203.946 820.333,201C820.333,198.054 817.946,195.667 815,195.667ZM814,201L816,201L816,63L814,63L814,201Z" style="fill:rgb(244,104,44);fill-rule:nonzero;"/>
    </g>
    <g id="firmwareArrow" transform="matrix(1,0,0,1,-445,-105.02)">
        <path d="M925.333,408C925.333,405.054 922.946,402.667 920,402.667C917.054,402.667 914.667,405.054 914.667,408C914.667,410.946 917.054,413.333 920,413.333C922.946,413.333 925.333,410.946 925.333,408ZM920,407L920,409L1010,409L1010,407L920,407Z" style="fill:rgb(244,104,44);fill-rule:nonzero;"/>
    </g>
    <g id="keyboardArrow" transform="matrix(1,0,0,1,-445,-105.02)">
        <path d="M529.667,359C529.667,361.946 532.054,364.333 535,364.333C537.946,364.333 540.333,361.946 540.333,359C540.333,356.054 537.946,353.667 535,353.667C532.054,353.667 529.667,356.054 529.667,359ZM535,360L535,358L413,358L413,360L535,360Z" style="fill:rgb(244,104,44);fill-rule:nonzero;"/>
    </g>
</svg>
