<?xml version="1.0" encoding="UTF-8" standalone="no"?>
<!DOCTYPE svg PUBLIC "-//W3C//DTD SVG 1.1//EN" "http://www.w3.org/Graphics/SVG/1.1/DTD/svg11.dtd">
<svg width="100%" height="100%" viewBox="0 0 480 320" version="1.1" xmlns="http://www.w3.org/2000/svg" xmlns:xlink="http://www.w3.org/1999/xlink" xml:space="preserve" xmlns:serif="http://www.serif.com/" style="fill-rule:evenodd;clip-rule:evenodd;stroke-linejoin:round;stroke-miterlimit:2;">
    <g id="Start">
        <rect x="0" y="0" width="480" height="320" style="fill:rgb(99,99,99);"/>
        <g id="startTop">
            <g>
                <clipPath id="_clip1">
                    <path d="M475,10L475,183C475,185.76 472.76,188 470,188L10,188C7.24,188 5,185.76 5,183L5,10C5,7.24 7.24,5 10,5L470,5C472.76,5 475,7.24 475,10Z"/>
                </clipPath>
                <g clip-path="url(#_clip1)">
                    <path d="M475,10L475,183C475,185.76 472.76,188 470,188L10,188C7.24,188 5,185.76 5,183L5,10C5,7.24 7.24,5 10,5L470,5C472.76,5 475,7.24 475,10Z" style="fill:rgb(33,32,32);"/>
                    <g id="textLeft">
                        <g id="nfcTitle">
                            <path id="NFC" d="M19.64,123C19.32,123 19.16,122.76 19.16,122.28L19.16,71.32C19.16,70.84 19.347,70.6 19.72,70.6L26.28,70.6C26.653,70.6 26.867,70.76 26.92,71.08L35.56,101.8C35.987,103.187 36.413,104.76 36.84,106.52C37.267,108.227 37.667,109.96 38.04,111.72C38.467,113.427 38.813,114.973 39.08,116.36L39.24,116.36C39.187,115.293 39.133,114.12 39.08,112.84C39.027,111.56 38.973,110.253 38.92,108.92C38.92,107.587 38.893,106.28 38.84,105L38.84,71.24C38.84,70.813 39.027,70.6 39.4,70.6L43.32,70.6C43.693,70.6 43.88,70.813 43.88,71.24L43.88,122.28C43.88,122.76 43.693,123 43.32,123L36.76,123C36.493,123 36.307,122.867 36.2,122.6L27.8,92.84C27,90.013 26.307,87.293 25.72,84.68C25.133,82.013 24.6,79.533 24.12,77.24L23.96,77.24C24.013,78.787 24.04,80.52 24.04,82.44C24.093,84.307 24.12,86.2 24.12,88.12C24.173,89.987 24.2,91.693 24.2,93.24L24.2,122.28C24.2,122.76 24.04,123 23.72,123L19.64,123ZM52.609,123C52.289,123 52.129,122.76 52.129,122.28L52.129,71.32C52.129,70.84 52.315,70.6 52.689,70.6L70.769,70.6C71.142,70.6 71.329,70.84 71.329,71.32L71.329,74.92C71.329,75.4 71.142,75.64 70.769,75.64L57.329,75.64L57.329,94.68L69.009,94.68C69.435,94.68 69.649,94.92 69.649,95.4L69.649,98.76C69.649,99.24 69.435,99.48 69.009,99.48L57.329,99.48L57.329,122.28C57.329,122.76 57.169,123 56.849,123L52.609,123ZM88.811,123.48C84.757,123.48 81.664,122.173 79.531,119.56C77.397,116.947 76.331,113 76.331,107.72L76.331,85.88C76.331,80.6 77.397,76.653 79.531,74.04C81.664,71.427 84.757,70.12 88.811,70.12C91.744,70.12 94.171,70.84 96.091,72.28C98.011,73.667 99.371,75.667 100.171,78.28C100.971,80.84 101.157,83.907 100.731,87.48C100.624,87.907 100.437,88.12 100.171,88.12L96.091,88.12C95.611,88.12 95.424,87.853 95.531,87.32C95.851,83.32 95.451,80.307 94.331,78.28C93.264,76.2 91.424,75.16 88.811,75.16C86.464,75.16 84.651,76.04 83.371,77.8C82.144,79.56 81.531,82.387 81.531,86.28L81.531,107.32C81.531,111.16 82.144,113.987 83.371,115.8C84.651,117.56 86.464,118.44 88.811,118.44C91.584,118.44 93.477,117.347 94.491,115.16C95.557,112.973 95.957,110.013 95.691,106.28C95.584,105.747 95.771,105.48 96.251,105.48L100.011,105.48C100.491,105.48 100.757,105.747 100.811,106.28C101.131,111.773 100.277,116.013 98.251,119C96.224,121.987 93.077,123.48 88.811,123.48Z" style="fill:rgb(249,248,245);fill-rule:nonzero;"/>
                        </g>
                        <g id="bottom">
                            <path id="scanning-to-the-right" serif:id="scanning to the right" d="M18.34,161.12C17.62,161.12 17.047,160.96 16.62,160.64C16.193,160.32 15.9,159.887 15.74,159.34C15.58,158.78 15.527,158.147 15.58,157.44C15.593,157.307 15.64,157.24 15.72,157.24L16.72,157.24C16.827,157.24 16.873,157.307 16.86,157.44C16.767,158.253 16.853,158.86 17.12,159.26C17.4,159.66 17.827,159.86 18.4,159.86C18.92,159.86 19.307,159.707 19.56,159.4C19.827,159.08 19.96,158.587 19.96,157.92C19.96,157.333 19.88,156.853 19.72,156.48C19.56,156.093 19.28,155.753 18.88,155.46L17.26,154.18C16.713,153.753 16.307,153.273 16.04,152.74C15.787,152.193 15.66,151.54 15.66,150.78C15.673,149.833 15.913,149.1 16.38,148.58C16.86,148.047 17.52,147.78 18.36,147.78C19.347,147.78 20.067,148.1 20.52,148.74C20.987,149.38 21.167,150.253 21.06,151.36C21.06,151.507 21.013,151.58 20.92,151.58L19.9,151.58C19.807,151.58 19.767,151.507 19.78,151.36C19.86,150.613 19.773,150.04 19.52,149.64C19.267,149.24 18.887,149.04 18.38,149.04C17.953,149.04 17.613,149.18 17.36,149.46C17.107,149.74 16.973,150.167 16.96,150.74C16.96,151.273 17.053,151.727 17.24,152.1C17.427,152.473 17.713,152.813 18.1,153.12L19.66,154.34C20.047,154.633 20.353,154.947 20.58,155.28C20.82,155.6 20.993,155.973 21.1,156.4C21.207,156.813 21.26,157.3 21.26,157.86C21.26,158.873 21.02,159.673 20.54,160.26C20.073,160.833 19.34,161.12 18.34,161.12ZM25.977,161.12C24.963,161.12 24.19,160.793 23.657,160.14C23.123,159.487 22.857,158.5 22.857,157.18L22.857,151.72C22.857,150.4 23.123,149.413 23.657,148.76C24.19,148.107 24.963,147.78 25.977,147.78C26.71,147.78 27.317,147.96 27.797,148.32C28.277,148.667 28.617,149.167 28.817,149.82C29.017,150.46 29.064,151.227 28.957,152.12C28.93,152.227 28.884,152.28 28.817,152.28L27.797,152.28C27.677,152.28 27.63,152.213 27.657,152.08C27.737,151.08 27.637,150.327 27.357,149.82C27.09,149.3 26.63,149.04 25.977,149.04C25.39,149.04 24.937,149.26 24.617,149.7C24.31,150.14 24.157,150.847 24.157,151.82L24.157,157.08C24.157,158.04 24.31,158.747 24.617,159.2C24.937,159.64 25.39,159.86 25.977,159.86C26.67,159.86 27.143,159.587 27.397,159.04C27.663,158.493 27.764,157.753 27.697,156.82C27.67,156.687 27.717,156.62 27.837,156.62L28.777,156.62C28.897,156.62 28.963,156.687 28.977,156.82C29.057,158.193 28.843,159.253 28.337,160C27.83,160.747 27.044,161.12 25.977,161.12ZM30.128,161C30.035,161 29.995,160.933 30.008,160.8L32.608,148.04C32.622,147.947 32.682,147.9 32.788,147.9L34.188,147.9C34.295,147.9 34.355,147.947 34.368,148.04L36.988,160.8C37.002,160.933 36.962,161 36.868,161L35.768,161C35.688,161 35.635,160.96 35.608,160.88L33.988,152.22C33.895,151.753 33.802,151.293 33.708,150.84C33.628,150.373 33.555,149.907 33.488,149.44L33.448,149.44C33.382,149.907 33.308,150.373 33.228,150.84C33.162,151.293 33.082,151.76 32.988,152.24L31.368,160.88C31.355,160.96 31.308,161 31.228,161L30.128,161ZM31.728,157.78L31.968,156.52L34.968,156.52L35.248,157.78L31.728,157.78ZM38.303,161C38.223,161 38.183,160.94 38.183,160.82L38.183,148.08C38.183,147.96 38.23,147.9 38.323,147.9L39.963,147.9C40.056,147.9 40.11,147.94 40.123,148.02L42.283,155.7C42.39,156.047 42.496,156.44 42.603,156.88C42.71,157.307 42.81,157.74 42.903,158.18C43.01,158.607 43.096,158.993 43.163,159.34L43.203,159.34C43.19,159.073 43.176,158.78 43.163,158.46C43.15,158.14 43.136,157.813 43.123,157.48C43.123,157.147 43.116,156.82 43.103,156.5L43.103,148.06C43.103,147.953 43.15,147.9 43.243,147.9L44.223,147.9C44.316,147.9 44.363,147.953 44.363,148.06L44.363,160.82C44.363,160.94 44.316,161 44.223,161L42.583,161C42.516,161 42.47,160.967 42.443,160.9L40.343,153.46C40.143,152.753 39.97,152.073 39.823,151.42C39.676,150.753 39.543,150.133 39.423,149.56L39.383,149.56C39.396,149.947 39.403,150.38 39.403,150.86C39.416,151.327 39.423,151.8 39.423,152.28C39.436,152.747 39.443,153.173 39.443,153.56L39.443,160.82C39.443,160.94 39.403,161 39.323,161L38.303,161ZM46.745,161C46.665,161 46.625,160.94 46.625,160.82L46.625,148.08C46.625,147.96 46.672,147.9 46.765,147.9L48.405,147.9C48.498,147.9 48.552,147.94 48.565,148.02L50.725,155.7C50.832,156.047 50.938,156.44 51.045,156.88C51.152,157.307 51.252,157.74 51.345,158.18C51.452,158.607 51.538,158.993 51.605,159.34L51.645,159.34C51.632,159.073 51.618,158.78 51.605,158.46C51.592,158.14 51.578,157.813 51.565,157.48C51.565,157.147 51.559,156.82 51.545,156.5L51.545,148.06C51.545,147.953 51.592,147.9 51.685,147.9L52.665,147.9C52.758,147.9 52.805,147.953 52.805,148.06L52.805,160.82C52.805,160.94 52.758,161 52.665,161L51.025,161C50.959,161 50.912,160.967 50.885,160.9L48.785,153.46C48.585,152.753 48.412,152.073 48.265,151.42C48.118,150.753 47.985,150.133 47.865,149.56L47.825,149.56C47.839,149.947 47.845,150.38 47.845,150.86C47.858,151.327 47.865,151.8 47.865,152.28C47.879,152.747 47.885,153.173 47.885,153.56L47.885,160.82C47.885,160.94 47.845,161 47.765,161L46.745,161ZM55.207,161C55.114,161 55.067,160.94 55.067,160.82L55.067,148.08C55.067,147.96 55.114,147.9 55.207,147.9L56.227,147.9C56.321,147.9 56.367,147.96 56.367,148.08L56.367,160.82C56.367,160.94 56.321,161 56.227,161L55.207,161ZM58.747,161C58.667,161 58.627,160.94 58.627,160.82L58.627,148.08C58.627,147.96 58.673,147.9 58.767,147.9L60.407,147.9C60.5,147.9 60.553,147.94 60.567,148.02L62.727,155.7C62.833,156.047 62.94,156.44 63.047,156.88C63.153,157.307 63.253,157.74 63.347,158.18C63.453,158.607 63.54,158.993 63.607,159.34L63.647,159.34C63.633,159.073 63.62,158.78 63.607,158.46C63.593,158.14 63.58,157.813 63.567,157.48C63.567,157.147 63.56,156.82 63.547,156.5L63.547,148.06C63.547,147.953 63.593,147.9 63.687,147.9L64.667,147.9C64.76,147.9 64.807,147.953 64.807,148.06L64.807,160.82C64.807,160.94 64.76,161 64.667,161L63.027,161C62.96,161 62.913,160.967 62.887,160.9L60.787,153.46C60.587,152.753 60.413,152.073 60.267,151.42C60.12,150.753 59.987,150.133 59.867,149.56L59.827,149.56C59.84,149.947 59.847,150.38 59.847,150.86C59.86,151.327 59.867,151.8 59.867,152.28C59.88,152.747 59.887,153.173 59.887,153.56L59.887,160.82C59.887,160.94 59.847,161 59.767,161L58.747,161ZM69.689,161.12C68.729,161.12 68.022,160.807 67.569,160.18C67.116,159.54 66.889,158.58 66.889,157.3L66.889,151.68C66.889,150.413 67.156,149.447 67.689,148.78C68.222,148.113 68.989,147.78 69.989,147.78C71.042,147.78 71.836,148.147 72.369,148.88C72.902,149.613 73.116,150.627 73.009,151.92C73.009,152.027 72.962,152.08 72.869,152.08L71.829,152.08C71.722,152.08 71.682,152.027 71.709,151.92C71.802,151.013 71.696,150.307 71.389,149.8C71.082,149.293 70.629,149.04 70.029,149.04C69.416,149.04 68.956,149.26 68.649,149.7C68.342,150.14 68.189,150.82 68.189,151.74L68.189,157.2C68.189,158.147 68.322,158.827 68.589,159.24C68.856,159.653 69.302,159.86 69.929,159.86C70.556,159.86 71.029,159.607 71.349,159.1C71.669,158.593 71.829,157.813 71.829,156.76L71.829,155.64L70.169,155.64C70.076,155.64 70.029,155.58 70.029,155.46L70.029,154.58C70.029,154.46 70.076,154.4 70.169,154.4L72.949,154.4C73.042,154.4 73.089,154.46 73.089,154.58L73.089,158.44C73.089,159.027 73.096,159.493 73.109,159.84C73.122,160.173 73.149,160.493 73.189,160.8C73.202,160.933 73.162,161 73.069,161L72.249,161C72.142,161 72.089,160.953 72.089,160.86C72.062,160.687 72.042,160.487 72.029,160.26C72.016,160.033 72.002,159.747 71.989,159.4L71.969,159.4C71.796,159.933 71.516,160.353 71.129,160.66C70.756,160.967 70.276,161.12 69.689,161.12ZM79.794,161C79.701,161 79.654,160.94 79.654,160.82L79.654,149.16L77.554,149.16C77.447,149.16 77.394,149.1 77.394,148.98L77.394,148.08C77.394,147.96 77.447,147.9 77.554,147.9L83.054,147.9C83.147,147.9 83.194,147.96 83.194,148.08L83.194,148.98C83.194,149.1 83.147,149.16 83.054,149.16L80.954,149.16L80.954,160.82C80.954,160.94 80.901,161 80.794,161L79.794,161ZM87.445,161.12C86.445,161.12 85.671,160.813 85.125,160.2C84.591,159.587 84.325,158.66 84.325,157.42L84.325,151.52C84.325,150.253 84.591,149.313 85.125,148.7C85.671,148.087 86.445,147.78 87.445,147.78C88.445,147.78 89.218,148.087 89.765,148.7C90.311,149.313 90.585,150.253 90.585,151.52L90.585,157.42C90.585,158.66 90.311,159.587 89.765,160.2C89.218,160.813 88.445,161.12 87.445,161.12ZM87.445,159.86C88.045,159.86 88.498,159.66 88.805,159.26C89.125,158.847 89.285,158.2 89.285,157.32L89.285,151.6C89.285,150.707 89.125,150.06 88.805,149.66C88.498,149.247 88.045,149.04 87.445,149.04C86.858,149.04 86.405,149.247 86.085,149.66C85.778,150.06 85.625,150.707 85.625,151.6L85.625,157.32C85.625,158.2 85.778,158.847 86.085,159.26C86.405,159.66 86.858,159.86 87.445,159.86ZM97.093,161C97,161 96.953,160.94 96.953,160.82L96.953,149.16L94.853,149.16C94.746,149.16 94.693,149.1 94.693,148.98L94.693,148.08C94.693,147.96 94.746,147.9 94.853,147.9L100.353,147.9C100.446,147.9 100.493,147.96 100.493,148.08L100.493,148.98C100.493,149.1 100.446,149.16 100.353,149.16L98.253,149.16L98.253,160.82C98.253,160.94 98.2,161 98.093,161L97.093,161ZM102.217,161C102.124,161 102.077,160.94 102.077,160.82L102.077,148.08C102.077,147.96 102.124,147.9 102.217,147.9L103.237,147.9C103.331,147.9 103.377,147.96 103.377,148.08L103.377,153.6L106.937,153.6L106.937,148.08C106.937,147.96 106.984,147.9 107.077,147.9L108.077,147.9C108.184,147.9 108.237,147.96 108.237,148.08L108.237,160.82C108.237,160.94 108.184,161 108.077,161L107.077,161C106.984,161 106.937,160.94 106.937,160.82L106.937,154.84L103.377,154.84L103.377,160.82C103.377,160.94 103.331,161 103.237,161L102.217,161ZM110.66,161C110.553,161 110.5,160.94 110.5,160.82L110.5,148.08C110.5,147.96 110.547,147.9 110.64,147.9L115.16,147.9C115.253,147.9 115.3,147.96 115.3,148.08L115.3,148.98C115.3,149.1 115.253,149.16 115.16,149.16L111.8,149.16L111.8,153.72L114.88,153.72C114.973,153.72 115.02,153.78 115.02,153.9L115.02,154.74C115.02,154.86 114.973,154.92 114.88,154.92L111.8,154.92L111.8,159.74L115.16,159.74C115.253,159.74 115.3,159.8 115.3,159.92L115.3,160.82C115.3,160.94 115.253,161 115.16,161L110.66,161ZM120.2,161C120.107,161 120.06,160.94 120.06,160.82L120.06,148.08C120.06,147.96 120.107,147.9 120.2,147.9L122.4,147.9C123.507,147.9 124.314,148.193 124.82,148.78C125.34,149.367 125.6,150.26 125.6,151.46C125.6,152.46 125.454,153.253 125.16,153.84C124.88,154.413 124.487,154.8 123.98,155L123.98,155.02L126.04,160.78C126.067,160.927 126.02,161 125.9,161L124.8,161C124.734,161 124.68,160.96 124.64,160.88L122.7,155.3L121.36,155.3L121.36,160.82C121.36,160.94 121.314,161 121.22,161L120.2,161ZM121.36,154.1L122.44,154.1C123.107,154.1 123.58,153.893 123.86,153.48C124.154,153.053 124.3,152.413 124.3,151.56C124.3,150.693 124.14,150.08 123.82,149.72C123.514,149.347 123.034,149.16 122.38,149.16L121.36,149.16L121.36,154.1ZM127.842,161C127.748,161 127.702,160.94 127.702,160.82L127.702,148.08C127.702,147.96 127.748,147.9 127.842,147.9L128.862,147.9C128.955,147.9 129.002,147.96 129.002,148.08L129.002,160.82C129.002,160.94 128.955,161 128.862,161L127.842,161ZM133.881,161.12C132.921,161.12 132.214,160.807 131.761,160.18C131.308,159.54 131.081,158.58 131.081,157.3L131.081,151.68C131.081,150.413 131.348,149.447 131.881,148.78C132.414,148.113 133.181,147.78 134.181,147.78C135.234,147.78 136.028,148.147 136.561,148.88C137.094,149.613 137.308,150.627 137.201,151.92C137.201,152.027 137.154,152.08 137.061,152.08L136.021,152.08C135.914,152.08 135.874,152.027 135.901,151.92C135.994,151.013 135.888,150.307 135.581,149.8C135.274,149.293 134.821,149.04 134.221,149.04C133.608,149.04 133.148,149.26 132.841,149.7C132.534,150.14 132.381,150.82 132.381,151.74L132.381,157.2C132.381,158.147 132.514,158.827 132.781,159.24C133.048,159.653 133.494,159.86 134.121,159.86C134.748,159.86 135.221,159.607 135.541,159.1C135.861,158.593 136.021,157.813 136.021,156.76L136.021,155.64L134.361,155.64C134.268,155.64 134.221,155.58 134.221,155.46L134.221,154.58C134.221,154.46 134.268,154.4 134.361,154.4L137.141,154.4C137.234,154.4 137.281,154.46 137.281,154.58L137.281,158.44C137.281,159.027 137.288,159.493 137.301,159.84C137.314,160.173 137.341,160.493 137.381,160.8C137.394,160.933 137.354,161 137.261,161L136.441,161C136.334,161 136.281,160.953 136.281,160.86C136.254,160.687 136.234,160.487 136.221,160.26C136.208,160.033 136.194,159.747 136.181,159.4L136.161,159.4C135.988,159.933 135.708,160.353 135.321,160.66C134.948,160.967 134.468,161.12 133.881,161.12ZM139.726,161C139.633,161 139.586,160.94 139.586,160.82L139.586,148.08C139.586,147.96 139.633,147.9 139.726,147.9L140.746,147.9C140.839,147.9 140.886,147.96 140.886,148.08L140.886,153.6L144.446,153.6L144.446,148.08C144.446,147.96 144.493,147.9 144.586,147.9L145.586,147.9C145.693,147.9 145.746,147.96 145.746,148.08L145.746,160.82C145.746,160.94 145.693,161 145.586,161L144.586,161C144.493,161 144.446,160.94 144.446,160.82L144.446,154.84L140.886,154.84L140.886,160.82C140.886,160.94 140.839,161 140.746,161L139.726,161ZM149.709,161C149.615,161 149.569,160.94 149.569,160.82L149.569,149.16L147.469,149.16C147.362,149.16 147.309,149.1 147.309,148.98L147.309,148.08C147.309,147.96 147.362,147.9 147.469,147.9L152.969,147.9C153.062,147.9 153.109,147.96 153.109,148.08L153.109,148.98C153.109,149.1 153.062,149.16 152.969,149.16L150.869,149.16L150.869,160.82C150.869,160.94 150.815,161 150.709,161L149.709,161Z" style="fill:rgb(189,186,178);fill-rule:nonzero;"/>
                        </g>
                    </g>
                    <g id="LogoRight">
                        <g id="Vector">
                            <path d="M347.751,47.157C347.751,47.157 355.036,44.075 359.672,49.006C364.308,53.937 376.229,73.047 376.229,92.156C376.229,111.265 370.931,131.608 365.633,138.388C360.334,145.169 355.036,145.169 351.062,142.703C347.088,140.238 285.496,96.471 282.185,95.238C278.874,94.006 277.549,97.087 280.86,113.732C284.172,130.375 278.874,135.307 274.237,135.923C269.601,136.539 255.694,132.84 255.032,98.321C254.369,63.8 264.303,58.252 268.939,58.252C277.65,58.252 343.794,113.832 348.413,113.115C352.387,112.498 354.374,89.074 346.426,70.581C337.821,50.557 347.751,47.157 347.751,47.157ZM454.213,12.636C476.459,53.755 475.101,92.635 474.924,96.738C475.101,100.313 476.459,139.245 454.213,180.363C454.213,180.363 448.418,186.528 439.808,182.829C431.199,179.131 434.179,169.268 434.179,169.268C434.179,169.268 452.206,136.874 451.729,97.087L451.738,96.471C452.206,56.679 434.179,23.732 434.179,23.732C434.179,23.732 431.199,13.869 439.808,10.171C448.418,6.472 454.213,12.636 454.213,12.636ZM411.067,31.13C429.212,61.951 427.982,92.635 427.804,96.738C427.982,100.313 429.212,129.759 411.091,163.074C411.091,163.074 405.297,169.239 396.687,165.54C388.077,161.842 391.057,151.979 391.057,151.979C391.057,151.979 402.721,136.539 404.61,97.087L404.618,96.471C403.383,57.019 391.033,42.225 391.033,42.225C391.033,42.225 388.053,32.362 396.662,28.664C405.272,24.965 411.067,31.13 411.067,31.13Z" style="fill:rgb(45,44,43);fill-rule:nonzero;"/>
                        </g>
                    </g>
                </g>
            </g>
        </g>
        <g id="startBottom">
            <path d="M475,198L475,310C475,312.76 472.76,315 470,315L10,315C7.24,315 5,312.76 5,310L5,198C5,195.24 7.24,193 10,193L470,193C472.76,193 475,195.24 475,198Z" style="fill:rgb(23,22,22);"/>
            <g id="KeybordIcon">
                <clipPath id="_clip2">
                    <rect x="5" y="193" width="220" height="122"/>
                </clipPath>
                <g clip-path="url(#_clip2)">
                    <g id="Frame-13" serif:id="Frame 13">
                        <g id="Top">
                            <g id="bogstav-5" serif:id="bogstav 5">
                                <path d="M45,184.5L45,221.5C45,223.156 43.656,224.5 42,224.5L13,224.5C11.344,224.5 10,223.156 10,221.5L10,184.5C10,182.844 11.344,181.5 13,181.5L42,181.5C43.656,181.5 45,182.844 45,184.5Z" style="fill:rgb(45,44,43);"/>
                                <path id="y" d="M25.959,213.5C25.743,213.5 25.635,213.368 25.635,213.104L25.635,205.4L20.667,190.388C20.571,190.076 20.655,189.92 20.919,189.92L24.411,189.92C24.603,189.92 24.711,190.016 24.735,190.208L26.535,197.336C26.703,198.008 26.871,198.704 27.039,199.424C27.207,200.12 27.363,200.816 27.507,201.512L27.543,201.512C27.711,200.816 27.867,200.12 28.011,199.424C28.179,198.704 28.347,197.996 28.515,197.3L30.315,190.208C30.339,190.016 30.447,189.92 30.639,189.92L34.059,189.92C34.323,189.92 34.407,190.076 34.311,190.388L29.379,205.364L29.379,213.104C29.379,213.368 29.283,213.5 29.091,213.5L25.959,213.5Z" style="fill:rgb(23,22,22);fill-rule:nonzero;"/>
                            </g>
                            <g id="bogstav-6" serif:id="bogstav 6">
                                <path d="M90,184.5L90,221.5C90,223.156 88.656,224.5 87,224.5L58,224.5C56.344,224.5 55,223.156 55,221.5L55,184.5C55,182.844 56.344,181.5 58,181.5L87,181.5C88.656,181.5 90,182.844 90,184.5Z" style="fill:rgb(45,44,43);"/>
                                <path id="u" d="M72.49,213.716C70.33,213.716 68.722,213.068 67.666,211.772C66.634,210.452 66.118,208.472 66.118,205.832L66.118,190.28C66.118,190.04 66.226,189.92 66.442,189.92L69.574,189.92C69.79,189.92 69.898,190.04 69.898,190.28L69.898,205.724C69.898,207.356 70.102,208.52 70.51,209.216C70.918,209.912 71.578,210.26 72.49,210.26C73.426,210.26 74.098,209.924 74.506,209.252C74.914,208.556 75.118,207.38 75.118,205.724L75.118,190.28C75.118,190.04 75.226,189.92 75.442,189.92L78.574,189.92C78.79,189.92 78.898,190.04 78.898,190.28L78.898,205.832C78.898,208.472 78.358,210.452 77.278,211.772C76.222,213.068 74.626,213.716 72.49,213.716Z" style="fill:rgb(23,22,22);fill-rule:nonzero;"/>
                            </g>
                            <g id="bogstav-7" serif:id="bogstav 7">
                                <path d="M135,184.5L135,221.5C135,223.156 133.656,224.5 132,224.5L103,224.5C101.344,224.5 100,223.156 100,221.5L100,184.5C100,182.844 101.344,181.5 103,181.5L132,181.5C133.656,181.5 135,182.844 135,184.5Z" style="fill:rgb(45,44,43);"/>
                                <path id="i" d="M115.927,213.5C115.711,213.5 115.603,213.368 115.603,213.104L115.603,190.316C115.603,190.052 115.711,189.92 115.927,189.92L119.059,189.92C119.275,189.92 119.383,190.052 119.383,190.316L119.383,213.104C119.383,213.368 119.275,213.5 119.059,213.5L115.927,213.5Z" style="fill:rgb(23,22,22);fill-rule:nonzero;"/>
                            </g>
                            <g id="bogstav-8" serif:id="bogstav 8">
                                <path d="M180,184.5L180,221.5C180,223.156 178.656,224.5 177,224.5L148,224.5C146.344,224.5 145,223.156 145,221.5L145,184.5C145,182.844 146.344,181.5 148,181.5L177,181.5C178.656,181.5 180,182.844 180,184.5Z" style="fill:rgb(45,44,43);"/>
                                <path id="o" d="M162.507,213.716C160.371,213.716 158.739,213.092 157.611,211.844C156.507,210.596 155.955,208.736 155.955,206.264L155.955,197.192C155.955,194.696 156.507,192.824 157.611,191.576C158.739,190.328 160.371,189.704 162.507,189.704C164.619,189.704 166.239,190.328 167.367,191.576C168.495,192.824 169.059,194.696 169.059,197.192L169.059,206.264C169.059,208.736 168.495,210.596 167.367,211.844C166.239,213.092 164.619,213.716 162.507,213.716ZM162.507,210.26C163.443,210.26 164.139,209.936 164.595,209.288C165.075,208.64 165.315,207.572 165.315,206.084L165.315,197.372C165.315,195.86 165.075,194.78 164.595,194.132C164.139,193.484 163.443,193.16 162.507,193.16C161.571,193.16 160.863,193.484 160.383,194.132C159.927,194.78 159.699,195.86 159.699,197.372L159.699,206.084C159.699,207.572 159.927,208.64 160.383,209.288C160.863,209.936 161.571,210.26 162.507,210.26Z" style="fill:rgb(23,22,22);fill-rule:nonzero;"/>
                            </g>
                            <g id="bogstav-9" serif:id="bogstav 9">
                                <path d="M225,184.5L225,221.5C225,223.156 223.656,224.5 222,224.5L193,224.5C191.344,224.5 190,223.156 190,221.5L190,184.5C190,182.844 191.344,181.5 193,181.5L222,181.5C223.656,181.5 225,182.844 225,184.5Z" style="fill:rgb(45,44,43);"/>
                                <path id="p" d="M202.534,213.5C202.318,213.5 202.21,213.368 202.21,213.104L202.21,190.316C202.21,190.052 202.318,189.92 202.534,189.92L206.962,189.92C209.218,189.92 210.874,190.532 211.93,191.756C213.01,192.98 213.55,194.9 213.55,197.516C213.55,199.94 212.998,201.8 211.894,203.096C210.814,204.392 209.218,205.04 207.106,205.04L205.99,205.04L205.99,213.104C205.99,213.368 205.882,213.5 205.666,213.5L202.534,213.5ZM205.99,201.62L206.962,201.62C207.946,201.62 208.654,201.284 209.086,200.612C209.542,199.94 209.77,198.92 209.77,197.552C209.77,196.04 209.542,194.96 209.086,194.312C208.654,193.664 207.97,193.34 207.034,193.34L205.99,193.34L205.99,201.62Z" style="fill:rgb(23,22,22);fill-rule:nonzero;"/>
                            </g>
                        </g>
                        <g id="Midt">
                            <g id="bogstav-4" serif:id="bogstav 4">
                                <path d="M22.5,234.5L22.5,271.5C22.5,273.156 21.156,274.5 19.5,274.5L-9.5,274.5C-11.156,274.5 -12.5,273.156 -12.5,271.5L-12.5,234.5C-12.5,232.844 -11.156,231.5 -9.5,231.5L19.5,231.5C21.156,231.5 22.5,232.844 22.5,234.5Z" style="fill:rgb(45,44,43);"/>
                                <path id="g" d="M3.875,263.716C2.075,263.716 0.707,263.104 -0.229,261.88C-1.165,260.656 -1.633,258.796 -1.633,256.3L-1.633,247.444C-1.633,244.924 -1.081,243.004 0.023,241.684C1.151,240.364 2.771,239.704 4.883,239.704C7.043,239.704 8.675,240.388 9.779,241.756C10.883,243.124 11.351,244.984 11.183,247.336C11.159,247.6 11.051,247.732 10.859,247.732L7.727,247.696C7.511,247.696 7.415,247.576 7.439,247.336C7.559,246.016 7.403,244.996 6.971,244.276C6.539,243.532 5.855,243.16 4.919,243.16C3.959,243.16 3.251,243.508 2.795,244.204C2.339,244.9 2.111,245.992 2.111,247.48L2.111,256.012C2.111,257.548 2.303,258.64 2.687,259.288C3.095,259.936 3.791,260.26 4.775,260.26C5.687,260.26 6.383,259.9 6.863,259.18C7.343,258.436 7.583,257.32 7.583,255.832L7.583,254.212L5.099,254.212C4.883,254.212 4.775,254.08 4.775,253.816L4.775,251.692C4.775,251.428 4.883,251.296 5.099,251.296L10.931,251.296C11.147,251.296 11.255,251.428 11.255,251.692L11.255,258.28C11.255,259.432 11.267,260.38 11.291,261.124C11.339,261.844 11.399,262.492 11.471,263.068C11.519,263.356 11.423,263.5 11.183,263.5L8.735,263.5C8.519,263.5 8.399,263.392 8.375,263.176C8.327,262.888 8.279,262.552 8.231,262.168C8.207,261.76 8.195,261.268 8.195,260.692L8.123,260.692C7.763,261.628 7.247,262.372 6.575,262.924C5.903,263.452 5.003,263.716 3.875,263.716Z" style="fill:rgb(23,22,22);fill-rule:nonzero;"/>
                            </g>
                            <g id="bogstav-5_2" serif:id="bogstav 5_2">
                                <path d="M67.5,234.5L67.5,271.5C67.5,273.156 66.156,274.5 64.5,274.5L35.5,274.5C33.844,274.5 32.5,273.156 32.5,271.5L32.5,234.5C32.5,232.844 33.844,231.5 35.5,231.5L64.5,231.5C66.156,231.5 67.5,232.844 67.5,234.5Z" style="fill:rgb(45,44,43);"/>
                                <path id="h" d="M43.91,263.5C43.67,263.5 43.55,263.368 43.55,263.104L43.55,240.316C43.55,240.052 43.67,239.92 43.91,239.92L46.97,239.92C47.21,239.92 47.33,240.052 47.33,240.316L47.33,249.748L52.694,249.748L52.694,240.316C52.694,240.052 52.802,239.92 53.018,239.92L56.078,239.92C56.318,239.92 56.438,240.052 56.438,240.316L56.438,263.104C56.438,263.368 56.318,263.5 56.078,263.5L53.018,263.5C52.802,263.5 52.694,263.368 52.694,263.104L52.694,253.132L47.33,253.132L47.33,263.104C47.33,263.368 47.21,263.5 46.97,263.5L43.91,263.5Z" style="fill:rgb(23,22,22);fill-rule:nonzero;"/>
                            </g>
                            <g id="bogstav-6_2" serif:id="bogstav 6_2">
                                <path d="M112.5,234.5L112.5,271.5C112.5,273.156 111.156,274.5 109.5,274.5L80.5,274.5C78.844,274.5 77.5,273.156 77.5,271.5L77.5,234.5C77.5,232.844 78.844,231.5 80.5,231.5L109.5,231.5C111.156,231.5 112.5,232.844 112.5,234.5Z" style="fill:rgb(45,44,43);"/>
                                <path id="j" d="M92.383,268.864C92.167,268.96 92.023,268.876 91.951,268.612L91.159,266.056C91.111,265.912 91.111,265.792 91.159,265.696C91.183,265.6 91.243,265.54 91.339,265.516C91.747,265.348 92.083,265.096 92.347,264.76C92.611,264.448 92.803,263.98 92.923,263.356C93.043,262.708 93.103,261.844 93.103,260.764L93.103,240.316C93.103,240.052 93.211,239.92 93.427,239.92L96.559,239.92C96.775,239.92 96.883,240.052 96.883,240.316L96.883,260.62C96.883,262.372 96.715,263.812 96.379,264.94C96.043,266.068 95.539,266.944 94.867,267.568C94.195,268.192 93.367,268.624 92.383,268.864Z" style="fill:rgb(23,22,22);fill-rule:nonzero;"/>
                            </g>
                            <g id="bogstav-7_2" serif:id="bogstav 7_2">
                                <path d="M157.5,234.5L157.5,271.5C157.5,273.156 156.156,274.5 154.5,274.5L125.5,274.5C123.844,274.5 122.5,273.156 122.5,271.5L122.5,234.5C122.5,232.844 123.844,231.5 125.5,231.5L154.5,231.5C156.156,231.5 157.5,232.844 157.5,234.5Z" style="fill:rgb(45,44,43);"/>
                                <path id="k" d="M134.454,265C134.238,265 134.13,264.868 134.13,264.604L134.13,241.816C134.13,241.552 134.238,241.42 134.454,241.42L137.586,241.42C137.802,241.42 137.91,241.552 137.91,241.816L137.91,247.72C137.91,248.2 137.898,248.752 137.874,249.376C137.85,249.976 137.826,250.576 137.802,251.176C137.802,251.752 137.778,252.292 137.73,252.796L137.802,252.796C138.066,252.052 138.342,251.26 138.63,250.42C138.942,249.556 139.302,248.668 139.71,247.756L142.662,241.636C142.71,241.492 142.83,241.42 143.022,241.42L146.514,241.42C146.802,241.42 146.862,241.576 146.694,241.888L142.194,251.14L147.306,264.532C147.45,264.844 147.378,265 147.09,265L143.382,265C143.19,265 143.07,264.916 143.022,264.748L139.566,254.704L137.91,257.836L137.91,264.604C137.91,264.868 137.802,265 137.586,265L134.454,265Z" style="fill:rgb(23,22,22);fill-rule:nonzero;"/>
                            </g>
                            <g id="bogstav-8_2" serif:id="bogstav 8_2">
                                <path d="M202.5,234.5L202.5,271.5C202.5,273.156 201.156,274.5 199.5,274.5L170.5,274.5C168.844,274.5 167.5,273.156 167.5,271.5L167.5,234.5C167.5,232.844 168.844,231.5 170.5,231.5L199.5,231.5C201.156,231.5 202.5,232.844 202.5,234.5Z" style="fill:rgb(45,44,43);"/>
                                <path id="l" d="M180.967,263.5C180.727,263.5 180.607,263.368 180.607,263.104L180.607,240.316C180.607,240.052 180.727,239.92 180.967,239.92L184.027,239.92C184.267,239.92 184.387,240.052 184.387,240.316L184.387,260.08L190.111,260.08C190.351,260.08 190.471,260.212 190.471,260.476L190.471,263.104C190.471,263.368 190.351,263.5 190.111,263.5L180.967,263.5Z" style="fill:rgb(23,22,22);fill-rule:nonzero;"/>
                            </g>
                        </g>
                        <g id="Bund">
                            <g>
                                <g id="bogstav-4_2" serif:id="bogstav 4_2">
                                    <path d="M45,284.5L45,321.5C45,323.156 43.656,324.5 42,324.5L13,324.5C11.344,324.5 10,323.156 10,321.5L10,284.5C10,282.844 11.344,281.5 13,281.5L42,281.5C43.656,281.5 45,282.844 45,284.5Z" style="fill:rgb(45,44,43);"/>
                                    <path id="b" d="M22.237,313.5C21.973,313.5 21.841,313.368 21.841,313.104L21.841,290.316C21.841,290.052 21.973,289.92 22.237,289.92L26.845,289.92C28.957,289.92 30.529,290.412 31.561,291.396C32.593,292.356 33.109,293.82 33.109,295.788C33.109,297.036 32.881,298.092 32.425,298.956C31.969,299.82 31.273,300.504 30.337,301.008L30.337,301.08C31.465,301.44 32.317,302.1 32.893,303.06C33.493,304.02 33.793,305.244 33.793,306.732C33.793,308.988 33.241,310.68 32.137,311.808C31.057,312.936 29.401,313.5 27.169,313.5L22.237,313.5ZM25.621,310.26L27.133,310.26C28.117,310.26 28.849,309.948 29.329,309.324C29.833,308.7 30.085,307.752 30.085,306.48C30.085,305.28 29.833,304.38 29.329,303.78C28.849,303.18 28.129,302.88 27.169,302.88L25.621,302.88L25.621,310.26ZM25.621,299.892L26.917,299.892C27.733,299.892 28.345,299.592 28.753,298.992C29.185,298.392 29.401,297.516 29.401,296.364C29.401,295.236 29.197,294.42 28.789,293.916C28.381,293.412 27.733,293.16 26.845,293.16L25.621,293.16L25.621,299.892Z" style="fill:rgb(23,22,22);fill-rule:nonzero;"/>
                                </g>
                                <g id="bogstav-5_3" serif:id="bogstav 5_3">
                                    <path d="M90,284.5L90,321.5C90,323.156 88.656,324.5 87,324.5L58,324.5C56.344,324.5 55,323.156 55,321.5L55,284.5C55,282.844 56.344,281.5 58,281.5L87,281.5C88.656,281.5 90,282.844 90,284.5Z" style="fill:rgb(45,44,43);"/>
                                    <path id="n" d="M66.356,313.5C66.14,313.5 66.032,313.368 66.032,313.104L66.032,290.316C66.032,290.052 66.14,289.92 66.356,289.92L70.496,289.92C70.688,289.92 70.808,290.016 70.856,290.208L74.132,302.088C74.3,302.688 74.468,303.36 74.636,304.104C74.828,304.848 75.008,305.604 75.176,306.372C75.368,307.116 75.512,307.776 75.608,308.352L75.68,308.352C75.656,307.872 75.62,307.32 75.572,306.696C75.548,306.048 75.512,305.388 75.464,304.716C75.44,304.02 75.416,303.36 75.392,302.736L75.392,290.28C75.392,290.04 75.5,289.92 75.716,289.92L78.632,289.92C78.848,289.92 78.956,290.04 78.956,290.28L78.956,313.104C78.956,313.368 78.848,313.5 78.632,313.5L74.528,313.5C74.36,313.5 74.24,313.416 74.168,313.248L70.892,301.62C70.58,300.492 70.304,299.376 70.064,298.272C69.824,297.144 69.608,296.1 69.416,295.14L69.344,295.14C69.392,295.836 69.428,296.652 69.452,297.588C69.5,298.524 69.536,299.46 69.56,300.396C69.584,301.308 69.596,302.112 69.596,302.808L69.596,313.104C69.596,313.368 69.5,313.5 69.308,313.5L66.356,313.5Z" style="fill:rgb(23,22,22);fill-rule:nonzero;"/>
                                </g>
                                <g id="bogstav-6_3" serif:id="bogstav 6_3">
                                    <path d="M135,284.5L135,321.5C135,323.156 133.656,324.5 132,324.5L103,324.5C101.344,324.5 100,323.156 100,321.5L100,284.5C100,282.844 101.344,281.5 103,281.5L132,281.5C133.656,281.5 135,282.844 135,284.5Z" style="fill:rgb(45,44,43);"/>
                                    <path id="m" d="M109.558,313.5C109.342,313.5 109.234,313.368 109.234,313.104L109.522,290.316C109.522,290.052 109.642,289.92 109.882,289.92L113.806,289.92C114.046,289.92 114.178,290.016 114.202,290.208L117.478,302.844L120.79,290.208C120.814,290.016 120.946,289.92 121.186,289.92L125.11,289.92C125.326,289.92 125.434,290.052 125.434,290.316L125.758,313.104C125.758,313.368 125.65,313.5 125.434,313.5L122.374,313.5C122.158,313.5 122.05,313.368 122.05,313.104L121.942,301.44C121.918,300.384 121.918,299.388 121.942,298.452C121.99,297.492 122.038,296.616 122.086,295.824L122.05,295.824C121.882,296.568 121.69,297.324 121.474,298.092C121.258,298.836 121.03,299.58 120.79,300.324L117.91,310.188C117.862,310.38 117.742,310.476 117.55,310.476L117.406,310.476C117.238,310.476 117.13,310.38 117.082,310.188L114.166,300.324C113.926,299.58 113.698,298.836 113.482,298.092C113.29,297.324 113.11,296.568 112.942,295.824L112.87,295.824C112.942,296.616 112.99,297.492 113.014,298.452C113.062,299.388 113.074,300.384 113.05,301.44L112.942,313.104C112.942,313.368 112.834,313.5 112.618,313.5L109.558,313.5Z" style="fill:rgb(23,22,22);fill-rule:nonzero;"/>
                                </g>
                                <g id="Slet-m.-BG" serif:id="Slet m. BG">
                                    <path d="M180,284.5L180,321.5C180,323.156 178.656,324.5 177,324.5L148,324.5C146.344,324.5 145,323.156 145,321.5L145,284.5C145,282.844 146.344,281.5 148,281.5L177,281.5C178.656,281.5 180,282.844 180,284.5Z" style="fill:rgb(45,44,43);"/>
                                    <g id="Icon---material-icon---backspace_black_24dp" serif:id="Icon / material-icon / backspace_black_24dp">
                                        <path id="fill" d="M173.75,292.875L156.875,292.875C156.099,292.875 155.491,293.269 155.086,293.865L149,303L155.086,312.124C155.491,312.72 156.099,313.125 156.875,313.125L173.75,313.125C174.988,313.125 176,312.113 176,310.875L176,295.125C176,293.887 174.988,292.875 173.75,292.875ZM173.75,310.875L156.954,310.875L151.7,303L156.942,295.125L173.75,295.125L173.75,310.875ZM160.711,308.625L164.75,304.586L168.789,308.625L170.375,307.039L166.336,303L170.375,298.961L168.789,297.375L164.75,301.414L160.711,297.375L159.125,298.961L163.164,303L159.125,307.039L160.711,308.625Z" style="fill:rgb(23,22,22);fill-rule:nonzero;"/>
                                    </g>
                                </g>
                            </g>
                        </g>
                    </g>
                </g>
            </g>
            <g id="textRight">
                <g id="keyboardTitle">
                    <path id="keyboard" d="M240.439,280C240.065,280 239.879,279.76 239.879,279.28L239.879,228.32C239.879,227.84 240.065,227.6 240.439,227.6L244.519,227.6C244.892,227.6 245.079,227.84 245.079,228.32L245.079,245.28C245.079,246.4 245.052,247.547 244.999,248.72C244.999,249.84 244.972,250.96 244.919,252.08C244.919,253.147 244.892,254.267 244.839,255.44L244.919,255.44C245.612,253.68 246.332,251.973 247.079,250.32C247.825,248.667 248.599,247.013 249.399,245.36L258.039,227.92C258.092,227.707 258.305,227.6 258.679,227.6L263.399,227.6C263.932,227.6 264.039,227.893 263.719,228.48L252.999,248.72L264.759,279.12C265.025,279.707 264.919,280 264.439,280L259.559,280C259.239,280 259.025,279.84 258.919,279.52L249.719,254.72L245.079,263.44L245.079,279.28C245.079,279.76 244.892,280 244.519,280L240.439,280ZM269.425,280C268.998,280 268.785,279.76 268.785,279.28L268.785,228.32C268.785,227.84 268.972,227.6 269.345,227.6L287.425,227.6C287.798,227.6 287.985,227.84 287.985,228.32L287.985,231.92C287.985,232.4 287.798,232.64 287.425,232.64L273.985,232.64L273.985,250.88L286.305,250.88C286.678,250.88 286.865,251.12 286.865,251.6L286.865,254.96C286.865,255.44 286.678,255.68 286.305,255.68L273.985,255.68L273.985,274.96L287.425,274.96C287.798,274.96 287.985,275.2 287.985,275.68L287.985,279.28C287.985,279.76 287.798,280 287.425,280L269.425,280ZM302.946,280C302.572,280 302.386,279.76 302.386,279.28L302.386,262.08L291.986,228.48C291.826,227.893 291.959,227.6 292.386,227.6L297.106,227.6C297.426,227.6 297.612,227.76 297.666,228.08L302.546,246.16C302.972,247.653 303.372,249.2 303.746,250.8C304.172,252.347 304.572,253.893 304.946,255.44L305.026,255.44C305.452,253.893 305.879,252.347 306.306,250.8C306.732,249.2 307.132,247.627 307.506,246.08L312.386,228.08C312.492,227.76 312.679,227.6 312.946,227.6L317.506,227.6C317.932,227.6 318.092,227.893 317.986,228.48L307.586,262L307.586,279.28C307.586,279.76 307.426,280 307.106,280L302.946,280ZM323.568,280C323.088,280 322.848,279.76 322.848,279.28L322.848,228.32C322.848,227.84 323.088,227.6 323.568,227.6L331.248,227.6C335.621,227.6 338.821,228.667 340.848,230.8C342.928,232.88 343.968,236.08 343.968,240.4C343.968,243.227 343.488,245.627 342.528,247.6C341.621,249.573 340.234,251.12 338.368,252.24L338.368,252.4C340.661,253.147 342.394,254.613 343.568,256.8C344.794,258.987 345.408,261.813 345.408,265.28C345.408,270.08 344.314,273.733 342.128,276.24C339.941,278.747 336.714,280 332.448,280L323.568,280ZM328.048,274.96L332.288,274.96C334.954,274.96 336.928,274.16 338.208,272.56C339.541,270.907 340.208,268.347 340.208,264.88C340.208,261.573 339.568,259.147 338.288,257.6C337.061,256.053 335.141,255.28 332.528,255.28L328.048,255.28L328.048,274.96ZM328.048,250.4L331.968,250.4C334.208,250.4 335.888,249.627 337.008,248.08C338.181,246.48 338.768,244.16 338.768,241.12C338.768,238.08 338.208,235.92 337.088,234.64C335.968,233.307 334.181,232.64 331.728,232.64L328.048,232.64L328.048,250.4ZM363.748,280.48C359.748,280.48 356.655,279.253 354.468,276.8C352.335,274.347 351.268,270.64 351.268,265.68L351.268,242.08C351.268,237.013 352.335,233.253 354.468,230.8C356.655,228.347 359.748,227.12 363.748,227.12C367.748,227.12 370.841,228.347 373.028,230.8C375.215,233.253 376.308,237.013 376.308,242.08L376.308,265.68C376.308,270.64 375.215,274.347 373.028,276.8C370.841,279.253 367.748,280.48 363.748,280.48ZM363.748,275.44C366.148,275.44 367.961,274.64 369.188,273.04C370.468,271.387 371.108,268.8 371.108,265.28L371.108,242.4C371.108,238.827 370.468,236.24 369.188,234.64C367.961,232.987 366.148,232.16 363.748,232.16C361.401,232.16 359.588,232.987 358.308,234.64C357.081,236.24 356.468,238.827 356.468,242.4L356.468,265.28C356.468,268.8 357.081,271.387 358.308,273.04C359.588,274.64 361.401,275.44 363.748,275.44ZM380.101,280C379.728,280 379.568,279.733 379.621,279.2L390.021,228.16C390.075,227.787 390.315,227.6 390.741,227.6L396.341,227.6C396.768,227.6 397.008,227.787 397.061,228.16L407.541,279.2C407.595,279.733 407.435,280 407.061,280L402.661,280C402.341,280 402.128,279.84 402.021,279.52L395.541,244.88C395.168,243.013 394.795,241.173 394.421,239.36C394.101,237.493 393.808,235.627 393.541,233.76L393.381,233.76C393.115,235.627 392.821,237.493 392.501,239.36C392.235,241.173 391.915,243.04 391.541,244.96L385.061,279.52C385.008,279.84 384.821,280 384.501,280L380.101,280ZM386.501,267.12L387.461,262.08L399.461,262.08L400.581,267.12L386.501,267.12ZM412.079,280C411.706,280 411.519,279.76 411.519,279.28L411.519,228.32C411.519,227.84 411.706,227.6 412.079,227.6L420.879,227.6C425.306,227.6 428.533,228.773 430.559,231.12C432.639,233.467 433.679,237.04 433.679,241.84C433.679,245.84 433.093,249.013 431.919,251.36C430.799,253.653 429.226,255.2 427.199,256L427.199,256.08L435.439,279.12C435.546,279.707 435.359,280 434.879,280L430.479,280C430.213,280 429.999,279.84 429.839,279.52L422.079,257.2L416.719,257.2L416.719,279.28C416.719,279.76 416.533,280 416.159,280L412.079,280ZM416.719,252.4L421.039,252.4C423.706,252.4 425.599,251.573 426.719,249.92C427.893,248.213 428.479,245.653 428.479,242.24C428.479,238.773 427.839,236.32 426.559,234.88C425.333,233.387 423.413,232.64 420.799,232.64L416.719,232.64L416.719,252.4ZM442.005,280C441.525,280 441.285,279.76 441.285,279.28L441.285,228.32C441.285,227.84 441.498,227.6 441.925,227.6L449.765,227.6C455.258,227.6 459.312,229.333 461.925,232.8C464.592,236.213 465.925,241.493 465.925,248.64L465.925,256.56C465.925,264.507 464.645,270.4 462.085,274.24C459.525,278.08 455.552,280 450.165,280L442.005,280ZM446.485,274.96L449.765,274.96C453.712,274.96 456.512,273.547 458.165,270.72C459.872,267.84 460.725,263.253 460.725,256.96L460.725,248.48C460.725,242.987 459.845,238.987 458.085,236.48C456.325,233.92 453.472,232.64 449.525,232.64L446.485,232.64L446.485,274.96Z" style="fill:rgb(249,248,245);fill-rule:nonzero;"/>
                </g>
                <g id="bottomBottom">
                    <path id="v1.2" d="M446.024,310C445.954,310 445.905,309.958 445.877,309.874L443.231,296.455C443.217,296.315 443.259,296.245 443.357,296.245L444.491,296.245C444.589,296.245 444.645,296.287 444.659,296.371L446.339,305.422C446.423,305.912 446.5,306.409 446.57,306.913C446.654,307.403 446.731,307.893 446.801,308.383L446.843,308.383C446.913,307.893 446.99,307.403 447.074,306.913C447.158,306.409 447.242,305.912 447.326,305.422L449.006,296.392C449.02,296.294 449.069,296.245 449.153,296.245L450.308,296.245C450.406,296.245 450.448,296.315 450.434,296.455L447.788,309.853C447.76,309.951 447.711,310 447.641,310L446.024,310ZM451.321,310C451.195,310 451.132,309.937 451.132,309.811L451.132,308.845C451.132,308.719 451.195,308.656 451.321,308.656L453.19,308.656L453.211,297.904L451.363,298.639C451.321,298.653 451.279,298.653 451.237,298.639C451.209,298.611 451.195,298.569 451.195,298.513L451.195,297.526C451.195,297.442 451.237,297.379 451.321,297.337L454.03,296.224C454.1,296.182 454.17,296.161 454.24,296.161L454.387,296.161C454.513,296.161 454.576,296.224 454.576,296.35L454.576,308.656L456.277,308.656C456.403,308.656 456.466,308.719 456.466,308.845L456.466,309.811C456.466,309.937 456.403,310 456.277,310L451.321,310ZM458.81,310.126C458.516,310.126 458.285,310.049 458.117,309.895C457.963,309.741 457.886,309.51 457.886,309.202L457.886,309.034C457.886,308.726 457.963,308.495 458.117,308.341C458.285,308.187 458.516,308.11 458.81,308.11C459.118,308.11 459.349,308.187 459.503,308.341C459.657,308.495 459.734,308.726 459.734,309.034L459.734,309.202C459.734,309.51 459.657,309.741 459.503,309.895C459.349,310.049 459.118,310.126 458.81,310.126ZM462.053,310C461.927,310 461.864,309.937 461.864,309.811L461.864,308.635C461.864,307.795 461.962,307.074 462.158,306.472C462.354,305.87 462.606,305.345 462.914,304.897C463.222,304.435 463.551,304.015 463.901,303.637C464.251,303.259 464.58,302.881 464.888,302.503C465.196,302.111 465.448,301.691 465.644,301.243C465.84,300.781 465.938,300.242 465.938,299.626L465.938,299.227C465.938,298.569 465.833,298.107 465.623,297.841C465.427,297.575 465.091,297.442 464.615,297.442C464.111,297.442 463.761,297.631 463.565,298.009C463.369,298.387 463.278,298.926 463.292,299.626C463.292,299.752 463.229,299.815 463.103,299.815L462.158,299.815C462.032,299.815 461.969,299.752 461.969,299.626C461.955,298.464 462.165,297.589 462.599,297.001C463.047,296.413 463.726,296.119 464.636,296.119C465.518,296.119 466.183,296.378 466.631,296.896C467.093,297.414 467.324,298.226 467.324,299.332C467.324,300.172 467.226,300.879 467.03,301.453C466.834,302.027 466.582,302.524 466.274,302.944C465.98,303.35 465.658,303.735 465.308,304.099C464.958,304.463 464.629,304.848 464.321,305.254C464.027,305.646 463.782,306.115 463.586,306.661C463.39,307.207 463.292,307.872 463.292,308.656L467.114,308.656C467.226,308.656 467.282,308.719 467.282,308.845L467.282,309.811C467.282,309.937 467.226,310 467.114,310L462.053,310Z" style="fill:rgb(189,186,178);fill-rule:nonzero;"/>
                    <rect id="firmware" x="440" y="293" width="32" height="20" style="fill:rgb(217,217,217);fill-opacity:0.01;"/>
                </g>
            </g>
        </g>
    </g>
</svg>
