<?xml version="1.0" encoding="UTF-8" standalone="no"?>
<!DOCTYPE svg PUBLIC "-//W3C//DTD SVG 1.1//EN" "http://www.w3.org/Graphics/SVG/1.1/DTD/svg11.dtd">
<svg width="100%" height="100%" viewBox="0 0 480 320" version="1.1" xmlns="http://www.w3.org/2000/svg" xmlns:xlink="http://www.w3.org/1999/xlink" xml:space="preserve" xmlns:serif="http://www.serif.com/" style="fill-rule:evenodd;clip-rule:evenodd;stroke-linejoin:round;stroke-miterlimit:2;">
    <g>
        <clipPath id="_clip1">
            <path d="M480,5L480,315C480,317.76 477.76,320 475,320L5,320C2.24,320 0,317.76 0,315L0,5C0,2.24 2.24,0 5,0L475,0C477.76,0 480,2.24 480,5Z"/>
        </clipPath>
        <g clip-path="url(#_clip1)">
            <path d="M480,5L480,315C480,317.76 477.76,320 475,320L5,320C2.24,320 0,317.76 0,315L0,5C0,2.24 2.24,0 5,0L475,0C477.76,0 480,2.24 480,5Z" style="fill:rgb(23,22,22);"/>
            <path d="M465,260L465,302C465,303.656 463.656,305 462,305L356,305C354.344,305 353,303.656 353,302L353,260C353,258.344 354.344,257 356,257L462,257C463.656,257 465,258.344 465,260Z" style="fill:rgb(244,104,44);"/>
            <path d="M375.16,294C374.947,294 374.84,293.867 374.84,293.6L374.84,268.2C374.84,267.933 374.947,267.8 375.16,267.8L379.76,267.8C382.187,267.8 383.973,268.48 385.12,269.84C386.267,271.173 386.84,273.267 386.84,276.12C386.84,278.787 386.253,280.827 385.08,282.24C383.907,283.653 382.2,284.36 379.96,284.36L378.56,284.36L378.56,293.6C378.56,293.867 378.44,294 378.2,294L375.16,294ZM378.56,280.96L379.76,280.96C380.933,280.96 381.787,280.573 382.32,279.8C382.853,279.027 383.12,277.813 383.12,276.16C383.12,274.4 382.853,273.133 382.32,272.36C381.813,271.587 381,271.2 379.88,271.2L378.56,271.2L378.56,280.96ZM386.112,294C385.899,294 385.805,293.853 385.832,293.56L391.152,268.12C391.179,267.907 391.312,267.8 391.552,267.8L395.552,267.8C395.792,267.8 395.925,267.907 395.952,268.12L401.272,293.52C401.325,293.84 401.232,294 400.992,294L397.672,294C397.485,294 397.365,293.907 397.312,293.72L394.472,277.2C394.285,276.293 394.112,275.387 393.952,274.48C393.819,273.547 393.685,272.613 393.552,271.68L393.472,271.68C393.365,272.613 393.245,273.547 393.112,274.48C392.979,275.387 392.819,276.307 392.632,277.24L389.752,293.68C389.725,293.893 389.605,294 389.392,294L386.112,294ZM390.192,288.04L390.752,284.8L396.232,284.8L396.912,288.04L390.192,288.04ZM408.669,294.24C406.349,294.24 404.642,293.533 403.549,292.12C402.456,290.68 401.909,288.52 401.909,285.64L401.909,268.2C401.909,267.933 402.016,267.8 402.229,267.8L405.269,267.8C405.482,267.8 405.589,267.933 405.589,268.2L405.589,285.56C405.589,287.427 405.829,288.773 406.309,289.6C406.816,290.4 407.602,290.8 408.669,290.8C409.762,290.8 410.549,290.4 411.029,289.6C411.536,288.773 411.789,287.427 411.789,285.56L411.789,268.2C411.789,267.933 411.896,267.8 412.109,267.8L415.149,267.8C415.362,267.8 415.469,267.933 415.469,268.2L415.469,285.64C415.469,288.52 414.896,290.68 413.749,292.12C412.629,293.533 410.936,294.24 408.669,294.24ZM423.501,294.24C421.928,294.24 420.675,293.92 419.741,293.28C418.808,292.64 418.155,291.76 417.781,290.64C417.435,289.493 417.315,288.16 417.421,286.64C417.448,286.347 417.568,286.2 417.781,286.2L420.741,286.2C420.981,286.2 421.088,286.347 421.061,286.64C420.901,288.027 421.048,289.08 421.501,289.8C421.955,290.52 422.648,290.88 423.581,290.88C424.461,290.88 425.115,290.627 425.541,290.12C425.968,289.587 426.181,288.747 426.181,287.6C426.181,286.64 426.035,285.827 425.741,285.16C425.448,284.467 424.955,283.867 424.261,283.36L420.941,280.76C419.768,279.853 418.901,278.867 418.341,277.8C417.781,276.707 417.515,275.373 417.541,273.8C417.568,271.8 418.088,270.267 419.101,269.2C420.115,268.107 421.568,267.56 423.461,267.56C425.675,267.56 427.288,268.213 428.301,269.52C429.315,270.827 429.715,272.627 429.501,274.92C429.501,275.267 429.395,275.44 429.181,275.44L426.141,275.44C425.928,275.44 425.835,275.267 425.861,274.92C425.995,273.693 425.861,272.72 425.461,272C425.061,271.28 424.435,270.92 423.581,270.92C422.861,270.92 422.288,271.16 421.861,271.64C421.461,272.093 421.248,272.8 421.221,273.76C421.221,274.693 421.395,275.48 421.741,276.12C422.088,276.76 422.595,277.347 423.261,277.88L426.501,280.36C427.328,281 427.981,281.653 428.461,282.32C428.968,282.987 429.328,283.747 429.541,284.6C429.781,285.427 429.901,286.413 429.901,287.56C429.901,289.667 429.381,291.307 428.341,292.48C427.328,293.653 425.715,294.24 423.501,294.24ZM432.312,294C432.072,294 431.952,293.867 431.952,293.6L431.952,268.2C431.952,267.933 432.059,267.8 432.272,267.8L442.472,267.8C442.686,267.8 442.792,267.933 442.792,268.2L442.792,270.8C442.792,271.093 442.686,271.24 442.472,271.24L435.672,271.24L435.672,279.04L441.872,279.04C442.086,279.04 442.192,279.187 442.192,279.48L442.192,281.92C442.192,282.187 442.086,282.32 441.872,282.32L435.672,282.32L435.672,290.56L442.472,290.56C442.686,290.56 442.792,290.707 442.792,291L442.792,293.6C442.792,293.867 442.686,294 442.472,294L432.312,294Z" style="fill:rgb(23,22,22);fill-rule:nonzero;"/>
            <g opacity="0.4">
                <path d="M2.044,77.268L276.463,80.412C277.585,80.425 278.667,80.783 279.519,81.422L479.427,231.409L203.912,226.6L2.044,77.268Z" style="fill:rgb(168,164,164);fill-rule:nonzero;"/>
                <path d="M2.044,77.268L203.912,226.6L199.872,238.95L3.517,90.236C2.454,89.431 1.853,88.26 1.874,87.037L2.044,77.268Z" style="fill:rgb(183,181,181);fill-rule:nonzero;"/>
                <path d="M203.912,226.6L479.427,231.409L479.282,239.688C479.243,241.973 477.081,243.788 474.455,243.742L199.872,238.95L203.912,226.6Z" style="fill:rgb(174,169,169);fill-rule:nonzero;"/>
            </g>
            <path d="M14.8,184C14.373,184 14.16,183.76 14.16,183.28L14.16,132.32C14.16,131.84 14.347,131.6 14.72,131.6L32.8,131.6C33.173,131.6 33.36,131.84 33.36,132.32L33.36,135.92C33.36,136.4 33.173,136.64 32.8,136.64L19.36,136.64L19.36,154.88L31.68,154.88C32.053,154.88 32.24,155.12 32.24,155.6L32.24,158.96C32.24,159.44 32.053,159.68 31.68,159.68L19.36,159.68L19.36,178.96L32.8,178.96C33.173,178.96 33.36,179.2 33.36,179.68L33.36,183.28C33.36,183.76 33.173,184 32.8,184L14.8,184ZM41.281,184C40.961,184 40.801,183.76 40.801,183.28L40.801,132.32C40.801,131.84 40.987,131.6 41.361,131.6L47.921,131.6C48.294,131.6 48.507,131.76 48.561,132.08L57.201,162.8C57.627,164.187 58.054,165.76 58.481,167.52C58.907,169.227 59.307,170.96 59.681,172.72C60.107,174.427 60.454,175.973 60.721,177.36L60.881,177.36C60.827,176.293 60.774,175.12 60.721,173.84C60.667,172.56 60.614,171.253 60.561,169.92C60.561,168.587 60.534,167.28 60.481,166L60.481,132.24C60.481,131.813 60.667,131.6 61.041,131.6L64.961,131.6C65.334,131.6 65.521,131.813 65.521,132.24L65.521,183.28C65.521,183.76 65.334,184 64.961,184L58.401,184C58.134,184 57.947,183.867 57.841,183.6L49.441,153.84C48.641,151.013 47.947,148.293 47.361,145.68C46.774,143.013 46.241,140.533 45.761,138.24L45.601,138.24C45.654,139.787 45.681,141.52 45.681,143.44C45.734,145.307 45.761,147.2 45.761,149.12C45.814,150.987 45.841,152.693 45.841,154.24L45.841,183.28C45.841,183.76 45.681,184 45.361,184L41.281,184ZM84.249,184.48C80.409,184.48 77.583,183.227 75.769,180.72C73.956,178.16 73.049,174.32 73.049,169.2L73.049,146.72C73.049,141.653 74.116,137.787 76.249,135.12C78.383,132.453 81.449,131.12 85.449,131.12C89.663,131.12 92.836,132.587 94.969,135.52C97.103,138.453 97.956,142.507 97.529,147.68C97.529,148.107 97.343,148.32 96.969,148.32L92.809,148.32C92.383,148.32 92.223,148.107 92.329,147.68C92.703,144.053 92.276,141.227 91.049,139.2C89.823,137.173 88.009,136.16 85.609,136.16C83.156,136.16 81.316,137.04 80.089,138.8C78.863,140.56 78.249,143.28 78.249,146.96L78.249,168.8C78.249,172.587 78.783,175.307 79.849,176.96C80.916,178.613 82.703,179.44 85.209,179.44C87.716,179.44 89.609,178.427 90.889,176.4C92.169,174.373 92.809,171.253 92.809,167.04L92.809,162.56L86.169,162.56C85.796,162.56 85.609,162.32 85.609,161.84L85.609,158.32C85.609,157.84 85.796,157.6 86.169,157.6L97.289,157.6C97.663,157.6 97.849,157.84 97.849,158.32L97.849,173.76C97.849,176.107 97.876,177.973 97.929,179.36C97.983,180.693 98.089,181.973 98.249,183.2C98.303,183.733 98.143,184 97.769,184L94.489,184C94.063,184 93.849,183.813 93.849,183.44C93.743,182.747 93.663,181.947 93.609,181.04C93.556,180.133 93.503,178.987 93.449,177.6L93.369,177.6C92.676,179.733 91.556,181.413 90.009,182.64C88.516,183.867 86.596,184.48 84.249,184.48ZM106.829,184C106.456,184 106.269,183.76 106.269,183.28L106.269,132.32C106.269,131.84 106.456,131.6 106.829,131.6L115.629,131.6C120.056,131.6 123.283,132.773 125.309,135.12C127.389,137.467 128.429,141.04 128.429,145.84C128.429,149.84 127.843,153.013 126.669,155.36C125.549,157.653 123.976,159.2 121.949,160L121.949,160.08L130.189,183.12C130.296,183.707 130.109,184 129.629,184L125.229,184C124.963,184 124.749,183.84 124.589,183.52L116.829,161.2L111.469,161.2L111.469,183.28C111.469,183.76 111.283,184 110.909,184L106.829,184ZM111.469,156.4L115.789,156.4C118.456,156.4 120.349,155.573 121.469,153.92C122.643,152.213 123.229,149.653 123.229,146.24C123.229,142.773 122.589,140.32 121.309,138.88C120.083,137.387 118.163,136.64 115.549,136.64L111.469,136.64L111.469,156.4ZM131.726,184C131.353,184 131.193,183.733 131.246,183.2L141.646,132.16C141.7,131.787 141.94,131.6 142.366,131.6L147.966,131.6C148.393,131.6 148.633,131.787 148.686,132.16L159.166,183.2C159.22,183.733 159.06,184 158.686,184L154.286,184C153.966,184 153.753,183.84 153.646,183.52L147.166,148.88C146.793,147.013 146.42,145.173 146.046,143.36C145.726,141.493 145.433,139.627 145.166,137.76L145.006,137.76C144.74,139.627 144.446,141.493 144.126,143.36C143.86,145.173 143.54,147.04 143.166,148.96L136.686,183.52C136.633,183.84 136.446,184 136.126,184L131.726,184ZM138.126,171.12L139.086,166.08L151.086,166.08L152.206,171.12L138.126,171.12ZM168.551,184C168.285,184 168.098,183.84 167.991,183.52L157.911,132.4C157.858,131.867 158.018,131.6 158.391,131.6L162.711,131.6C163.085,131.6 163.298,131.76 163.351,132.08L169.751,166.56C170.071,168.427 170.365,170.32 170.631,172.24C170.951,174.107 171.245,175.973 171.511,177.84L171.671,177.84C171.938,175.973 172.231,174.107 172.551,172.24C172.871,170.32 173.191,168.427 173.511,166.56L179.911,132.16C179.965,131.787 180.151,131.6 180.471,131.6L184.871,131.6C185.245,131.6 185.405,131.867 185.351,132.4L175.271,183.44C175.165,183.813 174.978,184 174.711,184L168.551,184ZM190.97,184C190.597,184 190.41,183.76 190.41,183.28L190.41,132.32C190.41,131.84 190.597,131.6 190.97,131.6L195.05,131.6C195.423,131.6 195.61,131.84 195.61,132.32L195.61,183.28C195.61,183.76 195.423,184 195.05,184L190.97,184ZM204.328,184C204.008,184 203.848,183.76 203.848,183.28L203.848,132.32C203.848,131.84 204.034,131.6 204.408,131.6L210.968,131.6C211.341,131.6 211.554,131.76 211.608,132.08L220.247,162.8C220.674,164.187 221.101,165.76 221.528,167.52C221.954,169.227 222.354,170.96 222.728,172.72C223.154,174.427 223.501,175.973 223.768,177.36L223.928,177.36C223.874,176.293 223.821,175.12 223.768,173.84C223.714,172.56 223.661,171.253 223.608,169.92C223.608,168.587 223.581,167.28 223.528,166L223.528,132.24C223.528,131.813 223.714,131.6 224.088,131.6L228.008,131.6C228.381,131.6 228.568,131.813 228.568,132.24L228.568,183.28C228.568,183.76 228.381,184 228.008,184L221.448,184C221.181,184 220.994,183.867 220.888,183.6L212.488,153.84C211.688,151.013 210.994,148.293 210.408,145.68C209.821,143.013 209.288,140.533 208.808,138.24L208.648,138.24C208.701,139.787 208.728,141.52 208.728,143.44C208.781,145.307 208.808,147.2 208.808,149.12C208.861,150.987 208.888,152.693 208.888,154.24L208.888,183.28C208.888,183.76 208.728,184 208.408,184L204.328,184ZM247.296,184.48C243.456,184.48 240.63,183.227 238.816,180.72C237.003,178.16 236.096,174.32 236.096,169.2L236.096,146.72C236.096,141.653 237.163,137.787 239.296,135.12C241.43,132.453 244.496,131.12 248.496,131.12C252.71,131.12 255.883,132.587 258.016,135.52C260.15,138.453 261.003,142.507 260.576,147.68C260.576,148.107 260.39,148.32 260.016,148.32L255.856,148.32C255.43,148.32 255.27,148.107 255.376,147.68C255.75,144.053 255.323,141.227 254.096,139.2C252.87,137.173 251.056,136.16 248.656,136.16C246.203,136.16 244.363,137.04 243.136,138.8C241.91,140.56 241.296,143.28 241.296,146.96L241.296,168.8C241.296,172.587 241.83,175.307 242.896,176.96C243.963,178.613 245.75,179.44 248.256,179.44C250.763,179.44 252.656,178.427 253.936,176.4C255.216,174.373 255.856,171.253 255.856,167.04L255.856,162.56L249.216,162.56C248.843,162.56 248.656,162.32 248.656,161.84L248.656,158.32C248.656,157.84 248.843,157.6 249.216,157.6L260.336,157.6C260.71,157.6 260.896,157.84 260.896,158.32L260.896,173.76C260.896,176.107 260.923,177.973 260.976,179.36C261.03,180.693 261.136,181.973 261.296,183.2C261.35,183.733 261.19,184 260.816,184L257.536,184C257.11,184 256.896,183.813 256.896,183.44C256.79,182.747 256.71,181.947 256.656,181.04C256.603,180.133 256.55,178.987 256.496,177.6L256.416,177.6C255.723,179.733 254.603,181.413 253.056,182.64C251.563,183.867 249.643,184.48 247.296,184.48ZM278.756,184C278.276,184 278.036,183.76 278.036,183.28L278.036,178.8C278.036,175.6 278.41,172.853 279.156,170.56C279.903,168.267 280.863,166.267 282.036,164.56C283.21,162.8 284.463,161.2 285.796,159.76C287.13,158.32 288.383,156.88 289.556,155.44C290.73,153.947 291.69,152.347 292.436,150.64C293.183,148.88 293.556,146.827 293.556,144.48L293.556,142.96C293.556,140.453 293.156,138.693 292.356,137.68C291.61,136.667 290.33,136.16 288.516,136.16C286.596,136.16 285.263,136.88 284.516,138.32C283.77,139.76 283.423,141.813 283.476,144.48C283.476,144.96 283.236,145.2 282.756,145.2L279.156,145.2C278.676,145.2 278.436,144.96 278.436,144.48C278.383,140.053 279.183,136.72 280.836,134.48C282.543,132.24 285.13,131.12 288.596,131.12C291.956,131.12 294.49,132.107 296.196,134.08C297.956,136.053 298.836,139.147 298.836,143.36C298.836,146.56 298.463,149.253 297.716,151.44C296.97,153.627 296.01,155.52 294.836,157.12C293.716,158.667 292.49,160.133 291.156,161.52C289.823,162.907 288.57,164.373 287.396,165.92C286.276,167.413 285.343,169.2 284.596,171.28C283.85,173.36 283.476,175.893 283.476,178.88L298.036,178.88C298.463,178.88 298.676,179.12 298.676,179.6L298.676,183.28C298.676,183.76 298.463,184 298.036,184L278.756,184ZM316.121,184.48C312.387,184.48 309.561,183.253 307.641,180.8C305.721,178.293 304.761,174.693 304.761,170L304.761,145.6C304.761,140.853 305.721,137.253 307.641,134.8C309.561,132.347 312.387,131.12 316.121,131.12C319.801,131.12 322.601,132.347 324.521,134.8C326.441,137.253 327.401,140.853 327.401,145.6L327.401,170C327.401,174.693 326.441,178.293 324.521,180.8C322.601,183.253 319.801,184.48 316.121,184.48ZM316.121,179.44C318.201,179.44 319.721,178.667 320.681,177.12C321.641,175.52 322.121,173.093 322.121,169.84L322.121,145.84C322.121,142.533 321.641,140.107 320.681,138.56C319.721,136.96 318.201,136.16 316.121,136.16C314.041,136.16 312.494,136.96 311.481,138.56C310.521,140.107 310.041,142.533 310.041,145.84L310.041,169.84C310.041,173.093 310.521,175.52 311.481,177.12C312.494,178.667 314.041,179.44 316.121,179.44ZM332.995,157C332.739,157 332.611,156.84 332.611,156.52L332.611,139.432C332.611,138.12 332.595,137.032 332.563,136.168C332.563,135.304 332.531,134.632 332.467,134.152C332.435,133.768 332.547,133.576 332.803,133.576L335.395,133.576C335.587,133.576 335.699,133.736 335.731,134.056C335.795,134.44 335.827,134.84 335.827,135.256C335.859,135.64 335.891,136.04 335.923,136.456C336.755,135.464 337.587,134.696 338.419,134.152C339.251,133.576 340.179,133.288 341.203,133.288C342.067,133.288 342.803,133.544 343.411,134.056C344.051,134.568 344.483,135.336 344.707,136.36C345.507,135.4 346.307,134.648 347.107,134.104C347.939,133.56 348.867,133.288 349.891,133.288C351.075,133.288 352.003,133.752 352.675,134.68C353.347,135.576 353.683,136.904 353.683,138.664L353.683,156.52C353.683,156.84 353.555,157 353.299,157L350.371,157C350.147,157 350.035,156.84 350.035,156.52L350.035,139.192C350.035,138.328 349.891,137.704 349.603,137.32C349.347,136.904 348.947,136.696 348.403,136.696C347.859,136.696 347.299,136.904 346.723,137.32C346.179,137.736 345.603,138.344 344.995,139.144L344.995,156.52C344.995,156.84 344.867,157 344.611,157L341.683,157C341.459,157 341.347,156.84 341.347,156.52L341.347,139.192C341.347,138.328 341.203,137.704 340.915,137.32C340.659,136.904 340.243,136.696 339.667,136.696C339.155,136.696 338.611,136.904 338.035,137.32C337.491,137.736 336.899,138.344 336.259,139.144L336.259,156.52C336.259,156.84 336.147,157 335.923,157L332.995,157ZM359.654,157C359.398,157 359.27,156.84 359.27,156.52L359.27,134.056C359.27,133.736 359.398,133.576 359.654,133.576L362.582,133.576C362.806,133.576 362.918,133.736 362.918,134.056L362.918,156.52C362.918,156.84 362.806,157 362.582,157L359.654,157ZM361.142,129.544C360.374,129.544 359.782,129.352 359.366,128.968C358.982,128.584 358.79,128.024 358.79,127.288L358.79,126.808C358.79,126.072 358.982,125.512 359.366,125.128C359.782,124.712 360.374,124.504 361.142,124.504C361.942,124.504 362.534,124.712 362.918,125.128C363.302,125.512 363.494,126.072 363.494,126.808L363.494,127.288C363.494,128.024 363.302,128.584 362.918,128.968C362.534,129.352 361.942,129.544 361.142,129.544ZM378.09,157C377.866,157 377.754,156.84 377.754,156.52L377.754,139.576C377.754,138.584 377.594,137.864 377.274,137.416C376.986,136.936 376.522,136.696 375.882,136.696C375.274,136.696 374.634,136.936 373.962,137.416C373.322,137.896 372.634,138.6 371.898,139.528L371.514,136.888C372.442,135.736 373.37,134.856 374.298,134.248C375.226,133.608 376.25,133.288 377.37,133.288C378.682,133.288 379.674,133.784 380.346,134.776C381.05,135.736 381.402,137.224 381.402,139.24L381.402,156.52C381.402,156.84 381.274,157 381.018,157L378.09,157ZM368.922,157C368.666,157 368.538,156.84 368.538,156.52L368.538,139.432C368.538,138.12 368.522,137.032 368.49,136.168C368.49,135.304 368.458,134.632 368.394,134.152C368.362,133.768 368.474,133.576 368.73,133.576L371.178,133.576C371.466,133.576 371.626,133.736 371.658,134.056C371.754,134.632 371.818,135.384 371.85,136.312C371.914,137.208 371.946,137.896 371.946,138.376L372.186,138.856L372.186,156.52C372.186,156.84 372.074,157 371.85,157L368.922,157Z" style="fill:rgb(249,248,245);fill-rule:nonzero;"/>
        </g>
    </g>
</svg>
