<?xml version="1.0" encoding="UTF-8" standalone="no"?>
<!DOCTYPE svg PUBLIC "-//W3C//DTD SVG 1.1//EN" "http://www.w3.org/Graphics/SVG/1.1/DTD/svg11.dtd">
<svg width="100%" height="100%" viewBox="0 0 480 320" version="1.1" xmlns="http://www.w3.org/2000/svg" xmlns:xlink="http://www.w3.org/1999/xlink" xml:space="preserve" xmlns:serif="http://www.serif.com/" style="fill-rule:evenodd;clip-rule:evenodd;stroke-linejoin:round;stroke-miterlimit:2;">
    <g id="Confirm-21" serif:id="Confirm 21">
        <rect x="0" y="0" width="480" height="320" style="fill:rgb(23,22,22);"/>
        <g id="Rectangle-11" serif:id="Rectangle 11" opacity="0.47">
            <path d="M480,236C480,236 453.375,235.58 414.535,235.075C355.826,234.312 269.208,233.353 204.443,233.353L204.443,281L475,281C477.761,281 480,278.761 480,276L480,236Z" style="fill:rgb(87,87,87);fill-rule:nonzero;"/>
            <path d="M0,188.291L276.169,189.853L480,50.718L204.443,50.718L0,188.291Z" style="fill:url(#_Linear1);fill-rule:nonzero;"/>
            <path d="M0,188.291L204.443,50.718L200.619,39L2.163,175.759C0.809,176.692 0,178.231 0,179.876L0,188.291Z" style="fill:rgb(183,181,181);fill-rule:nonzero;"/>
            <path d="M204.443,50.718L480,50.718L480,44C480,41.239 477.761,39 475,39L200.619,39L204.443,50.718Z" style="fill:rgb(174,169,169);fill-rule:nonzero;"/>
            <path d="M276.169,189.853L0,188.291L45.138,198L276.169,198L276.169,189.853Z" style="fill:rgb(69,69,69);fill-rule:nonzero;"/>
            <path d="M45.138,198L102.221,210.279L204.443,233.353C269.208,233.353 355.826,234.312 414.535,235.075L330.158,212.466L276.169,198L45.138,198Z" style="fill:url(#_Linear2);"/>
            <path d="M330.158,202.076L276.169,189.853L276.169,198L330.158,212.466L414.535,235.075C453.375,235.58 480,236 480,236L378.084,212.926L330.158,202.076Z" style="fill:url(#_Linear3);fill-rule:nonzero;"/>
            <path d="M102.221,210.279L45.138,198L0,188.291L0,231.981C0,234.328 1.633,236.359 3.925,236.864L102.221,258.5L204.443,281L204.443,233.353L102.221,210.279Z" style="fill:rgb(107,106,106);"/>
        </g>
        <path id="insert-plate" serif:id="insert plate" d="M14.72,186C14.347,186 14.16,185.76 14.16,185.28L14.16,134.32C14.16,133.84 14.347,133.6 14.72,133.6L18.8,133.6C19.173,133.6 19.36,133.84 19.36,134.32L19.36,185.28C19.36,185.76 19.173,186 18.8,186L14.72,186ZM28.078,186C27.758,186 27.598,185.76 27.598,185.28L27.598,134.32C27.598,133.84 27.784,133.6 28.157,133.6L34.718,133.6C35.091,133.6 35.304,133.76 35.358,134.08L43.998,164.8C44.424,166.187 44.851,167.76 45.278,169.52C45.704,171.227 46.104,172.96 46.477,174.72C46.904,176.427 47.251,177.973 47.517,179.36L47.678,179.36C47.624,178.293 47.571,177.12 47.517,175.84C47.464,174.56 47.411,173.253 47.358,171.92C47.358,170.587 47.331,169.28 47.278,168L47.278,134.24C47.278,133.813 47.464,133.6 47.837,133.6L51.758,133.6C52.131,133.6 52.318,133.813 52.318,134.24L52.318,185.28C52.318,185.76 52.131,186 51.758,186L45.197,186C44.931,186 44.744,185.867 44.638,185.6L36.237,155.84C35.438,153.013 34.744,150.293 34.157,147.68C33.571,145.013 33.038,142.533 32.557,140.24L32.398,140.24C32.451,141.787 32.477,143.52 32.477,145.44C32.531,147.307 32.557,149.2 32.557,151.12C32.611,152.987 32.638,154.693 32.638,156.24L32.638,185.28C32.638,185.76 32.477,186 32.157,186L28.078,186ZM69.766,186.48C66.886,186.48 64.593,185.84 62.886,184.56C61.18,183.28 60.006,181.547 59.366,179.36C58.726,177.12 58.513,174.587 58.726,171.76C58.78,171.227 58.966,170.96 59.286,170.96L63.286,170.96C63.713,170.96 63.9,171.227 63.846,171.76C63.473,175.013 63.82,177.44 64.886,179.04C66.006,180.64 67.713,181.44 70.006,181.44C72.086,181.44 73.633,180.827 74.646,179.6C75.713,178.32 76.246,176.347 76.246,173.68C76.246,171.333 75.926,169.413 75.286,167.92C74.646,166.373 73.526,165.013 71.926,163.84L65.446,158.72C63.26,157.013 61.633,155.093 60.566,152.96C59.553,150.773 59.046,148.16 59.046,145.12C59.1,141.333 60.06,138.4 61.926,136.32C63.846,134.187 66.486,133.12 69.846,133.12C73.793,133.12 76.673,134.4 78.486,136.96C80.353,139.52 81.073,143.013 80.646,147.44C80.646,148.027 80.46,148.32 80.086,148.32L76.006,148.32C75.633,148.32 75.473,148.027 75.526,147.44C75.846,144.453 75.5,142.16 74.486,140.56C73.473,138.96 71.953,138.16 69.926,138.16C68.22,138.16 66.86,138.72 65.846,139.84C64.833,140.96 64.3,142.667 64.246,144.96C64.246,147.093 64.62,148.907 65.366,150.4C66.113,151.893 67.26,153.253 68.806,154.48L75.046,159.36C76.593,160.533 77.82,161.787 78.726,163.12C79.686,164.4 80.38,165.893 80.806,167.6C81.233,169.253 81.446,171.2 81.446,173.44C81.446,177.493 80.486,180.693 78.566,183.04C76.7,185.333 73.766,186.48 69.766,186.48ZM88.472,186C88.045,186 87.832,185.76 87.832,185.28L87.832,134.32C87.832,133.84 88.019,133.6 88.392,133.6L106.472,133.6C106.845,133.6 107.032,133.84 107.032,134.32L107.032,137.92C107.032,138.4 106.845,138.64 106.472,138.64L93.032,138.64L93.032,156.88L105.352,156.88C105.725,156.88 105.912,157.12 105.912,157.6L105.912,160.96C105.912,161.44 105.725,161.68 105.352,161.68L93.032,161.68L93.032,180.96L106.472,180.96C106.845,180.96 107.032,181.2 107.032,181.68L107.032,185.28C107.032,185.76 106.845,186 106.472,186L88.472,186ZM115.033,186C114.659,186 114.473,185.76 114.473,185.28L114.473,134.32C114.473,133.84 114.659,133.6 115.033,133.6L123.833,133.6C128.259,133.6 131.486,134.773 133.513,137.12C135.593,139.467 136.633,143.04 136.633,147.84C136.633,151.84 136.046,155.013 134.873,157.36C133.753,159.653 132.179,161.2 130.153,162L130.153,162.08L138.393,185.12C138.499,185.707 138.313,186 137.833,186L133.433,186C133.166,186 132.953,185.84 132.793,185.52L125.033,163.2L119.673,163.2L119.673,185.28C119.673,185.76 119.486,186 119.113,186L115.033,186ZM119.673,158.4L123.993,158.4C126.659,158.4 128.553,157.573 129.673,155.92C130.846,154.213 131.432,151.653 131.432,148.24C131.432,144.773 130.793,142.32 129.513,140.88C128.286,139.387 126.366,138.64 123.753,138.64L119.673,138.64L119.673,158.4ZM150.179,186C149.805,186 149.619,185.76 149.619,185.28L149.619,138.64L141.219,138.64C140.792,138.64 140.579,138.4 140.579,137.92L140.579,134.32C140.579,133.84 140.792,133.6 141.219,133.6L163.219,133.6C163.592,133.6 163.779,133.84 163.779,134.32L163.779,137.92C163.779,138.4 163.592,138.64 163.219,138.64L154.819,138.64L154.819,185.28C154.819,185.76 154.605,186 154.179,186L150.179,186ZM179.876,186C179.503,186 179.316,185.76 179.316,185.28L179.316,134.32C179.316,133.84 179.503,133.6 179.876,133.6L187.556,133.6C192.09,133.6 195.396,134.907 197.476,137.52C199.61,140.08 200.676,144.133 200.676,149.68C200.676,154.853 199.61,158.827 197.476,161.6C195.343,164.32 192.196,165.68 188.036,165.68L184.516,165.68L184.516,185.28C184.516,185.76 184.33,186 183.956,186L179.876,186ZM184.516,160.72L187.556,160.72C190.33,160.72 192.33,159.84 193.556,158.08C194.836,156.32 195.476,153.573 195.476,149.84C195.476,145.787 194.836,142.907 193.556,141.2C192.33,139.44 190.436,138.56 187.876,138.56L184.516,138.56L184.516,160.72ZM207.298,186C206.925,186 206.738,185.76 206.738,185.28L206.738,134.32C206.738,133.84 206.925,133.6 207.298,133.6L211.378,133.6C211.751,133.6 211.938,133.84 211.938,134.32L211.938,180.96L224.898,180.96C225.325,180.96 225.538,181.2 225.538,181.68L225.538,185.28C225.538,185.76 225.325,186 224.898,186L207.298,186ZM227.664,186C227.29,186 227.13,185.733 227.184,185.2L237.584,134.16C237.637,133.787 237.877,133.6 238.304,133.6L243.904,133.6C244.33,133.6 244.57,133.787 244.624,134.16L255.104,185.2C255.157,185.733 254.997,186 254.624,186L250.224,186C249.904,186 249.69,185.84 249.584,185.52L243.104,150.88C242.73,149.013 242.357,147.173 241.984,145.36C241.664,143.493 241.37,141.627 241.104,139.76L240.944,139.76C240.677,141.627 240.384,143.493 240.064,145.36C239.797,147.173 239.477,149.04 239.104,150.96L232.624,185.52C232.57,185.84 232.384,186 232.064,186L227.664,186ZM234.064,173.12L235.024,168.08L247.024,168.08L248.144,173.12L234.064,173.12ZM263.226,186C262.852,186 262.666,185.76 262.666,185.28L262.666,138.64L254.266,138.64C253.839,138.64 253.626,138.4 253.626,137.92L253.626,134.32C253.626,133.84 253.839,133.6 254.266,133.6L276.266,133.6C276.639,133.6 276.826,133.84 276.826,134.32L276.826,137.92C276.826,138.4 276.639,138.64 276.266,138.64L267.866,138.64L267.866,185.28C267.866,185.76 267.652,186 267.226,186L263.226,186ZM283.003,186C282.576,186 282.363,185.76 282.363,185.28L282.363,134.32C282.363,133.84 282.55,133.6 282.923,133.6L301.003,133.6C301.376,133.6 301.563,133.84 301.563,134.32L301.563,137.92C301.563,138.4 301.376,138.64 301.003,138.64L287.563,138.64L287.563,156.88L299.883,156.88C300.256,156.88 300.443,157.12 300.443,157.6L300.443,160.96C300.443,161.44 300.256,161.68 299.883,161.68L287.563,161.68L287.563,180.96L301.003,180.96C301.376,180.96 301.563,181.2 301.563,181.68L301.563,185.28C301.563,185.76 301.376,186 301.003,186L283.003,186Z" style="fill:rgb(249,248,245);fill-rule:nonzero;"/>
        <g id="top">
            <g id="backPreview">
                <rect id="Rectangle-19" serif:id="Rectangle 19" x="0" y="0" width="34" height="35" style="fill:rgb(23,22,22);"/>
                <path id="Union" d="M19.822,10.204C20.095,9.931 20.538,9.932 20.811,10.205L22.178,11.572C22.451,11.846 22.451,12.288 22.178,12.561L14.425,20.315L22.18,28.069C22.453,28.343 22.453,28.786 22.18,29.06L20.813,30.426C20.54,30.7 20.096,30.699 19.823,30.426L11.593,22.196C11.586,22.19 11.578,22.186 11.572,22.179L10.205,20.812C9.975,20.582 9.94,20.234 10.096,19.966C10.12,19.925 10.147,19.887 10.18,19.851C10.188,19.841 10.195,19.831 10.205,19.822L19.822,10.204Z" style="fill:rgb(99,99,99);fill-rule:nonzero;"/>
            </g>
        </g>
        <path id="the-engraving-is-loud-" serif:id="the engraving is loud!" d="M16.877,225C16.779,225 16.73,224.937 16.73,224.811L16.73,212.568L14.525,212.568C14.413,212.568 14.357,212.505 14.357,212.379L14.357,211.434C14.357,211.308 14.413,211.245 14.525,211.245L20.3,211.245C20.398,211.245 20.447,211.308 20.447,211.434L20.447,212.379C20.447,212.505 20.398,212.568 20.3,212.568L18.095,212.568L18.095,224.811C18.095,224.937 18.039,225 17.927,225L16.877,225ZM22.048,225C21.95,225 21.901,224.937 21.901,224.811L21.901,211.434C21.901,211.308 21.95,211.245 22.048,211.245L23.119,211.245C23.217,211.245 23.266,211.308 23.266,211.434L23.266,217.23L27.004,217.23L27.004,211.434C27.004,211.308 27.053,211.245 27.151,211.245L28.201,211.245C28.313,211.245 28.369,211.308 28.369,211.434L28.369,224.811C28.369,224.937 28.313,225 28.201,225L27.151,225C27.053,225 27.004,224.937 27.004,224.811L27.004,218.532L23.266,218.532L23.266,224.811C23.266,224.937 23.217,225 23.119,225L22.048,225ZM30.702,225C30.59,225 30.534,224.937 30.534,224.811L30.534,211.434C30.534,211.308 30.583,211.245 30.681,211.245L35.427,211.245C35.525,211.245 35.574,211.308 35.574,211.434L35.574,212.379C35.574,212.505 35.525,212.568 35.427,212.568L31.899,212.568L31.899,217.356L35.133,217.356C35.231,217.356 35.28,217.419 35.28,217.545L35.28,218.427C35.28,218.553 35.231,218.616 35.133,218.616L31.899,218.616L31.899,223.677L35.427,223.677C35.525,223.677 35.574,223.74 35.574,223.866L35.574,224.811C35.574,224.937 35.525,225 35.427,225L30.702,225ZM40.321,225C40.209,225 40.153,224.937 40.153,224.811L40.153,211.434C40.153,211.308 40.202,211.245 40.3,211.245L45.045,211.245C45.144,211.245 45.193,211.308 45.193,211.434L45.193,212.379C45.193,212.505 45.144,212.568 45.045,212.568L41.517,212.568L41.517,217.356L44.752,217.356C44.849,217.356 44.898,217.419 44.898,217.545L44.898,218.427C44.898,218.553 44.849,218.616 44.752,218.616L41.517,218.616L41.517,223.677L45.045,223.677C45.144,223.677 45.193,223.74 45.193,223.866L45.193,224.811C45.193,224.937 45.144,225 45.045,225L40.321,225ZM47.272,225C47.188,225 47.146,224.937 47.146,224.811L47.146,211.434C47.146,211.308 47.195,211.245 47.293,211.245L49.015,211.245C49.113,211.245 49.169,211.287 49.183,211.371L51.451,219.435C51.563,219.799 51.675,220.212 51.787,220.674C51.899,221.122 52.004,221.577 52.102,222.039C52.214,222.487 52.305,222.893 52.375,223.257L52.417,223.257C52.403,222.977 52.389,222.669 52.375,222.333C52.361,221.997 52.347,221.654 52.333,221.304C52.333,220.954 52.326,220.611 52.312,220.275L52.312,211.413C52.312,211.301 52.361,211.245 52.459,211.245L53.488,211.245C53.586,211.245 53.635,211.301 53.635,211.413L53.635,224.811C53.635,224.937 53.586,225 53.488,225L51.766,225C51.696,225 51.647,224.965 51.619,224.895L49.414,217.083C49.204,216.341 49.022,215.627 48.868,214.941C48.714,214.241 48.574,213.59 48.448,212.988L48.406,212.988C48.42,213.394 48.427,213.849 48.427,214.353C48.441,214.843 48.448,215.34 48.448,215.844C48.462,216.334 48.469,216.782 48.469,217.188L48.469,224.811C48.469,224.937 48.427,225 48.343,225L47.272,225ZM58.551,225.126C57.543,225.126 56.801,224.797 56.325,224.139C55.849,223.467 55.611,222.459 55.611,221.115L55.611,215.214C55.611,213.884 55.891,212.869 56.451,212.169C57.011,211.469 57.816,211.119 58.866,211.119C59.972,211.119 60.805,211.504 61.365,212.274C61.925,213.044 62.149,214.108 62.037,215.466C62.037,215.578 61.988,215.634 61.89,215.634L60.798,215.634C60.686,215.634 60.644,215.578 60.672,215.466C60.77,214.514 60.658,213.772 60.336,213.24C60.014,212.708 59.538,212.442 58.908,212.442C58.264,212.442 57.781,212.673 57.459,213.135C57.137,213.597 56.976,214.311 56.976,215.277L56.976,221.01C56.976,222.004 57.116,222.718 57.396,223.152C57.676,223.586 58.145,223.803 58.803,223.803C59.461,223.803 59.958,223.537 60.294,223.005C60.63,222.473 60.798,221.654 60.798,220.548L60.798,219.372L59.055,219.372C58.957,219.372 58.908,219.309 58.908,219.183L58.908,218.259C58.908,218.133 58.957,218.07 59.055,218.07L61.974,218.07C62.072,218.07 62.121,218.133 62.121,218.259L62.121,222.312C62.121,222.928 62.128,223.418 62.142,223.782C62.156,224.132 62.184,224.468 62.226,224.79C62.24,224.93 62.198,225 62.1,225L61.239,225C61.127,225 61.071,224.951 61.071,224.853C61.043,224.671 61.022,224.461 61.008,224.223C60.994,223.985 60.98,223.684 60.966,223.32L60.945,223.32C60.763,223.88 60.469,224.321 60.063,224.643C59.671,224.965 59.167,225.126 58.551,225.126ZM64.478,225C64.38,225 64.331,224.937 64.331,224.811L64.331,211.434C64.331,211.308 64.38,211.245 64.478,211.245L66.788,211.245C67.95,211.245 68.797,211.553 69.329,212.169C69.875,212.785 70.148,213.723 70.148,214.983C70.148,216.033 69.994,216.866 69.686,217.482C69.392,218.084 68.979,218.49 68.447,218.7L68.447,218.721L70.61,224.769C70.638,224.923 70.589,225 70.463,225L69.308,225C69.238,225 69.182,224.958 69.14,224.874L67.103,219.015L65.696,219.015L65.696,224.811C65.696,224.937 65.647,225 65.549,225L64.478,225ZM65.696,217.755L66.83,217.755C67.53,217.755 68.027,217.538 68.321,217.104C68.629,216.656 68.783,215.984 68.783,215.088C68.783,214.178 68.615,213.534 68.279,213.156C67.957,212.764 67.453,212.568 66.767,212.568L65.696,212.568L65.696,217.755ZM71.014,225C70.916,225 70.874,224.93 70.888,224.79L73.618,211.392C73.632,211.294 73.695,211.245 73.807,211.245L75.277,211.245C75.389,211.245 75.452,211.294 75.466,211.392L78.217,224.79C78.231,224.93 78.189,225 78.091,225L76.936,225C76.852,225 76.796,224.958 76.768,224.874L75.067,215.781C74.969,215.291 74.871,214.808 74.773,214.332C74.689,213.842 74.612,213.352 74.542,212.862L74.5,212.862C74.43,213.352 74.353,213.842 74.269,214.332C74.199,214.808 74.115,215.298 74.017,215.802L72.316,224.874C72.302,224.958 72.253,225 72.169,225L71.014,225ZM72.694,221.619L72.946,220.296L76.096,220.296L76.39,221.619L72.694,221.619ZM80.68,225C80.61,225 80.561,224.958 80.533,224.874L77.887,211.455C77.873,211.315 77.915,211.245 78.013,211.245L79.147,211.245C79.245,211.245 79.301,211.287 79.315,211.371L80.995,220.422C81.079,220.912 81.156,221.409 81.226,221.913C81.31,222.403 81.387,222.893 81.457,223.383L81.499,223.383C81.569,222.893 81.646,222.403 81.73,221.913C81.814,221.409 81.898,220.912 81.982,220.422L83.662,211.392C83.676,211.294 83.725,211.245 83.809,211.245L84.964,211.245C85.062,211.245 85.104,211.315 85.09,211.455L82.444,224.853C82.416,224.951 82.367,225 82.297,225L80.68,225ZM86.565,225C86.467,225 86.418,224.937 86.418,224.811L86.418,211.434C86.418,211.308 86.467,211.245 86.565,211.245L87.636,211.245C87.734,211.245 87.783,211.308 87.783,211.434L87.783,224.811C87.783,224.937 87.734,225 87.636,225L86.565,225ZM90.072,225C89.987,225 89.945,224.937 89.945,224.811L89.945,211.434C89.945,211.308 89.995,211.245 90.093,211.245L91.814,211.245C91.912,211.245 91.969,211.287 91.983,211.371L94.251,219.435C94.362,219.799 94.475,220.212 94.587,220.674C94.698,221.122 94.803,221.577 94.901,222.039C95.013,222.487 95.105,222.893 95.174,223.257L95.216,223.257C95.203,222.977 95.189,222.669 95.174,222.333C95.16,221.997 95.147,221.654 95.132,221.304C95.132,220.954 95.126,220.611 95.112,220.275L95.112,211.413C95.112,211.301 95.16,211.245 95.258,211.245L96.287,211.245C96.385,211.245 96.434,211.301 96.434,211.413L96.434,224.811C96.434,224.937 96.385,225 96.287,225L94.566,225C94.496,225 94.447,224.965 94.418,224.895L92.213,217.083C92.004,216.341 91.822,215.627 91.668,214.941C91.513,214.241 91.374,213.59 91.248,212.988L91.206,212.988C91.219,213.394 91.227,213.849 91.227,214.353C91.24,214.843 91.248,215.34 91.248,215.844C91.261,216.334 91.269,216.782 91.269,217.188L91.269,224.811C91.269,224.937 91.227,225 91.142,225L90.072,225ZM101.351,225.126C100.343,225.126 99.601,224.797 99.125,224.139C98.649,223.467 98.411,222.459 98.411,221.115L98.411,215.214C98.411,213.884 98.691,212.869 99.251,212.169C99.811,211.469 100.616,211.119 101.666,211.119C102.772,211.119 103.605,211.504 104.165,212.274C104.725,213.044 104.949,214.108 104.837,215.466C104.837,215.578 104.788,215.634 104.69,215.634L103.598,215.634C103.486,215.634 103.444,215.578 103.472,215.466C103.57,214.514 103.458,213.772 103.136,213.24C102.814,212.708 102.338,212.442 101.708,212.442C101.064,212.442 100.581,212.673 100.259,213.135C99.937,213.597 99.776,214.311 99.776,215.277L99.776,221.01C99.776,222.004 99.916,222.718 100.196,223.152C100.476,223.586 100.945,223.803 101.603,223.803C102.261,223.803 102.758,223.537 103.094,223.005C103.43,222.473 103.598,221.654 103.598,220.548L103.598,219.372L101.855,219.372C101.757,219.372 101.708,219.309 101.708,219.183L101.708,218.259C101.708,218.133 101.757,218.07 101.855,218.07L104.774,218.07C104.872,218.07 104.921,218.133 104.921,218.259L104.921,222.312C104.921,222.928 104.928,223.418 104.942,223.782C104.956,224.132 104.984,224.468 105.026,224.79C105.04,224.93 104.998,225 104.9,225L104.039,225C103.927,225 103.871,224.951 103.871,224.853C103.843,224.671 103.822,224.461 103.808,224.223C103.794,223.985 103.78,223.684 103.766,223.32L103.745,223.32C103.563,223.88 103.269,224.321 102.863,224.643C102.471,224.965 101.967,225.126 101.351,225.126ZM109.903,225C109.805,225 109.756,224.937 109.756,224.811L109.756,211.434C109.756,211.308 109.805,211.245 109.903,211.245L110.974,211.245C111.072,211.245 111.121,211.308 111.121,211.434L111.121,224.811C111.121,224.937 111.072,225 110.974,225L109.903,225ZM115.698,225.126C114.942,225.126 114.34,224.958 113.892,224.622C113.444,224.286 113.136,223.831 112.968,223.257C112.8,222.669 112.744,222.004 112.8,221.262C112.814,221.122 112.863,221.052 112.947,221.052L113.997,221.052C114.109,221.052 114.158,221.122 114.144,221.262C114.046,222.116 114.137,222.753 114.417,223.173C114.711,223.593 115.159,223.803 115.761,223.803C116.307,223.803 116.713,223.642 116.979,223.32C117.259,222.984 117.399,222.466 117.399,221.766C117.399,221.15 117.315,220.646 117.147,220.254C116.979,219.848 116.685,219.491 116.265,219.183L114.564,217.839C113.99,217.391 113.563,216.887 113.283,216.327C113.017,215.753 112.884,215.067 112.884,214.269C112.898,213.275 113.15,212.505 113.64,211.959C114.144,211.399 114.837,211.119 115.719,211.119C116.755,211.119 117.511,211.455 117.987,212.127C118.477,212.799 118.666,213.716 118.554,214.878C118.554,215.032 118.505,215.109 118.407,215.109L117.336,215.109C117.238,215.109 117.196,215.032 117.21,214.878C117.294,214.094 117.203,213.492 116.937,213.072C116.671,212.652 116.272,212.442 115.74,212.442C115.292,212.442 114.935,212.589 114.669,212.883C114.403,213.177 114.263,213.625 114.249,214.227C114.249,214.787 114.347,215.263 114.543,215.655C114.739,216.047 115.04,216.404 115.446,216.726L117.084,218.007C117.49,218.315 117.812,218.644 118.05,218.994C118.302,219.33 118.484,219.722 118.596,220.17C118.708,220.604 118.764,221.115 118.764,221.703C118.764,222.767 118.512,223.607 118.008,224.223C117.518,224.825 116.748,225.126 115.698,225.126ZM123.213,225C123.115,225 123.066,224.937 123.066,224.811L123.066,211.434C123.066,211.308 123.115,211.245 123.213,211.245L124.284,211.245C124.382,211.245 124.431,211.308 124.431,211.434L124.431,223.677L127.833,223.677C127.945,223.677 128.001,223.74 128.001,223.866L128.001,224.811C128.001,224.937 127.945,225 127.833,225L123.213,225ZM132.202,225.126C131.152,225.126 130.34,224.804 129.766,224.16C129.206,223.516 128.926,222.543 128.926,221.241L128.926,215.046C128.926,213.716 129.206,212.729 129.766,212.085C130.34,211.441 131.152,211.119 132.202,211.119C133.252,211.119 134.064,211.441 134.638,212.085C135.212,212.729 135.499,213.716 135.499,215.046L135.499,221.241C135.499,222.543 135.212,223.516 134.638,224.16C134.064,224.804 133.252,225.126 132.202,225.126ZM132.202,223.803C132.832,223.803 133.308,223.593 133.63,223.173C133.966,222.739 134.134,222.06 134.134,221.136L134.134,215.13C134.134,214.192 133.966,213.513 133.63,213.093C133.308,212.659 132.832,212.442 132.202,212.442C131.586,212.442 131.11,212.659 130.774,213.093C130.452,213.513 130.291,214.192 130.291,215.13L130.291,221.136C130.291,222.06 130.452,222.739 130.774,223.173C131.11,223.593 131.586,223.803 132.202,223.803ZM140.611,225.126C139.505,225.126 138.693,224.769 138.175,224.055C137.671,223.341 137.419,222.263 137.419,220.821L137.419,211.413C137.419,211.301 137.468,211.245 137.566,211.245L138.637,211.245C138.735,211.245 138.784,211.301 138.784,211.413L138.784,220.8C138.784,221.836 138.924,222.599 139.204,223.089C139.498,223.565 139.967,223.803 140.611,223.803C141.269,223.803 141.738,223.565 142.018,223.089C142.312,222.613 142.459,221.85 142.459,220.8L142.459,211.413C142.459,211.301 142.508,211.245 142.606,211.245L143.677,211.245C143.775,211.245 143.824,211.301 143.824,211.413L143.824,220.821C143.824,222.263 143.558,223.341 143.026,224.055C142.494,224.769 141.689,225.126 140.611,225.126ZM146.121,225C145.995,225 145.932,224.937 145.932,224.811L145.932,211.434C145.932,211.308 145.988,211.245 146.1,211.245L148.158,211.245C149.6,211.245 150.664,211.7 151.35,212.61C152.05,213.506 152.4,214.892 152.4,216.768L152.4,218.847C152.4,220.933 152.064,222.48 151.392,223.488C150.72,224.496 149.677,225 148.263,225L146.121,225ZM147.297,223.677L148.158,223.677C149.194,223.677 149.929,223.306 150.363,222.564C150.811,221.808 151.035,220.604 151.035,218.952L151.035,216.726C151.035,215.284 150.804,214.234 150.342,213.576C149.88,212.904 149.131,212.568 148.095,212.568L147.297,212.568L147.297,223.677ZM154.362,220.968C154.278,220.968 154.236,220.912 154.236,220.8L154.131,211.413C154.131,211.301 154.173,211.245 154.257,211.245L155.538,211.245C155.636,211.245 155.685,211.308 155.685,211.434L155.58,220.8C155.58,220.912 155.538,220.968 155.454,220.968L154.362,220.968ZM154.908,225.126C154.6,225.126 154.369,225.049 154.215,224.895C154.061,224.741 153.984,224.51 153.984,224.202L153.984,224.034C153.984,223.726 154.061,223.495 154.215,223.341C154.369,223.187 154.6,223.11 154.908,223.11C155.216,223.11 155.447,223.187 155.601,223.341C155.755,223.495 155.832,223.726 155.832,224.034L155.832,224.202C155.832,224.51 155.755,224.741 155.601,224.895C155.447,225.049 155.216,225.126 154.908,225.126Z" style="fill:rgb(189,186,178);fill-rule:nonzero;"/>
        <g id="engravBtn">
            <path d="M465,260L465,302C465,303.656 463.656,305 462,305L323,305C321.344,305 320,303.656 320,302L320,260C320,258.344 321.344,257 323,257L462,257C463.656,257 465,258.344 465,260Z" style="fill:rgb(244,104,44);"/>
            <path id="engrave" d="M342.2,293C341.96,293 341.84,292.867 341.84,292.6L341.84,267.2C341.84,266.933 341.947,266.8 342.16,266.8L352.36,266.8C352.573,266.8 352.68,266.933 352.68,267.2L352.68,269.8C352.68,270.093 352.573,270.24 352.36,270.24L345.56,270.24L345.56,278.04L351.76,278.04C351.973,278.04 352.08,278.187 352.08,278.48L352.08,280.92C352.08,281.187 351.973,281.32 351.76,281.32L345.56,281.32L345.56,289.56L352.36,289.56C352.573,289.56 352.68,289.707 352.68,290L352.68,292.6C352.68,292.867 352.573,293 352.36,293L342.2,293ZM355.501,293C355.287,293 355.181,292.867 355.181,292.6L355.181,267.2C355.181,266.933 355.287,266.8 355.501,266.8L359.701,266.8C359.914,266.8 360.047,266.893 360.101,267.08L363.941,280.92C364.127,281.613 364.327,282.387 364.541,283.24C364.754,284.067 364.954,284.907 365.141,285.76C365.327,286.587 365.487,287.333 365.621,288L365.701,288C365.647,287.467 365.607,286.853 365.581,286.16C365.554,285.467 365.527,284.76 365.501,284.04C365.474,283.32 365.447,282.613 365.421,281.92L365.421,267.2C365.421,266.933 365.527,266.8 365.741,266.8L368.581,266.8C368.821,266.8 368.941,266.933 368.941,267.2L368.941,292.6C368.941,292.867 368.821,293 368.581,293L364.421,293C364.234,293 364.114,292.92 364.061,292.76L360.261,279.24C359.887,277.933 359.567,276.653 359.301,275.4C359.034,274.12 358.781,272.947 358.541,271.88L358.461,271.88C358.514,272.653 358.554,273.547 358.581,274.56C358.607,275.547 358.634,276.547 358.661,277.56C358.687,278.573 358.701,279.467 358.701,280.24L358.701,292.6C358.701,292.867 358.594,293 358.381,293L355.501,293ZM377.403,293.24C375.403,293.24 373.897,292.573 372.883,291.24C371.897,289.907 371.403,287.893 371.403,285.2L371.403,274.92C371.403,272.2 371.99,270.133 373.163,268.72C374.363,267.28 376.097,266.56 378.363,266.56C380.657,266.56 382.39,267.32 383.563,268.84C384.763,270.333 385.257,272.387 385.043,275C385.043,275.24 384.937,275.36 384.723,275.36L381.643,275.36C381.403,275.36 381.31,275.227 381.363,274.96C381.523,273.387 381.337,272.173 380.803,271.32C380.27,270.44 379.47,270 378.403,270C377.283,270 376.457,270.413 375.923,271.24C375.39,272.04 375.123,273.293 375.123,275L375.123,284.88C375.123,286.64 375.35,287.907 375.803,288.68C376.283,289.427 377.097,289.8 378.243,289.8C379.337,289.8 380.163,289.36 380.723,288.48C381.283,287.6 381.563,286.267 381.563,284.48L381.563,282.56L378.643,282.56C378.403,282.56 378.283,282.413 378.283,282.12L378.283,279.96C378.283,279.693 378.403,279.56 378.643,279.56L384.843,279.56C385.057,279.56 385.163,279.693 385.163,279.96L385.163,287.4C385.163,288.653 385.177,289.667 385.203,290.44C385.257,291.213 385.323,291.92 385.403,292.56C385.457,292.853 385.35,293 385.083,293L382.683,293C382.47,293 382.35,292.88 382.323,292.64C382.27,292.32 382.23,291.947 382.203,291.52C382.177,291.067 382.15,290.52 382.123,289.88L382.083,289.88C381.683,290.92 381.097,291.747 380.323,292.36C379.577,292.947 378.603,293.24 377.403,293.24ZM388.393,293C388.179,293 388.073,292.867 388.073,292.6L388.073,267.2C388.073,266.933 388.179,266.8 388.393,266.8L393.513,266.8C395.966,266.8 397.753,267.4 398.873,268.6C399.993,269.8 400.553,271.667 400.553,274.2C400.553,276.173 400.273,277.747 399.713,278.92C399.179,280.067 398.406,280.867 397.393,281.32L397.353,281.36L401.513,292.48C401.593,292.827 401.486,293 401.193,293L397.913,293C397.726,293 397.593,292.907 397.513,292.72L393.833,282.12L391.793,282.12L391.793,292.6C391.793,292.867 391.673,293 391.433,293L388.393,293ZM391.793,278.88L393.593,278.88C394.766,278.88 395.606,278.52 396.113,277.8C396.619,277.053 396.873,275.933 396.873,274.44C396.873,272.947 396.593,271.88 396.033,271.24C395.499,270.573 394.659,270.24 393.513,270.24L391.793,270.24L391.793,278.88ZM401.688,293C401.475,293 401.382,292.853 401.408,292.56L406.728,267.12C406.755,266.907 406.888,266.8 407.128,266.8L411.128,266.8C411.368,266.8 411.502,266.907 411.528,267.12L416.848,292.52C416.902,292.84 416.808,293 416.568,293L413.248,293C413.062,293 412.942,292.907 412.888,292.72L410.048,276.2C409.862,275.293 409.688,274.387 409.528,273.48C409.395,272.547 409.262,271.613 409.128,270.68L409.048,270.68C408.942,271.613 408.822,272.547 408.688,273.48C408.555,274.387 408.395,275.307 408.208,276.24L405.328,292.68C405.302,292.893 405.182,293 404.968,293L401.688,293ZM405.768,287.04L406.328,283.8L411.808,283.8L412.488,287.04L405.768,287.04ZM420.707,293C420.521,293 420.401,292.893 420.347,292.68L415.227,267.28C415.201,266.96 415.294,266.8 415.507,266.8L418.787,266.8C419.001,266.8 419.134,266.893 419.187,267.08L421.987,283.44C422.147,284.347 422.294,285.28 422.427,286.24C422.561,287.173 422.681,288.133 422.787,289.12L422.867,289.12C422.974,288.133 423.094,287.173 423.227,286.24C423.387,285.28 423.547,284.347 423.707,283.44L426.467,267.12C426.494,266.907 426.614,266.8 426.827,266.8L430.147,266.8C430.361,266.8 430.454,266.947 430.427,267.24L425.347,292.68C425.267,292.893 425.147,293 424.987,293L420.707,293ZM432.205,293C431.965,293 431.845,292.867 431.845,292.6L431.845,267.2C431.845,266.933 431.951,266.8 432.165,266.8L442.365,266.8C442.578,266.8 442.685,266.933 442.685,267.2L442.685,269.8C442.685,270.093 442.578,270.24 442.365,270.24L435.565,270.24L435.565,278.04L441.765,278.04C441.978,278.04 442.085,278.187 442.085,278.48L442.085,280.92C442.085,281.187 441.978,281.32 441.765,281.32L435.565,281.32L435.565,289.56L442.365,289.56C442.578,289.56 442.685,289.707 442.685,290L442.685,292.6C442.685,292.867 442.578,293 442.365,293L432.205,293Z" style="fill:rgb(23,22,22);fill-rule:nonzero;"/>
        </g>
    </g>
    <defs>
        <linearGradient id="_Linear1" x1="0" y1="0" x2="1" y2="0" gradientUnits="userSpaceOnUse" gradientTransform="matrix(0,242,-242,0,240,39)"><stop offset="0" style="stop-color:rgb(168,164,164);stop-opacity:1"/><stop offset="1" style="stop-color:rgb(66,64,64);stop-opacity:1"/></linearGradient>
        <linearGradient id="_Linear2" x1="0" y1="0" x2="1" y2="0" gradientUnits="userSpaceOnUse" gradientTransform="matrix(0,242,-242,0,240,39)"><stop offset="0" style="stop-color:rgb(36,36,36);stop-opacity:1"/><stop offset="0.59" style="stop-color:rgb(36,36,36);stop-opacity:1"/><stop offset="1" style="stop-color:rgb(152,152,152);stop-opacity:1"/></linearGradient>
        <linearGradient id="_Linear3" x1="0" y1="0" x2="1" y2="0" gradientUnits="userSpaceOnUse" gradientTransform="matrix(0,242,-242,0,240,39)"><stop offset="0" style="stop-color:rgb(66,66,66);stop-opacity:1"/><stop offset="0.57" style="stop-color:rgb(66,66,66);stop-opacity:1"/><stop offset="1" style="stop-color:rgb(168,167,167);stop-opacity:1"/></linearGradient>
    </defs>
</svg>
